G04 #@! TF.GenerationSoftware,KiCad,Pcbnew,7.0.11-7.0.11~ubuntu22.04.1*
G04 #@! TF.CreationDate,2024-09-12T14:51:07+07:00*
G04 #@! TF.ProjectId,scale,7363616c-652e-46b6-9963-61645f706362,rev?*
G04 #@! TF.SameCoordinates,Original*
G04 #@! TF.FileFunction,Legend,Bot*
G04 #@! TF.FilePolarity,Positive*
%FSLAX46Y46*%
G04 Gerber Fmt 4.6, Leading zero omitted, Abs format (unit mm)*
G04 Created by KiCad (PCBNEW 7.0.11-7.0.11~ubuntu22.04.1) date 2024-09-12 14:51:07*
%MOMM*%
%LPD*%
G01*
G04 APERTURE LIST*
G04 Aperture macros list*
%AMRoundRect*
0 Rectangle with rounded corners*
0 $1 Rounding radius*
0 $2 $3 $4 $5 $6 $7 $8 $9 X,Y pos of 4 corners*
0 Add a 4 corners polygon primitive as box body*
4,1,4,$2,$3,$4,$5,$6,$7,$8,$9,$2,$3,0*
0 Add four circle primitives for the rounded corners*
1,1,$1+$1,$2,$3*
1,1,$1+$1,$4,$5*
1,1,$1+$1,$6,$7*
1,1,$1+$1,$8,$9*
0 Add four rect primitives between the rounded corners*
20,1,$1+$1,$2,$3,$4,$5,0*
20,1,$1+$1,$4,$5,$6,$7,0*
20,1,$1+$1,$6,$7,$8,$9,0*
20,1,$1+$1,$8,$9,$2,$3,0*%
G04 Aperture macros list end*
%ADD10C,0.150000*%
%ADD11C,0.508000*%
%ADD12C,0.120000*%
%ADD13C,1.320800*%
%ADD14C,1.828800*%
%ADD15C,1.712000*%
%ADD16RoundRect,0.102000X-0.795000X-0.795000X0.795000X-0.795000X0.795000X0.795000X-0.795000X0.795000X0*%
%ADD17C,1.794000*%
%ADD18RoundRect,0.102000X0.754000X0.754000X-0.754000X0.754000X-0.754000X-0.754000X0.754000X-0.754000X0*%
%ADD19R,1.700000X1.700000*%
%ADD20O,1.700000X1.700000*%
%ADD21C,3.000000*%
%ADD22RoundRect,0.112500X-0.187500X-0.112500X0.187500X-0.112500X0.187500X0.112500X-0.187500X0.112500X0*%
G04 APERTURE END LIST*
D10*
X25138094Y-43154819D02*
X25138094Y-42154819D01*
X25138094Y-42154819D02*
X24899999Y-42154819D01*
X24899999Y-42154819D02*
X24757142Y-42202438D01*
X24757142Y-42202438D02*
X24661904Y-42297676D01*
X24661904Y-42297676D02*
X24614285Y-42392914D01*
X24614285Y-42392914D02*
X24566666Y-42583390D01*
X24566666Y-42583390D02*
X24566666Y-42726247D01*
X24566666Y-42726247D02*
X24614285Y-42916723D01*
X24614285Y-42916723D02*
X24661904Y-43011961D01*
X24661904Y-43011961D02*
X24757142Y-43107200D01*
X24757142Y-43107200D02*
X24899999Y-43154819D01*
X24899999Y-43154819D02*
X25138094Y-43154819D01*
X23709523Y-42154819D02*
X23899999Y-42154819D01*
X23899999Y-42154819D02*
X23995237Y-42202438D01*
X23995237Y-42202438D02*
X24042856Y-42250057D01*
X24042856Y-42250057D02*
X24138094Y-42392914D01*
X24138094Y-42392914D02*
X24185713Y-42583390D01*
X24185713Y-42583390D02*
X24185713Y-42964342D01*
X24185713Y-42964342D02*
X24138094Y-43059580D01*
X24138094Y-43059580D02*
X24090475Y-43107200D01*
X24090475Y-43107200D02*
X23995237Y-43154819D01*
X23995237Y-43154819D02*
X23804761Y-43154819D01*
X23804761Y-43154819D02*
X23709523Y-43107200D01*
X23709523Y-43107200D02*
X23661904Y-43059580D01*
X23661904Y-43059580D02*
X23614285Y-42964342D01*
X23614285Y-42964342D02*
X23614285Y-42726247D01*
X23614285Y-42726247D02*
X23661904Y-42631009D01*
X23661904Y-42631009D02*
X23709523Y-42583390D01*
X23709523Y-42583390D02*
X23804761Y-42535771D01*
X23804761Y-42535771D02*
X23995237Y-42535771D01*
X23995237Y-42535771D02*
X24090475Y-42583390D01*
X24090475Y-42583390D02*
X24138094Y-42631009D01*
X24138094Y-42631009D02*
X24185713Y-42726247D01*
D11*
X60081000Y-49572800D02*
G75*
G03*
X59319000Y-49572800I-381000J0D01*
G01*
X59319000Y-49572800D02*
G75*
G03*
X60081000Y-49572800I381000J0D01*
G01*
X64197400Y-52704901D02*
G75*
G03*
X63435400Y-52704901I-381000J0D01*
G01*
X63435400Y-52704901D02*
G75*
G03*
X64197400Y-52704901I381000J0D01*
G01*
D12*
X23640000Y-39850000D02*
X26300000Y-39850000D01*
X23640000Y-41550000D02*
X23640000Y-39850000D01*
X23640000Y-41550000D02*
X26300000Y-41550000D01*
%LPC*%
D13*
X59700000Y-46616596D03*
X67500000Y-46616596D03*
X52200002Y-4116604D03*
X74999997Y-4116604D03*
D14*
X67628400Y-52704901D03*
X71438400Y-52704901D03*
D15*
X21400000Y-40700000D03*
X29000000Y-40700000D03*
D16*
X29400000Y-51312500D03*
D17*
X31900000Y-51312500D03*
X34400000Y-51312500D03*
X36900000Y-51312500D03*
X39400000Y-51312500D03*
D18*
X22404750Y-51350000D03*
D15*
X19904750Y-51350000D03*
X17404750Y-51350000D03*
X14904750Y-51350000D03*
D19*
X1900000Y-34420000D03*
D20*
X1900000Y-31880000D03*
X1900000Y-29340000D03*
X1900000Y-26800000D03*
X1900000Y-24260000D03*
D21*
X52000000Y-55000000D03*
X28500000Y-29735000D03*
X5000000Y-55000000D03*
D22*
X24200000Y-40700000D03*
X26300000Y-40700000D03*
%LPD*%
M02*
