G04 #@! TF.GenerationSoftware,KiCad,Pcbnew,7.0.11-7.0.11~ubuntu22.04.1*
G04 #@! TF.CreationDate,2024-10-12T06:54:40+07:00*
G04 #@! TF.ProjectId,scale,7363616c-652e-46b6-9963-61645f706362,rev?*
G04 #@! TF.SameCoordinates,Original*
G04 #@! TF.FileFunction,Legend,Bot*
G04 #@! TF.FilePolarity,Positive*
%FSLAX46Y46*%
G04 Gerber Fmt 4.6, Leading zero omitted, Abs format (unit mm)*
G04 Created by KiCad (PCBNEW 7.0.11-7.0.11~ubuntu22.04.1) date 2024-10-12 06:54:40*
%MOMM*%
%LPD*%
G01*
G04 APERTURE LIST*
G04 Aperture macros list*
%AMRoundRect*
0 Rectangle with rounded corners*
0 $1 Rounding radius*
0 $2 $3 $4 $5 $6 $7 $8 $9 X,Y pos of 4 corners*
0 Add a 4 corners polygon primitive as box body*
4,1,4,$2,$3,$4,$5,$6,$7,$8,$9,$2,$3,0*
0 Add four circle primitives for the rounded corners*
1,1,$1+$1,$2,$3*
1,1,$1+$1,$4,$5*
1,1,$1+$1,$6,$7*
1,1,$1+$1,$8,$9*
0 Add four rect primitives between the rounded corners*
20,1,$1+$1,$2,$3,$4,$5,0*
20,1,$1+$1,$4,$5,$6,$7,0*
20,1,$1+$1,$6,$7,$8,$9,0*
20,1,$1+$1,$8,$9,$2,$3,0*%
G04 Aperture macros list end*
%ADD10C,0.300000*%
%ADD11C,0.250000*%
%ADD12C,0.508000*%
%ADD13C,1.828800*%
%ADD14C,1.712000*%
%ADD15RoundRect,0.102000X-0.795000X0.795000X-0.795000X-0.795000X0.795000X-0.795000X0.795000X0.795000X0*%
%ADD16C,1.794000*%
%ADD17C,1.320800*%
%ADD18RoundRect,0.102000X-0.754000X-0.754000X0.754000X-0.754000X0.754000X0.754000X-0.754000X0.754000X0*%
%ADD19R,1.700000X1.700000*%
%ADD20O,1.700000X1.700000*%
%ADD21C,3.000000*%
%ADD22C,1.498600*%
G04 APERTURE END LIST*
D10*
X48847368Y-69950828D02*
X48847368Y-71165114D01*
X48847368Y-71165114D02*
X48775939Y-71307971D01*
X48775939Y-71307971D02*
X48704510Y-71379400D01*
X48704510Y-71379400D02*
X48561653Y-71450828D01*
X48561653Y-71450828D02*
X48347368Y-71450828D01*
X48347368Y-71450828D02*
X48204510Y-71379400D01*
X48847368Y-70879400D02*
X48704510Y-70950828D01*
X48704510Y-70950828D02*
X48418796Y-70950828D01*
X48418796Y-70950828D02*
X48275939Y-70879400D01*
X48275939Y-70879400D02*
X48204510Y-70807971D01*
X48204510Y-70807971D02*
X48133082Y-70665114D01*
X48133082Y-70665114D02*
X48133082Y-70236542D01*
X48133082Y-70236542D02*
X48204510Y-70093685D01*
X48204510Y-70093685D02*
X48275939Y-70022257D01*
X48275939Y-70022257D02*
X48418796Y-69950828D01*
X48418796Y-69950828D02*
X48704510Y-69950828D01*
X48704510Y-69950828D02*
X48847368Y-70022257D01*
X49561653Y-69950828D02*
X49561653Y-70950828D01*
X49561653Y-70093685D02*
X49633082Y-70022257D01*
X49633082Y-70022257D02*
X49775939Y-69950828D01*
X49775939Y-69950828D02*
X49990225Y-69950828D01*
X49990225Y-69950828D02*
X50133082Y-70022257D01*
X50133082Y-70022257D02*
X50204511Y-70165114D01*
X50204511Y-70165114D02*
X50204511Y-70950828D01*
X51561654Y-70950828D02*
X51561654Y-69450828D01*
X51561654Y-70879400D02*
X51418796Y-70950828D01*
X51418796Y-70950828D02*
X51133082Y-70950828D01*
X51133082Y-70950828D02*
X50990225Y-70879400D01*
X50990225Y-70879400D02*
X50918796Y-70807971D01*
X50918796Y-70807971D02*
X50847368Y-70665114D01*
X50847368Y-70665114D02*
X50847368Y-70236542D01*
X50847368Y-70236542D02*
X50918796Y-70093685D01*
X50918796Y-70093685D02*
X50990225Y-70022257D01*
X50990225Y-70022257D02*
X51133082Y-69950828D01*
X51133082Y-69950828D02*
X51418796Y-69950828D01*
X51418796Y-69950828D02*
X51561654Y-70022257D01*
X48304510Y-68600828D02*
X48304510Y-67100828D01*
X48304510Y-67672257D02*
X48447368Y-67600828D01*
X48447368Y-67600828D02*
X48733082Y-67600828D01*
X48733082Y-67600828D02*
X48875939Y-67672257D01*
X48875939Y-67672257D02*
X48947368Y-67743685D01*
X48947368Y-67743685D02*
X49018796Y-67886542D01*
X49018796Y-67886542D02*
X49018796Y-68315114D01*
X49018796Y-68315114D02*
X48947368Y-68457971D01*
X48947368Y-68457971D02*
X48875939Y-68529400D01*
X48875939Y-68529400D02*
X48733082Y-68600828D01*
X48733082Y-68600828D02*
X48447368Y-68600828D01*
X48447368Y-68600828D02*
X48304510Y-68529400D01*
X49447368Y-67600828D02*
X50018796Y-67600828D01*
X49661653Y-67100828D02*
X49661653Y-68386542D01*
X49661653Y-68386542D02*
X49733082Y-68529400D01*
X49733082Y-68529400D02*
X49875939Y-68600828D01*
X49875939Y-68600828D02*
X50018796Y-68600828D01*
X51304511Y-68600828D02*
X50447368Y-68600828D01*
X50875939Y-68600828D02*
X50875939Y-67100828D01*
X50875939Y-67100828D02*
X50733082Y-67315114D01*
X50733082Y-67315114D02*
X50590225Y-67457971D01*
X50590225Y-67457971D02*
X50447368Y-67529400D01*
X48304510Y-66050828D02*
X48304510Y-64550828D01*
X48304510Y-65122257D02*
X48447368Y-65050828D01*
X48447368Y-65050828D02*
X48733082Y-65050828D01*
X48733082Y-65050828D02*
X48875939Y-65122257D01*
X48875939Y-65122257D02*
X48947368Y-65193685D01*
X48947368Y-65193685D02*
X49018796Y-65336542D01*
X49018796Y-65336542D02*
X49018796Y-65765114D01*
X49018796Y-65765114D02*
X48947368Y-65907971D01*
X48947368Y-65907971D02*
X48875939Y-65979400D01*
X48875939Y-65979400D02*
X48733082Y-66050828D01*
X48733082Y-66050828D02*
X48447368Y-66050828D01*
X48447368Y-66050828D02*
X48304510Y-65979400D01*
X49447368Y-65050828D02*
X50018796Y-65050828D01*
X49661653Y-64550828D02*
X49661653Y-65836542D01*
X49661653Y-65836542D02*
X49733082Y-65979400D01*
X49733082Y-65979400D02*
X49875939Y-66050828D01*
X49875939Y-66050828D02*
X50018796Y-66050828D01*
X50804511Y-64550828D02*
X50947368Y-64550828D01*
X50947368Y-64550828D02*
X51090225Y-64622257D01*
X51090225Y-64622257D02*
X51161654Y-64693685D01*
X51161654Y-64693685D02*
X51233082Y-64836542D01*
X51233082Y-64836542D02*
X51304511Y-65122257D01*
X51304511Y-65122257D02*
X51304511Y-65479400D01*
X51304511Y-65479400D02*
X51233082Y-65765114D01*
X51233082Y-65765114D02*
X51161654Y-65907971D01*
X51161654Y-65907971D02*
X51090225Y-65979400D01*
X51090225Y-65979400D02*
X50947368Y-66050828D01*
X50947368Y-66050828D02*
X50804511Y-66050828D01*
X50804511Y-66050828D02*
X50661654Y-65979400D01*
X50661654Y-65979400D02*
X50590225Y-65907971D01*
X50590225Y-65907971D02*
X50518796Y-65765114D01*
X50518796Y-65765114D02*
X50447368Y-65479400D01*
X50447368Y-65479400D02*
X50447368Y-65122257D01*
X50447368Y-65122257D02*
X50518796Y-64836542D01*
X50518796Y-64836542D02*
X50590225Y-64693685D01*
X50590225Y-64693685D02*
X50661654Y-64622257D01*
X50661654Y-64622257D02*
X50804511Y-64550828D01*
X14100828Y-26495489D02*
X13100828Y-26495489D01*
X12600828Y-26495489D02*
X12672257Y-26566917D01*
X12672257Y-26566917D02*
X12743685Y-26495489D01*
X12743685Y-26495489D02*
X12672257Y-26424060D01*
X12672257Y-26424060D02*
X12600828Y-26495489D01*
X12600828Y-26495489D02*
X12743685Y-26495489D01*
X13100828Y-25781203D02*
X14100828Y-25781203D01*
X13243685Y-25781203D02*
X13172257Y-25709774D01*
X13172257Y-25709774D02*
X13100828Y-25566917D01*
X13100828Y-25566917D02*
X13100828Y-25352631D01*
X13100828Y-25352631D02*
X13172257Y-25209774D01*
X13172257Y-25209774D02*
X13315114Y-25138346D01*
X13315114Y-25138346D02*
X14100828Y-25138346D01*
X14100828Y-23638345D02*
X14100828Y-24495488D01*
X14100828Y-24066917D02*
X12600828Y-24066917D01*
X12600828Y-24066917D02*
X12815114Y-24209774D01*
X12815114Y-24209774D02*
X12957971Y-24352631D01*
X12957971Y-24352631D02*
X13029400Y-24495488D01*
X11550828Y-26495489D02*
X10550828Y-26495489D01*
X10050828Y-26495489D02*
X10122257Y-26566917D01*
X10122257Y-26566917D02*
X10193685Y-26495489D01*
X10193685Y-26495489D02*
X10122257Y-26424060D01*
X10122257Y-26424060D02*
X10050828Y-26495489D01*
X10050828Y-26495489D02*
X10193685Y-26495489D01*
X10550828Y-25781203D02*
X11550828Y-25781203D01*
X10693685Y-25781203D02*
X10622257Y-25709774D01*
X10622257Y-25709774D02*
X10550828Y-25566917D01*
X10550828Y-25566917D02*
X10550828Y-25352631D01*
X10550828Y-25352631D02*
X10622257Y-25209774D01*
X10622257Y-25209774D02*
X10765114Y-25138346D01*
X10765114Y-25138346D02*
X11550828Y-25138346D01*
X10193685Y-24495488D02*
X10122257Y-24424060D01*
X10122257Y-24424060D02*
X10050828Y-24281203D01*
X10050828Y-24281203D02*
X10050828Y-23924060D01*
X10050828Y-23924060D02*
X10122257Y-23781203D01*
X10122257Y-23781203D02*
X10193685Y-23709774D01*
X10193685Y-23709774D02*
X10336542Y-23638345D01*
X10336542Y-23638345D02*
X10479400Y-23638345D01*
X10479400Y-23638345D02*
X10693685Y-23709774D01*
X10693685Y-23709774D02*
X11550828Y-24566917D01*
X11550828Y-24566917D02*
X11550828Y-23638345D01*
X7850828Y-27602632D02*
X9065114Y-27602632D01*
X9065114Y-27602632D02*
X9207971Y-27674060D01*
X9207971Y-27674060D02*
X9279400Y-27745489D01*
X9279400Y-27745489D02*
X9350828Y-27888346D01*
X9350828Y-27888346D02*
X9350828Y-28102632D01*
X9350828Y-28102632D02*
X9279400Y-28245489D01*
X8779400Y-27602632D02*
X8850828Y-27745489D01*
X8850828Y-27745489D02*
X8850828Y-28031203D01*
X8850828Y-28031203D02*
X8779400Y-28174060D01*
X8779400Y-28174060D02*
X8707971Y-28245489D01*
X8707971Y-28245489D02*
X8565114Y-28316917D01*
X8565114Y-28316917D02*
X8136542Y-28316917D01*
X8136542Y-28316917D02*
X7993685Y-28245489D01*
X7993685Y-28245489D02*
X7922257Y-28174060D01*
X7922257Y-28174060D02*
X7850828Y-28031203D01*
X7850828Y-28031203D02*
X7850828Y-27745489D01*
X7850828Y-27745489D02*
X7922257Y-27602632D01*
X7850828Y-26888346D02*
X8850828Y-26888346D01*
X7993685Y-26888346D02*
X7922257Y-26816917D01*
X7922257Y-26816917D02*
X7850828Y-26674060D01*
X7850828Y-26674060D02*
X7850828Y-26459774D01*
X7850828Y-26459774D02*
X7922257Y-26316917D01*
X7922257Y-26316917D02*
X8065114Y-26245489D01*
X8065114Y-26245489D02*
X8850828Y-26245489D01*
X8850828Y-24888346D02*
X7350828Y-24888346D01*
X8779400Y-24888346D02*
X8850828Y-25031203D01*
X8850828Y-25031203D02*
X8850828Y-25316917D01*
X8850828Y-25316917D02*
X8779400Y-25459774D01*
X8779400Y-25459774D02*
X8707971Y-25531203D01*
X8707971Y-25531203D02*
X8565114Y-25602631D01*
X8565114Y-25602631D02*
X8136542Y-25602631D01*
X8136542Y-25602631D02*
X7993685Y-25531203D01*
X7993685Y-25531203D02*
X7922257Y-25459774D01*
X7922257Y-25459774D02*
X7850828Y-25316917D01*
X7850828Y-25316917D02*
X7850828Y-25031203D01*
X7850828Y-25031203D02*
X7922257Y-24888346D01*
X8850828Y-23531203D02*
X8065114Y-23531203D01*
X8065114Y-23531203D02*
X7922257Y-23602631D01*
X7922257Y-23602631D02*
X7850828Y-23745488D01*
X7850828Y-23745488D02*
X7850828Y-24031203D01*
X7850828Y-24031203D02*
X7922257Y-24174060D01*
X8779400Y-23531203D02*
X8850828Y-23674060D01*
X8850828Y-23674060D02*
X8850828Y-24031203D01*
X8850828Y-24031203D02*
X8779400Y-24174060D01*
X8779400Y-24174060D02*
X8636542Y-24245488D01*
X8636542Y-24245488D02*
X8493685Y-24245488D01*
X8493685Y-24245488D02*
X8350828Y-24174060D01*
X8350828Y-24174060D02*
X8279400Y-24031203D01*
X8279400Y-24031203D02*
X8279400Y-23674060D01*
X8279400Y-23674060D02*
X8207971Y-23531203D01*
X5929400Y-27295489D02*
X5929400Y-26152632D01*
X6500828Y-26724060D02*
X5357971Y-26724060D01*
X5000828Y-24724060D02*
X5000828Y-25438346D01*
X5000828Y-25438346D02*
X5715114Y-25509774D01*
X5715114Y-25509774D02*
X5643685Y-25438346D01*
X5643685Y-25438346D02*
X5572257Y-25295489D01*
X5572257Y-25295489D02*
X5572257Y-24938346D01*
X5572257Y-24938346D02*
X5643685Y-24795489D01*
X5643685Y-24795489D02*
X5715114Y-24724060D01*
X5715114Y-24724060D02*
X5857971Y-24652631D01*
X5857971Y-24652631D02*
X6215114Y-24652631D01*
X6215114Y-24652631D02*
X6357971Y-24724060D01*
X6357971Y-24724060D02*
X6429400Y-24795489D01*
X6429400Y-24795489D02*
X6500828Y-24938346D01*
X6500828Y-24938346D02*
X6500828Y-25295489D01*
X6500828Y-25295489D02*
X6429400Y-25438346D01*
X6429400Y-25438346D02*
X6357971Y-25509774D01*
X5500828Y-24152632D02*
X6500828Y-23795489D01*
X6500828Y-23795489D02*
X5500828Y-23438346D01*
X8861653Y-47850828D02*
X9790225Y-47850828D01*
X9790225Y-47850828D02*
X9290225Y-48422257D01*
X9290225Y-48422257D02*
X9504510Y-48422257D01*
X9504510Y-48422257D02*
X9647368Y-48493685D01*
X9647368Y-48493685D02*
X9718796Y-48565114D01*
X9718796Y-48565114D02*
X9790225Y-48707971D01*
X9790225Y-48707971D02*
X9790225Y-49065114D01*
X9790225Y-49065114D02*
X9718796Y-49207971D01*
X9718796Y-49207971D02*
X9647368Y-49279400D01*
X9647368Y-49279400D02*
X9504510Y-49350828D01*
X9504510Y-49350828D02*
X9075939Y-49350828D01*
X9075939Y-49350828D02*
X8933082Y-49279400D01*
X8933082Y-49279400D02*
X8861653Y-49207971D01*
X10290224Y-48350828D02*
X10647367Y-49350828D01*
X10647367Y-49350828D02*
X11004510Y-48350828D01*
X11433081Y-47850828D02*
X12361653Y-47850828D01*
X12361653Y-47850828D02*
X11861653Y-48422257D01*
X11861653Y-48422257D02*
X12075938Y-48422257D01*
X12075938Y-48422257D02*
X12218796Y-48493685D01*
X12218796Y-48493685D02*
X12290224Y-48565114D01*
X12290224Y-48565114D02*
X12361653Y-48707971D01*
X12361653Y-48707971D02*
X12361653Y-49065114D01*
X12361653Y-49065114D02*
X12290224Y-49207971D01*
X12290224Y-49207971D02*
X12218796Y-49279400D01*
X12218796Y-49279400D02*
X12075938Y-49350828D01*
X12075938Y-49350828D02*
X11647367Y-49350828D01*
X11647367Y-49350828D02*
X11504510Y-49279400D01*
X11504510Y-49279400D02*
X11433081Y-49207971D01*
X9697368Y-45300828D02*
X9697368Y-46515114D01*
X9697368Y-46515114D02*
X9625939Y-46657971D01*
X9625939Y-46657971D02*
X9554510Y-46729400D01*
X9554510Y-46729400D02*
X9411653Y-46800828D01*
X9411653Y-46800828D02*
X9197368Y-46800828D01*
X9197368Y-46800828D02*
X9054510Y-46729400D01*
X9697368Y-46229400D02*
X9554510Y-46300828D01*
X9554510Y-46300828D02*
X9268796Y-46300828D01*
X9268796Y-46300828D02*
X9125939Y-46229400D01*
X9125939Y-46229400D02*
X9054510Y-46157971D01*
X9054510Y-46157971D02*
X8983082Y-46015114D01*
X8983082Y-46015114D02*
X8983082Y-45586542D01*
X8983082Y-45586542D02*
X9054510Y-45443685D01*
X9054510Y-45443685D02*
X9125939Y-45372257D01*
X9125939Y-45372257D02*
X9268796Y-45300828D01*
X9268796Y-45300828D02*
X9554510Y-45300828D01*
X9554510Y-45300828D02*
X9697368Y-45372257D01*
X10411653Y-45300828D02*
X10411653Y-46300828D01*
X10411653Y-45443685D02*
X10483082Y-45372257D01*
X10483082Y-45372257D02*
X10625939Y-45300828D01*
X10625939Y-45300828D02*
X10840225Y-45300828D01*
X10840225Y-45300828D02*
X10983082Y-45372257D01*
X10983082Y-45372257D02*
X11054511Y-45515114D01*
X11054511Y-45515114D02*
X11054511Y-46300828D01*
X12411654Y-46300828D02*
X12411654Y-44800828D01*
X12411654Y-46229400D02*
X12268796Y-46300828D01*
X12268796Y-46300828D02*
X11983082Y-46300828D01*
X11983082Y-46300828D02*
X11840225Y-46229400D01*
X11840225Y-46229400D02*
X11768796Y-46157971D01*
X11768796Y-46157971D02*
X11697368Y-46015114D01*
X11697368Y-46015114D02*
X11697368Y-45586542D01*
X11697368Y-45586542D02*
X11768796Y-45443685D01*
X11768796Y-45443685D02*
X11840225Y-45372257D01*
X11840225Y-45372257D02*
X11983082Y-45300828D01*
X11983082Y-45300828D02*
X12268796Y-45300828D01*
X12268796Y-45300828D02*
X12411654Y-45372257D01*
X9847368Y-43879400D02*
X9704510Y-43950828D01*
X9704510Y-43950828D02*
X9418796Y-43950828D01*
X9418796Y-43950828D02*
X9275939Y-43879400D01*
X9275939Y-43879400D02*
X9204510Y-43807971D01*
X9204510Y-43807971D02*
X9133082Y-43665114D01*
X9133082Y-43665114D02*
X9133082Y-43236542D01*
X9133082Y-43236542D02*
X9204510Y-43093685D01*
X9204510Y-43093685D02*
X9275939Y-43022257D01*
X9275939Y-43022257D02*
X9418796Y-42950828D01*
X9418796Y-42950828D02*
X9704510Y-42950828D01*
X9704510Y-42950828D02*
X9847368Y-43022257D01*
X10704510Y-43950828D02*
X10561653Y-43879400D01*
X10561653Y-43879400D02*
X10490224Y-43736542D01*
X10490224Y-43736542D02*
X10490224Y-42450828D01*
X11275938Y-43950828D02*
X11275938Y-42450828D01*
X11418796Y-43379400D02*
X11847367Y-43950828D01*
X11847367Y-42950828D02*
X11275938Y-43522257D01*
X9847368Y-41600828D02*
X9847368Y-40100828D01*
X9847368Y-41529400D02*
X9704510Y-41600828D01*
X9704510Y-41600828D02*
X9418796Y-41600828D01*
X9418796Y-41600828D02*
X9275939Y-41529400D01*
X9275939Y-41529400D02*
X9204510Y-41457971D01*
X9204510Y-41457971D02*
X9133082Y-41315114D01*
X9133082Y-41315114D02*
X9133082Y-40886542D01*
X9133082Y-40886542D02*
X9204510Y-40743685D01*
X9204510Y-40743685D02*
X9275939Y-40672257D01*
X9275939Y-40672257D02*
X9418796Y-40600828D01*
X9418796Y-40600828D02*
X9704510Y-40600828D01*
X9704510Y-40600828D02*
X9847368Y-40672257D01*
X11204511Y-41600828D02*
X11204511Y-40815114D01*
X11204511Y-40815114D02*
X11133082Y-40672257D01*
X11133082Y-40672257D02*
X10990225Y-40600828D01*
X10990225Y-40600828D02*
X10704511Y-40600828D01*
X10704511Y-40600828D02*
X10561653Y-40672257D01*
X11204511Y-41529400D02*
X11061653Y-41600828D01*
X11061653Y-41600828D02*
X10704511Y-41600828D01*
X10704511Y-41600828D02*
X10561653Y-41529400D01*
X10561653Y-41529400D02*
X10490225Y-41386542D01*
X10490225Y-41386542D02*
X10490225Y-41243685D01*
X10490225Y-41243685D02*
X10561653Y-41100828D01*
X10561653Y-41100828D02*
X10704511Y-41029400D01*
X10704511Y-41029400D02*
X11061653Y-41029400D01*
X11061653Y-41029400D02*
X11204511Y-40957971D01*
X11704511Y-40600828D02*
X12275939Y-40600828D01*
X11918796Y-40100828D02*
X11918796Y-41386542D01*
X11918796Y-41386542D02*
X11990225Y-41529400D01*
X11990225Y-41529400D02*
X12133082Y-41600828D01*
X12133082Y-41600828D02*
X12275939Y-41600828D01*
X10354510Y-38457971D02*
X10425939Y-38529400D01*
X10425939Y-38529400D02*
X10354510Y-38600828D01*
X10354510Y-38600828D02*
X10283082Y-38529400D01*
X10283082Y-38529400D02*
X10354510Y-38457971D01*
X10354510Y-38457971D02*
X10354510Y-38600828D01*
D11*
G36*
X3261269Y-78143112D02*
G01*
X3271971Y-78143384D01*
X3282531Y-78143837D01*
X3292950Y-78144471D01*
X3303227Y-78145287D01*
X3313363Y-78146284D01*
X3323356Y-78147462D01*
X3333208Y-78148822D01*
X3352487Y-78152085D01*
X3371199Y-78156073D01*
X3389345Y-78160786D01*
X3406924Y-78166224D01*
X3423936Y-78172388D01*
X3440381Y-78179276D01*
X3456260Y-78186889D01*
X3471572Y-78195228D01*
X3486317Y-78204292D01*
X3500496Y-78214081D01*
X3514107Y-78224594D01*
X3527152Y-78235833D01*
X3533433Y-78241699D01*
X3545398Y-78253815D01*
X3556564Y-78266447D01*
X3566933Y-78279594D01*
X3576504Y-78293257D01*
X3585278Y-78307434D01*
X3593254Y-78322127D01*
X3600432Y-78337335D01*
X3606813Y-78353058D01*
X3612396Y-78369296D01*
X3617182Y-78386050D01*
X3621170Y-78403319D01*
X3624361Y-78421103D01*
X3626753Y-78439402D01*
X3628349Y-78458216D01*
X3629146Y-78477546D01*
X3629246Y-78487404D01*
X3629135Y-78498370D01*
X3628804Y-78509196D01*
X3628252Y-78519880D01*
X3627479Y-78530425D01*
X3626485Y-78540828D01*
X3625270Y-78551091D01*
X3623835Y-78561213D01*
X3622178Y-78571194D01*
X3620301Y-78581035D01*
X3618202Y-78590734D01*
X3613343Y-78609712D01*
X3607601Y-78628127D01*
X3600975Y-78645978D01*
X3593465Y-78663267D01*
X3585072Y-78679993D01*
X3575796Y-78696156D01*
X3565636Y-78711756D01*
X3554592Y-78726793D01*
X3542666Y-78741267D01*
X3529855Y-78755179D01*
X3516161Y-78768527D01*
X3501750Y-78781186D01*
X3486726Y-78793028D01*
X3471090Y-78804053D01*
X3454841Y-78814262D01*
X3437980Y-78823653D01*
X3420506Y-78832229D01*
X3411539Y-78836210D01*
X3402420Y-78839987D01*
X3393147Y-78843560D01*
X3383721Y-78846929D01*
X3374142Y-78850094D01*
X3364409Y-78853054D01*
X3354524Y-78855810D01*
X3344485Y-78858363D01*
X3334294Y-78860711D01*
X3323949Y-78862854D01*
X3313451Y-78864794D01*
X3302800Y-78866530D01*
X3291996Y-78868061D01*
X3281039Y-78869388D01*
X3269928Y-78870511D01*
X3258665Y-78871430D01*
X3247248Y-78872144D01*
X3235678Y-78872655D01*
X3223955Y-78872961D01*
X3212079Y-78873063D01*
X3200447Y-78872955D01*
X3188966Y-78872633D01*
X3177637Y-78872095D01*
X3166459Y-78871342D01*
X3155433Y-78870374D01*
X3144559Y-78869190D01*
X3133837Y-78867792D01*
X3123266Y-78866178D01*
X3112847Y-78864350D01*
X3102580Y-78862306D01*
X3092464Y-78860047D01*
X3082501Y-78857573D01*
X3072688Y-78854883D01*
X3063028Y-78851979D01*
X3053519Y-78848859D01*
X3044162Y-78845525D01*
X3034957Y-78841975D01*
X3025903Y-78838210D01*
X3008251Y-78830034D01*
X2991205Y-78820998D01*
X2974767Y-78811102D01*
X2958935Y-78800344D01*
X2943710Y-78788727D01*
X2929091Y-78776248D01*
X2915080Y-78762909D01*
X2901830Y-78748839D01*
X2889434Y-78734165D01*
X2877894Y-78718889D01*
X2867208Y-78703009D01*
X2857377Y-78686526D01*
X2848401Y-78669441D01*
X2840280Y-78651752D01*
X2836540Y-78642682D01*
X2833014Y-78633461D01*
X2829702Y-78624089D01*
X2826603Y-78614566D01*
X2823718Y-78604893D01*
X2821046Y-78595069D01*
X2818589Y-78585094D01*
X2816345Y-78574968D01*
X2814314Y-78564692D01*
X2812498Y-78554265D01*
X2810895Y-78543687D01*
X2809506Y-78532959D01*
X2808330Y-78522079D01*
X2807369Y-78511049D01*
X2806621Y-78499869D01*
X2806086Y-78488537D01*
X2805766Y-78477055D01*
X2805659Y-78465422D01*
X2805718Y-78456237D01*
X2806029Y-78442477D01*
X2806605Y-78428739D01*
X2807448Y-78415023D01*
X2808557Y-78401328D01*
X2809933Y-78387654D01*
X2811574Y-78374002D01*
X2813482Y-78360372D01*
X2815656Y-78346763D01*
X2818096Y-78333175D01*
X2820802Y-78319609D01*
X2821781Y-78315089D01*
X2824920Y-78301508D01*
X2828364Y-78287897D01*
X2832113Y-78274257D01*
X2836166Y-78260586D01*
X2840525Y-78246885D01*
X2845188Y-78233155D01*
X2850156Y-78219394D01*
X2853637Y-78210203D01*
X2857254Y-78200999D01*
X2861007Y-78191782D01*
X2864895Y-78182551D01*
X2868918Y-78173307D01*
X3005205Y-78173307D01*
X3002634Y-78178166D01*
X2997630Y-78187822D01*
X2992814Y-78197393D01*
X2988185Y-78206880D01*
X2983743Y-78216283D01*
X2979488Y-78225603D01*
X2975420Y-78234838D01*
X2971538Y-78243990D01*
X2967844Y-78253057D01*
X2962654Y-78266501D01*
X2957884Y-78279756D01*
X2953535Y-78292822D01*
X2949606Y-78305699D01*
X2946099Y-78318387D01*
X2943969Y-78326778D01*
X2941032Y-78339456D01*
X2938405Y-78352246D01*
X2936087Y-78365147D01*
X2934077Y-78378160D01*
X2932377Y-78391285D01*
X2930986Y-78404521D01*
X2929904Y-78417869D01*
X2929131Y-78431329D01*
X2928668Y-78444900D01*
X2928513Y-78458583D01*
X2928773Y-78473610D01*
X2929551Y-78488220D01*
X2930849Y-78502415D01*
X2932665Y-78516194D01*
X2935001Y-78529556D01*
X2937855Y-78542503D01*
X2941229Y-78555034D01*
X2945122Y-78567149D01*
X2949533Y-78578848D01*
X2954464Y-78590131D01*
X2959914Y-78600997D01*
X2965882Y-78611448D01*
X2972370Y-78621483D01*
X2979377Y-78631102D01*
X2986902Y-78640305D01*
X2994947Y-78649092D01*
X3003487Y-78657403D01*
X3012437Y-78665239D01*
X3021798Y-78672600D01*
X3031568Y-78679485D01*
X3041749Y-78685896D01*
X3052340Y-78691831D01*
X3063342Y-78697291D01*
X3074754Y-78702276D01*
X3086575Y-78706786D01*
X3098808Y-78710821D01*
X3111450Y-78714381D01*
X3124503Y-78717465D01*
X3137966Y-78720074D01*
X3151839Y-78722209D01*
X3166122Y-78723868D01*
X3180816Y-78725052D01*
X3180816Y-78719434D01*
X3293900Y-78719434D01*
X3306042Y-78718307D01*
X3317859Y-78716755D01*
X3329352Y-78714780D01*
X3340520Y-78712382D01*
X3351364Y-78709560D01*
X3361884Y-78706314D01*
X3372079Y-78702644D01*
X3381950Y-78698551D01*
X3391496Y-78694035D01*
X3400718Y-78689095D01*
X3409616Y-78683731D01*
X3418189Y-78677943D01*
X3426438Y-78671732D01*
X3434363Y-78665098D01*
X3441963Y-78658040D01*
X3449239Y-78650558D01*
X3456160Y-78642673D01*
X3462634Y-78634468D01*
X3468662Y-78625943D01*
X3474243Y-78617096D01*
X3479378Y-78607930D01*
X3484066Y-78598442D01*
X3488308Y-78588635D01*
X3492103Y-78578506D01*
X3495452Y-78568057D01*
X3498355Y-78557288D01*
X3500810Y-78546197D01*
X3502820Y-78534787D01*
X3504382Y-78523055D01*
X3505499Y-78511004D01*
X3506168Y-78498631D01*
X3506392Y-78485938D01*
X3506159Y-78474843D01*
X3505461Y-78464029D01*
X3504297Y-78453495D01*
X3502667Y-78443241D01*
X3500572Y-78433268D01*
X3498011Y-78423576D01*
X3494985Y-78414164D01*
X3491493Y-78405033D01*
X3485382Y-78391861D01*
X3478224Y-78379321D01*
X3470018Y-78367412D01*
X3460764Y-78356134D01*
X3454013Y-78348967D01*
X3446796Y-78342079D01*
X3439250Y-78335503D01*
X3431447Y-78329329D01*
X3423389Y-78323558D01*
X3415075Y-78318189D01*
X3406506Y-78313223D01*
X3397681Y-78308660D01*
X3388600Y-78304499D01*
X3379263Y-78300741D01*
X3369671Y-78297385D01*
X3359823Y-78294433D01*
X3349719Y-78291882D01*
X3339360Y-78289735D01*
X3328745Y-78287990D01*
X3317874Y-78286647D01*
X3306748Y-78285708D01*
X3295366Y-78285170D01*
X3293900Y-78719434D01*
X3180816Y-78719434D01*
X3180816Y-78143021D01*
X3250425Y-78143021D01*
X3261269Y-78143112D01*
G37*
G36*
X3910858Y-77989637D02*
G01*
X3910858Y-77847487D01*
X2826420Y-77847487D01*
X2826420Y-77989637D01*
X3910858Y-77989637D01*
G37*
G36*
X3261269Y-76868164D02*
G01*
X3271971Y-76868436D01*
X3282531Y-76868889D01*
X3292950Y-76869524D01*
X3303227Y-76870339D01*
X3313363Y-76871336D01*
X3323356Y-76872515D01*
X3333208Y-76873874D01*
X3352487Y-76877137D01*
X3371199Y-76881125D01*
X3389345Y-76885838D01*
X3406924Y-76891277D01*
X3423936Y-76897440D01*
X3440381Y-76904328D01*
X3456260Y-76911942D01*
X3471572Y-76920280D01*
X3486317Y-76929344D01*
X3500496Y-76939133D01*
X3514107Y-76949647D01*
X3527152Y-76960886D01*
X3533433Y-76966751D01*
X3545398Y-76978868D01*
X3556564Y-76991500D01*
X3566933Y-77004647D01*
X3576504Y-77018309D01*
X3585278Y-77032487D01*
X3593254Y-77047179D01*
X3600432Y-77062387D01*
X3606813Y-77078110D01*
X3612396Y-77094349D01*
X3617182Y-77111102D01*
X3621170Y-77128371D01*
X3624361Y-77146155D01*
X3626753Y-77164454D01*
X3628349Y-77183268D01*
X3629146Y-77202598D01*
X3629246Y-77212456D01*
X3629135Y-77223422D01*
X3628804Y-77234248D01*
X3628252Y-77244933D01*
X3627479Y-77255477D01*
X3626485Y-77265880D01*
X3625270Y-77276143D01*
X3623835Y-77286265D01*
X3622178Y-77296246D01*
X3620301Y-77306087D01*
X3618202Y-77315787D01*
X3613343Y-77334764D01*
X3607601Y-77353179D01*
X3600975Y-77371031D01*
X3593465Y-77388319D01*
X3585072Y-77405045D01*
X3575796Y-77421208D01*
X3565636Y-77436808D01*
X3554592Y-77451845D01*
X3542666Y-77466320D01*
X3529855Y-77480231D01*
X3516161Y-77493579D01*
X3501750Y-77506238D01*
X3486726Y-77518080D01*
X3471090Y-77529105D01*
X3454841Y-77539314D01*
X3437980Y-77548706D01*
X3420506Y-77557281D01*
X3411539Y-77561262D01*
X3402420Y-77565040D01*
X3393147Y-77568613D01*
X3383721Y-77571981D01*
X3374142Y-77575146D01*
X3364409Y-77578107D01*
X3354524Y-77580863D01*
X3344485Y-77583415D01*
X3334294Y-77585763D01*
X3323949Y-77587907D01*
X3313451Y-77589846D01*
X3302800Y-77591582D01*
X3291996Y-77593113D01*
X3281039Y-77594440D01*
X3269928Y-77595563D01*
X3258665Y-77596482D01*
X3247248Y-77597197D01*
X3235678Y-77597707D01*
X3223955Y-77598013D01*
X3212079Y-77598115D01*
X3200447Y-77598008D01*
X3188966Y-77597685D01*
X3177637Y-77597147D01*
X3166459Y-77596394D01*
X3155433Y-77595426D01*
X3144559Y-77594243D01*
X3133837Y-77592844D01*
X3123266Y-77591231D01*
X3112847Y-77589402D01*
X3102580Y-77587358D01*
X3092464Y-77585099D01*
X3082501Y-77582625D01*
X3072688Y-77579936D01*
X3063028Y-77577031D01*
X3053519Y-77573912D01*
X3044162Y-77570577D01*
X3034957Y-77567027D01*
X3025903Y-77563262D01*
X3008251Y-77555087D01*
X2991205Y-77546051D01*
X2974767Y-77536154D01*
X2958935Y-77525397D01*
X2943710Y-77513779D01*
X2929091Y-77501301D01*
X2915080Y-77487962D01*
X2901830Y-77473891D01*
X2889434Y-77459217D01*
X2877894Y-77443941D01*
X2867208Y-77428061D01*
X2857377Y-77411579D01*
X2848401Y-77394493D01*
X2840280Y-77376805D01*
X2836540Y-77367734D01*
X2833014Y-77358513D01*
X2829702Y-77349141D01*
X2826603Y-77339619D01*
X2823718Y-77329945D01*
X2821046Y-77320121D01*
X2818589Y-77310146D01*
X2816345Y-77300021D01*
X2814314Y-77289744D01*
X2812498Y-77279317D01*
X2810895Y-77268740D01*
X2809506Y-77258011D01*
X2808330Y-77247132D01*
X2807369Y-77236102D01*
X2806621Y-77224921D01*
X2806086Y-77213589D01*
X2805766Y-77202107D01*
X2805659Y-77190474D01*
X2805718Y-77181289D01*
X2806029Y-77167530D01*
X2806605Y-77153792D01*
X2807448Y-77140075D01*
X2808557Y-77126380D01*
X2809933Y-77112707D01*
X2811574Y-77099055D01*
X2813482Y-77085424D01*
X2815656Y-77071815D01*
X2818096Y-77058227D01*
X2820802Y-77044661D01*
X2821781Y-77040141D01*
X2824920Y-77026560D01*
X2828364Y-77012950D01*
X2832113Y-76999309D01*
X2836166Y-76985638D01*
X2840525Y-76971938D01*
X2845188Y-76958207D01*
X2850156Y-76944446D01*
X2853637Y-76935256D01*
X2857254Y-76926052D01*
X2861007Y-76916834D01*
X2864895Y-76907604D01*
X2868918Y-76898360D01*
X3005205Y-76898360D01*
X3002634Y-76903219D01*
X2997630Y-76912874D01*
X2992814Y-76922445D01*
X2988185Y-76931932D01*
X2983743Y-76941336D01*
X2979488Y-76950655D01*
X2975420Y-76959891D01*
X2971538Y-76969042D01*
X2967844Y-76978110D01*
X2962654Y-76991553D01*
X2957884Y-77004808D01*
X2953535Y-77017874D01*
X2949606Y-77030752D01*
X2946099Y-77043440D01*
X2943969Y-77051830D01*
X2941032Y-77064508D01*
X2938405Y-77077298D01*
X2936087Y-77090199D01*
X2934077Y-77103213D01*
X2932377Y-77116337D01*
X2930986Y-77129574D01*
X2929904Y-77142922D01*
X2929131Y-77156381D01*
X2928668Y-77169952D01*
X2928513Y-77183635D01*
X2928773Y-77198662D01*
X2929551Y-77213273D01*
X2930849Y-77227467D01*
X2932665Y-77241246D01*
X2935001Y-77254609D01*
X2937855Y-77267556D01*
X2941229Y-77280086D01*
X2945122Y-77292201D01*
X2949533Y-77303900D01*
X2954464Y-77315183D01*
X2959914Y-77326050D01*
X2965882Y-77336501D01*
X2972370Y-77346536D01*
X2979377Y-77356155D01*
X2986902Y-77365358D01*
X2994947Y-77374145D01*
X3003487Y-77382456D01*
X3012437Y-77390291D01*
X3021798Y-77397652D01*
X3031568Y-77404538D01*
X3041749Y-77410948D01*
X3052340Y-77416883D01*
X3063342Y-77422343D01*
X3074754Y-77427329D01*
X3086575Y-77431838D01*
X3098808Y-77435873D01*
X3111450Y-77439433D01*
X3124503Y-77442517D01*
X3137966Y-77445127D01*
X3151839Y-77447261D01*
X3166122Y-77448920D01*
X3180816Y-77450104D01*
X3180816Y-77444487D01*
X3293900Y-77444487D01*
X3306042Y-77443359D01*
X3317859Y-77441808D01*
X3329352Y-77439833D01*
X3340520Y-77437434D01*
X3351364Y-77434612D01*
X3361884Y-77431366D01*
X3372079Y-77427697D01*
X3381950Y-77423604D01*
X3391496Y-77419087D01*
X3400718Y-77414147D01*
X3409616Y-77408783D01*
X3418189Y-77402996D01*
X3426438Y-77396785D01*
X3434363Y-77390150D01*
X3441963Y-77383092D01*
X3449239Y-77375610D01*
X3456160Y-77367726D01*
X3462634Y-77359521D01*
X3468662Y-77350995D01*
X3474243Y-77342149D01*
X3479378Y-77332982D01*
X3484066Y-77323495D01*
X3488308Y-77313687D01*
X3492103Y-77303558D01*
X3495452Y-77293109D01*
X3498355Y-77282340D01*
X3500810Y-77271250D01*
X3502820Y-77259839D01*
X3504382Y-77248108D01*
X3505499Y-77236056D01*
X3506168Y-77223683D01*
X3506392Y-77210990D01*
X3506159Y-77199896D01*
X3505461Y-77189081D01*
X3504297Y-77178547D01*
X3502667Y-77168294D01*
X3500572Y-77158321D01*
X3498011Y-77148628D01*
X3494985Y-77139216D01*
X3491493Y-77130085D01*
X3485382Y-77116914D01*
X3478224Y-77104374D01*
X3470018Y-77092465D01*
X3460764Y-77081187D01*
X3454013Y-77074019D01*
X3446796Y-77067131D01*
X3439250Y-77060555D01*
X3431447Y-77054381D01*
X3423389Y-77048610D01*
X3415075Y-77043241D01*
X3406506Y-77038275D01*
X3397681Y-77033712D01*
X3388600Y-77029551D01*
X3379263Y-77025793D01*
X3369671Y-77022438D01*
X3359823Y-77019485D01*
X3349719Y-77016935D01*
X3339360Y-77014787D01*
X3328745Y-77013042D01*
X3317874Y-77011700D01*
X3306748Y-77010760D01*
X3295366Y-77010223D01*
X3293900Y-77444487D01*
X3180816Y-77444487D01*
X3180816Y-76868073D01*
X3250425Y-76868073D01*
X3261269Y-76868164D01*
G37*
G36*
X3910858Y-76718841D02*
G01*
X3910858Y-76575471D01*
X3289748Y-76575471D01*
X3611416Y-76209595D01*
X3611416Y-76023970D01*
X3243342Y-76442602D01*
X2826420Y-76008827D01*
X2826420Y-76196161D01*
X3190830Y-76575471D01*
X2826420Y-76575471D01*
X2826420Y-76718841D01*
X3910858Y-76718841D01*
G37*
G36*
X3829769Y-75725505D02*
G01*
X3611416Y-75725505D01*
X3611416Y-75465875D01*
X3498087Y-75465875D01*
X3498087Y-75725505D01*
X3088248Y-75725505D01*
X3077061Y-75725415D01*
X3066400Y-75725143D01*
X3056263Y-75724690D01*
X3042041Y-75723670D01*
X3029000Y-75722242D01*
X3017140Y-75720407D01*
X3006460Y-75718164D01*
X2996961Y-75715513D01*
X2986132Y-75711343D01*
X2977402Y-75706449D01*
X2972233Y-75702302D01*
X2965196Y-75693793D01*
X2960426Y-75685174D01*
X2956419Y-75674945D01*
X2953175Y-75663104D01*
X2951243Y-75653168D01*
X2949740Y-75642325D01*
X2948667Y-75630576D01*
X2948023Y-75617921D01*
X2947808Y-75604361D01*
X2947808Y-75465875D01*
X2826420Y-75465875D01*
X2826420Y-75604361D01*
X2826640Y-75622600D01*
X2827301Y-75640131D01*
X2828403Y-75656954D01*
X2829946Y-75673070D01*
X2831929Y-75688477D01*
X2834354Y-75703176D01*
X2837219Y-75717168D01*
X2840525Y-75730451D01*
X2844271Y-75743027D01*
X2848459Y-75754895D01*
X2853087Y-75766055D01*
X2858156Y-75776506D01*
X2863666Y-75786250D01*
X2869616Y-75795286D01*
X2876008Y-75803614D01*
X2882840Y-75811235D01*
X2890254Y-75818244D01*
X2898391Y-75824802D01*
X2907252Y-75830907D01*
X2916835Y-75836560D01*
X2927142Y-75841760D01*
X2938172Y-75846509D01*
X2949925Y-75850805D01*
X2962402Y-75854649D01*
X2975601Y-75858041D01*
X2989524Y-75860980D01*
X3004170Y-75863467D01*
X3019539Y-75865502D01*
X3035632Y-75867085D01*
X3052447Y-75868216D01*
X3069986Y-75868894D01*
X3088248Y-75869120D01*
X3498087Y-75869120D01*
X3498087Y-75960956D01*
X3611416Y-75960956D01*
X3611416Y-75869120D01*
X3829769Y-75869120D01*
X3829769Y-75725505D01*
G37*
G36*
X3471465Y-74843545D02*
G01*
X3477078Y-74853218D01*
X3482012Y-74862545D01*
X3486266Y-74871526D01*
X3490474Y-74881847D01*
X3493702Y-74891671D01*
X3495645Y-74899476D01*
X3497739Y-74910312D01*
X3499124Y-74920009D01*
X3500132Y-74930084D01*
X3500761Y-74940537D01*
X3501013Y-74951368D01*
X3501018Y-74953210D01*
X3500757Y-74965965D01*
X3499973Y-74978340D01*
X3498666Y-74990335D01*
X3496836Y-75001951D01*
X3494483Y-75013187D01*
X3491607Y-75024044D01*
X3488209Y-75034520D01*
X3484288Y-75044617D01*
X3479844Y-75054335D01*
X3474877Y-75063672D01*
X3469387Y-75072630D01*
X3463374Y-75081208D01*
X3456839Y-75089406D01*
X3449781Y-75097225D01*
X3442200Y-75104664D01*
X3434096Y-75111723D01*
X3425493Y-75118378D01*
X3416415Y-75124603D01*
X3406862Y-75130399D01*
X3396834Y-75135766D01*
X3386330Y-75140703D01*
X3375352Y-75145211D01*
X3363898Y-75149290D01*
X3351969Y-75152939D01*
X3339565Y-75156159D01*
X3326686Y-75158950D01*
X3313332Y-75161311D01*
X3299503Y-75163243D01*
X3285198Y-75164746D01*
X3270419Y-75165819D01*
X3255164Y-75166463D01*
X3239434Y-75166678D01*
X2826420Y-75166678D01*
X2826420Y-75310048D01*
X3611416Y-75310048D01*
X3611416Y-75166678D01*
X3514207Y-75166678D01*
X3522675Y-75161598D01*
X3530949Y-75155793D01*
X3539029Y-75149262D01*
X3546917Y-75142005D01*
X3554611Y-75134023D01*
X3562112Y-75125316D01*
X3569420Y-75115883D01*
X3576535Y-75105724D01*
X3583457Y-75094840D01*
X3590185Y-75083230D01*
X3594563Y-75075087D01*
X3600761Y-75062401D01*
X3606350Y-75049255D01*
X3611329Y-75035650D01*
X3614309Y-75026325D01*
X3617019Y-75016796D01*
X3619458Y-75007062D01*
X3621625Y-74997125D01*
X3623522Y-74986983D01*
X3625148Y-74976637D01*
X3626502Y-74966087D01*
X3627586Y-74955333D01*
X3628399Y-74944374D01*
X3628941Y-74933211D01*
X3629212Y-74921845D01*
X3629246Y-74916085D01*
X3629040Y-74905437D01*
X3628489Y-74895315D01*
X3627780Y-74886775D01*
X3626755Y-74875980D01*
X3625556Y-74865867D01*
X3624232Y-74855941D01*
X3622651Y-74845010D01*
X3471465Y-74843545D01*
G37*
G36*
X3229400Y-73970958D02*
G01*
X3241187Y-73971238D01*
X3252812Y-73971704D01*
X3264275Y-73972357D01*
X3275576Y-73973196D01*
X3286715Y-73974222D01*
X3297693Y-73975435D01*
X3308509Y-73976834D01*
X3319164Y-73978419D01*
X3329656Y-73980191D01*
X3339987Y-73982149D01*
X3350156Y-73984294D01*
X3360164Y-73986626D01*
X3370010Y-73989144D01*
X3379694Y-73991848D01*
X3389216Y-73994740D01*
X3407776Y-74001081D01*
X3425689Y-74008169D01*
X3442954Y-74016003D01*
X3459573Y-74024583D01*
X3475546Y-74033909D01*
X3490871Y-74043981D01*
X3505549Y-74054799D01*
X3519581Y-74066364D01*
X3532861Y-74078586D01*
X3545284Y-74091380D01*
X3556850Y-74104743D01*
X3567559Y-74118678D01*
X3577412Y-74133182D01*
X3586408Y-74148258D01*
X3594547Y-74163903D01*
X3601830Y-74180120D01*
X3608255Y-74196907D01*
X3613824Y-74214264D01*
X3618536Y-74232192D01*
X3622392Y-74250691D01*
X3625390Y-74269760D01*
X3626568Y-74279508D01*
X3627532Y-74289399D01*
X3628282Y-74299433D01*
X3628817Y-74309610D01*
X3629139Y-74319929D01*
X3629246Y-74330390D01*
X3629139Y-74340913D01*
X3628817Y-74351293D01*
X3628282Y-74361531D01*
X3627532Y-74371625D01*
X3626568Y-74381578D01*
X3625390Y-74391387D01*
X3622392Y-74410578D01*
X3618536Y-74429199D01*
X3613824Y-74447249D01*
X3608255Y-74464729D01*
X3601830Y-74481638D01*
X3594547Y-74497976D01*
X3586408Y-74513744D01*
X3577412Y-74528942D01*
X3567559Y-74543568D01*
X3556850Y-74557625D01*
X3545284Y-74571111D01*
X3532861Y-74584026D01*
X3519581Y-74596371D01*
X3512646Y-74602291D01*
X3498291Y-74613568D01*
X3483289Y-74624094D01*
X3467640Y-74633867D01*
X3451345Y-74642889D01*
X3434402Y-74651159D01*
X3416813Y-74658677D01*
X3398577Y-74665443D01*
X3389216Y-74668545D01*
X3379694Y-74671458D01*
X3370010Y-74674183D01*
X3360164Y-74676720D01*
X3350156Y-74679070D01*
X3339987Y-74681231D01*
X3329656Y-74683205D01*
X3319164Y-74684990D01*
X3308509Y-74686588D01*
X3297693Y-74687998D01*
X3286715Y-74689219D01*
X3275576Y-74690253D01*
X3264275Y-74691099D01*
X3252812Y-74691757D01*
X3241187Y-74692227D01*
X3229400Y-74692508D01*
X3217452Y-74692602D01*
X3205579Y-74692508D01*
X3193863Y-74692227D01*
X3182305Y-74691757D01*
X3170905Y-74691099D01*
X3159663Y-74690253D01*
X3148579Y-74689219D01*
X3137652Y-74687998D01*
X3126884Y-74686588D01*
X3116274Y-74684990D01*
X3105821Y-74683205D01*
X3095526Y-74681231D01*
X3085390Y-74679070D01*
X3075411Y-74676720D01*
X3065590Y-74674183D01*
X3055927Y-74671458D01*
X3046421Y-74668545D01*
X3027885Y-74662154D01*
X3009980Y-74655012D01*
X2992706Y-74647118D01*
X2976064Y-74638472D01*
X2960054Y-74629074D01*
X2944675Y-74618925D01*
X2929928Y-74608024D01*
X2915812Y-74596371D01*
X2909035Y-74590284D01*
X2896127Y-74577681D01*
X2884079Y-74564503D01*
X2872891Y-74550751D01*
X2862564Y-74536425D01*
X2853098Y-74521524D01*
X2844492Y-74506049D01*
X2836747Y-74490000D01*
X2829863Y-74473376D01*
X2823839Y-74456178D01*
X2818675Y-74438405D01*
X2814372Y-74420059D01*
X2810930Y-74401137D01*
X2809532Y-74391461D01*
X2808348Y-74381642D01*
X2807380Y-74371679D01*
X2806627Y-74361572D01*
X2806089Y-74351322D01*
X2805767Y-74340928D01*
X2805659Y-74330390D01*
X2928513Y-74330390D01*
X2928814Y-74342619D01*
X2929715Y-74354513D01*
X2931218Y-74366074D01*
X2933322Y-74377300D01*
X2936026Y-74388193D01*
X2939332Y-74398752D01*
X2943239Y-74408976D01*
X2947747Y-74418867D01*
X2952856Y-74428424D01*
X2958566Y-74437647D01*
X2964878Y-74446536D01*
X2971790Y-74455092D01*
X2979303Y-74463313D01*
X2987418Y-74471200D01*
X2996133Y-74478754D01*
X3005450Y-74485973D01*
X3015324Y-74492805D01*
X3025653Y-74499196D01*
X3036436Y-74505147D01*
X3047673Y-74510657D01*
X3059364Y-74515726D01*
X3071510Y-74520354D01*
X3084109Y-74524541D01*
X3097163Y-74528288D01*
X3110671Y-74531594D01*
X3124632Y-74534459D01*
X3139049Y-74536883D01*
X3153919Y-74538867D01*
X3169243Y-74540410D01*
X3185022Y-74541512D01*
X3201254Y-74542173D01*
X3217941Y-74542393D01*
X3234654Y-74542170D01*
X3250906Y-74541500D01*
X3266696Y-74540384D01*
X3282024Y-74538821D01*
X3296890Y-74536812D01*
X3311295Y-74534356D01*
X3325238Y-74531454D01*
X3338719Y-74528105D01*
X3351738Y-74524310D01*
X3364296Y-74520068D01*
X3376392Y-74515379D01*
X3388025Y-74510245D01*
X3399198Y-74504663D01*
X3409908Y-74498635D01*
X3420157Y-74492161D01*
X3429944Y-74485240D01*
X3439201Y-74477938D01*
X3447861Y-74470319D01*
X3455924Y-74462383D01*
X3463390Y-74454130D01*
X3470258Y-74445560D01*
X3476529Y-74436674D01*
X3482203Y-74427471D01*
X3487280Y-74417951D01*
X3491759Y-74408115D01*
X3495641Y-74397962D01*
X3498926Y-74387492D01*
X3501614Y-74376705D01*
X3503704Y-74365601D01*
X3505197Y-74354181D01*
X3506093Y-74342444D01*
X3506392Y-74330390D01*
X3506090Y-74318484D01*
X3505186Y-74306886D01*
X3503678Y-74295594D01*
X3501568Y-74284610D01*
X3498855Y-74273933D01*
X3495538Y-74263563D01*
X3491619Y-74253501D01*
X3487096Y-74243745D01*
X3481971Y-74234297D01*
X3476243Y-74225156D01*
X3469912Y-74216322D01*
X3462978Y-74207796D01*
X3455440Y-74199576D01*
X3447300Y-74191664D01*
X3438557Y-74184059D01*
X3429211Y-74176762D01*
X3419368Y-74169841D01*
X3409072Y-74163366D01*
X3398325Y-74157339D01*
X3387125Y-74151757D01*
X3375473Y-74146622D01*
X3363368Y-74141934D01*
X3350812Y-74137692D01*
X3337803Y-74133897D01*
X3324342Y-74130548D01*
X3310429Y-74127646D01*
X3296063Y-74125190D01*
X3281246Y-74123181D01*
X3265976Y-74121618D01*
X3250253Y-74120502D01*
X3234079Y-74119832D01*
X3217452Y-74119609D01*
X3200854Y-74119832D01*
X3184705Y-74120502D01*
X3169004Y-74121618D01*
X3153751Y-74123181D01*
X3138946Y-74125190D01*
X3124591Y-74127646D01*
X3110683Y-74130548D01*
X3097224Y-74133897D01*
X3084213Y-74137692D01*
X3071651Y-74141934D01*
X3059537Y-74146622D01*
X3047872Y-74151757D01*
X3036654Y-74157339D01*
X3025886Y-74163366D01*
X3015566Y-74169841D01*
X3005694Y-74176762D01*
X2996348Y-74184059D01*
X2987605Y-74191664D01*
X2979464Y-74199576D01*
X2971927Y-74207796D01*
X2964993Y-74216322D01*
X2958662Y-74225156D01*
X2952934Y-74234297D01*
X2947808Y-74243745D01*
X2943286Y-74253501D01*
X2939367Y-74263563D01*
X2936050Y-74273933D01*
X2933337Y-74284610D01*
X2931226Y-74295594D01*
X2929719Y-74306886D01*
X2928815Y-74318484D01*
X2928513Y-74330390D01*
X2805659Y-74330390D01*
X2805767Y-74319929D01*
X2806089Y-74309610D01*
X2806627Y-74299433D01*
X2807380Y-74289399D01*
X2808348Y-74279508D01*
X2809532Y-74269760D01*
X2812544Y-74250691D01*
X2816416Y-74232192D01*
X2821149Y-74214264D01*
X2826743Y-74196907D01*
X2833197Y-74180120D01*
X2840512Y-74163903D01*
X2848688Y-74148258D01*
X2857724Y-74133182D01*
X2867620Y-74118678D01*
X2878377Y-74104743D01*
X2889995Y-74091380D01*
X2902474Y-74078586D01*
X2915812Y-74066364D01*
X2922791Y-74060488D01*
X2937223Y-74049297D01*
X2952286Y-74038852D01*
X2967980Y-74029153D01*
X2984306Y-74020200D01*
X3001264Y-74011993D01*
X3018853Y-74004532D01*
X3037074Y-73997817D01*
X3046421Y-73994740D01*
X3055927Y-73991848D01*
X3065590Y-73989144D01*
X3075411Y-73986626D01*
X3085390Y-73984294D01*
X3095526Y-73982149D01*
X3105821Y-73980191D01*
X3116274Y-73978419D01*
X3126884Y-73976834D01*
X3137652Y-73975435D01*
X3148579Y-73974222D01*
X3159663Y-73973196D01*
X3170905Y-73972357D01*
X3182305Y-73971704D01*
X3193863Y-73971238D01*
X3205579Y-73970958D01*
X3217452Y-73970865D01*
X3229400Y-73970958D01*
G37*
G36*
X3298541Y-73139706D02*
G01*
X2826420Y-73139706D01*
X2826420Y-73281612D01*
X3294389Y-73281612D01*
X3307572Y-73281770D01*
X3320317Y-73282245D01*
X3332622Y-73283037D01*
X3344489Y-73284146D01*
X3355917Y-73285571D01*
X3366906Y-73287313D01*
X3377456Y-73289372D01*
X3387568Y-73291748D01*
X3397240Y-73294440D01*
X3410926Y-73299072D01*
X3423624Y-73304418D01*
X3435335Y-73310476D01*
X3446058Y-73317246D01*
X3452658Y-73322156D01*
X3461781Y-73330119D01*
X3470006Y-73338802D01*
X3477334Y-73348208D01*
X3483765Y-73358334D01*
X3489298Y-73369182D01*
X3493934Y-73380751D01*
X3497673Y-73393042D01*
X3500515Y-73406053D01*
X3502459Y-73419786D01*
X3503506Y-73434240D01*
X3503705Y-73444277D01*
X3503462Y-73456389D01*
X3502732Y-73468179D01*
X3501515Y-73479646D01*
X3499812Y-73490790D01*
X3497623Y-73501612D01*
X3494947Y-73512112D01*
X3491784Y-73522289D01*
X3488135Y-73532144D01*
X3483999Y-73541676D01*
X3479376Y-73550885D01*
X3474267Y-73559773D01*
X3468671Y-73568337D01*
X3462589Y-73576580D01*
X3456020Y-73584499D01*
X3448965Y-73592097D01*
X3441423Y-73599371D01*
X3433482Y-73606263D01*
X3425169Y-73612709D01*
X3416485Y-73618711D01*
X3407428Y-73624269D01*
X3397998Y-73629382D01*
X3388197Y-73634050D01*
X3378024Y-73638274D01*
X3367479Y-73642053D01*
X3356561Y-73645387D01*
X3345272Y-73648277D01*
X3333610Y-73650723D01*
X3321576Y-73652723D01*
X3309170Y-73654279D01*
X3296392Y-73655391D01*
X3283242Y-73656058D01*
X3269720Y-73656280D01*
X2826420Y-73656280D01*
X2826420Y-73799651D01*
X3611416Y-73799651D01*
X3611416Y-73656280D01*
X3510788Y-73656280D01*
X3519652Y-73650264D01*
X3528293Y-73643663D01*
X3536711Y-73636479D01*
X3544906Y-73628711D01*
X3552877Y-73620359D01*
X3560625Y-73611423D01*
X3568150Y-73601904D01*
X3575451Y-73591800D01*
X3582530Y-73581112D01*
X3589385Y-73569841D01*
X3593831Y-73562002D01*
X3600160Y-73549893D01*
X3605866Y-73537470D01*
X3610950Y-73524734D01*
X3615412Y-73511684D01*
X3619251Y-73498321D01*
X3622467Y-73484645D01*
X3625061Y-73470655D01*
X3627032Y-73456352D01*
X3628381Y-73441735D01*
X3628935Y-73431817D01*
X3629211Y-73421759D01*
X3629246Y-73416678D01*
X3628917Y-73399841D01*
X3627929Y-73383526D01*
X3626283Y-73367731D01*
X3623979Y-73352457D01*
X3621017Y-73337704D01*
X3617396Y-73323472D01*
X3613117Y-73309761D01*
X3608180Y-73296571D01*
X3602584Y-73283902D01*
X3596330Y-73271754D01*
X3589418Y-73260127D01*
X3581847Y-73249020D01*
X3573619Y-73238435D01*
X3564731Y-73228370D01*
X3555186Y-73218827D01*
X3544982Y-73209804D01*
X3534145Y-73201316D01*
X3522699Y-73193375D01*
X3510644Y-73185982D01*
X3497981Y-73179136D01*
X3484708Y-73172839D01*
X3470828Y-73167088D01*
X3456338Y-73161886D01*
X3441240Y-73157231D01*
X3425533Y-73153124D01*
X3409217Y-73149564D01*
X3392293Y-73146552D01*
X3374760Y-73144088D01*
X3356618Y-73142171D01*
X3337868Y-73140802D01*
X3318509Y-73139980D01*
X3308601Y-73139775D01*
X3298541Y-73139706D01*
G37*
G36*
X3611416Y-72894731D02*
G01*
X3611416Y-72752581D01*
X2826420Y-72752581D01*
X2826420Y-72894731D01*
X3611416Y-72894731D01*
G37*
G36*
X3910858Y-72894731D02*
G01*
X3910858Y-72752581D01*
X3734515Y-72752581D01*
X3734515Y-72894731D01*
X3910858Y-72894731D01*
G37*
G36*
X3910858Y-72452407D02*
G01*
X3910858Y-72309036D01*
X3289748Y-72309036D01*
X3611416Y-71943161D01*
X3611416Y-71757536D01*
X3243342Y-72176168D01*
X2826420Y-71742393D01*
X2826420Y-71929727D01*
X3190830Y-72309036D01*
X2826420Y-72309036D01*
X2826420Y-72452407D01*
X3910858Y-72452407D01*
G37*
D10*
X43266917Y-87629400D02*
X43124060Y-87700828D01*
X43124060Y-87700828D02*
X42838346Y-87700828D01*
X42838346Y-87700828D02*
X42695489Y-87629400D01*
X42695489Y-87629400D02*
X42624060Y-87486542D01*
X42624060Y-87486542D02*
X42624060Y-87415114D01*
X42624060Y-87415114D02*
X42695489Y-87272257D01*
X42695489Y-87272257D02*
X42838346Y-87200828D01*
X42838346Y-87200828D02*
X43052632Y-87200828D01*
X43052632Y-87200828D02*
X43195489Y-87129400D01*
X43195489Y-87129400D02*
X43266917Y-86986542D01*
X43266917Y-86986542D02*
X43266917Y-86915114D01*
X43266917Y-86915114D02*
X43195489Y-86772257D01*
X43195489Y-86772257D02*
X43052632Y-86700828D01*
X43052632Y-86700828D02*
X42838346Y-86700828D01*
X42838346Y-86700828D02*
X42695489Y-86772257D01*
X41338346Y-87629400D02*
X41481203Y-87700828D01*
X41481203Y-87700828D02*
X41766917Y-87700828D01*
X41766917Y-87700828D02*
X41909774Y-87629400D01*
X41909774Y-87629400D02*
X41981203Y-87557971D01*
X41981203Y-87557971D02*
X42052631Y-87415114D01*
X42052631Y-87415114D02*
X42052631Y-86986542D01*
X42052631Y-86986542D02*
X41981203Y-86843685D01*
X41981203Y-86843685D02*
X41909774Y-86772257D01*
X41909774Y-86772257D02*
X41766917Y-86700828D01*
X41766917Y-86700828D02*
X41481203Y-86700828D01*
X41481203Y-86700828D02*
X41338346Y-86772257D01*
X40052632Y-87700828D02*
X40052632Y-86915114D01*
X40052632Y-86915114D02*
X40124060Y-86772257D01*
X40124060Y-86772257D02*
X40266917Y-86700828D01*
X40266917Y-86700828D02*
X40552632Y-86700828D01*
X40552632Y-86700828D02*
X40695489Y-86772257D01*
X40052632Y-87629400D02*
X40195489Y-87700828D01*
X40195489Y-87700828D02*
X40552632Y-87700828D01*
X40552632Y-87700828D02*
X40695489Y-87629400D01*
X40695489Y-87629400D02*
X40766917Y-87486542D01*
X40766917Y-87486542D02*
X40766917Y-87343685D01*
X40766917Y-87343685D02*
X40695489Y-87200828D01*
X40695489Y-87200828D02*
X40552632Y-87129400D01*
X40552632Y-87129400D02*
X40195489Y-87129400D01*
X40195489Y-87129400D02*
X40052632Y-87057971D01*
X39124060Y-87700828D02*
X39266917Y-87629400D01*
X39266917Y-87629400D02*
X39338346Y-87486542D01*
X39338346Y-87486542D02*
X39338346Y-86200828D01*
X37981203Y-87629400D02*
X38124060Y-87700828D01*
X38124060Y-87700828D02*
X38409775Y-87700828D01*
X38409775Y-87700828D02*
X38552632Y-87629400D01*
X38552632Y-87629400D02*
X38624060Y-87486542D01*
X38624060Y-87486542D02*
X38624060Y-86915114D01*
X38624060Y-86915114D02*
X38552632Y-86772257D01*
X38552632Y-86772257D02*
X38409775Y-86700828D01*
X38409775Y-86700828D02*
X38124060Y-86700828D01*
X38124060Y-86700828D02*
X37981203Y-86772257D01*
X37981203Y-86772257D02*
X37909775Y-86915114D01*
X37909775Y-86915114D02*
X37909775Y-87057971D01*
X37909775Y-87057971D02*
X38624060Y-87200828D01*
X37266918Y-87557971D02*
X37195489Y-87629400D01*
X37195489Y-87629400D02*
X37266918Y-87700828D01*
X37266918Y-87700828D02*
X37338346Y-87629400D01*
X37338346Y-87629400D02*
X37266918Y-87557971D01*
X37266918Y-87557971D02*
X37266918Y-87700828D01*
X36624060Y-86343685D02*
X36552632Y-86272257D01*
X36552632Y-86272257D02*
X36409775Y-86200828D01*
X36409775Y-86200828D02*
X36052632Y-86200828D01*
X36052632Y-86200828D02*
X35909775Y-86272257D01*
X35909775Y-86272257D02*
X35838346Y-86343685D01*
X35838346Y-86343685D02*
X35766917Y-86486542D01*
X35766917Y-86486542D02*
X35766917Y-86629400D01*
X35766917Y-86629400D02*
X35838346Y-86843685D01*
X35838346Y-86843685D02*
X36695489Y-87700828D01*
X36695489Y-87700828D02*
X35766917Y-87700828D01*
X34838346Y-86200828D02*
X34695489Y-86200828D01*
X34695489Y-86200828D02*
X34552632Y-86272257D01*
X34552632Y-86272257D02*
X34481204Y-86343685D01*
X34481204Y-86343685D02*
X34409775Y-86486542D01*
X34409775Y-86486542D02*
X34338346Y-86772257D01*
X34338346Y-86772257D02*
X34338346Y-87129400D01*
X34338346Y-87129400D02*
X34409775Y-87415114D01*
X34409775Y-87415114D02*
X34481204Y-87557971D01*
X34481204Y-87557971D02*
X34552632Y-87629400D01*
X34552632Y-87629400D02*
X34695489Y-87700828D01*
X34695489Y-87700828D02*
X34838346Y-87700828D01*
X34838346Y-87700828D02*
X34981204Y-87629400D01*
X34981204Y-87629400D02*
X35052632Y-87557971D01*
X35052632Y-87557971D02*
X35124061Y-87415114D01*
X35124061Y-87415114D02*
X35195489Y-87129400D01*
X35195489Y-87129400D02*
X35195489Y-86772257D01*
X35195489Y-86772257D02*
X35124061Y-86486542D01*
X35124061Y-86486542D02*
X35052632Y-86343685D01*
X35052632Y-86343685D02*
X34981204Y-86272257D01*
X34981204Y-86272257D02*
X34838346Y-86200828D01*
X33766918Y-86343685D02*
X33695490Y-86272257D01*
X33695490Y-86272257D02*
X33552633Y-86200828D01*
X33552633Y-86200828D02*
X33195490Y-86200828D01*
X33195490Y-86200828D02*
X33052633Y-86272257D01*
X33052633Y-86272257D02*
X32981204Y-86343685D01*
X32981204Y-86343685D02*
X32909775Y-86486542D01*
X32909775Y-86486542D02*
X32909775Y-86629400D01*
X32909775Y-86629400D02*
X32981204Y-86843685D01*
X32981204Y-86843685D02*
X33838347Y-87700828D01*
X33838347Y-87700828D02*
X32909775Y-87700828D01*
X31624062Y-86700828D02*
X31624062Y-87700828D01*
X31981204Y-86129400D02*
X32338347Y-87200828D01*
X32338347Y-87200828D02*
X31409776Y-87200828D01*
X30838348Y-87557971D02*
X30766919Y-87629400D01*
X30766919Y-87629400D02*
X30838348Y-87700828D01*
X30838348Y-87700828D02*
X30909776Y-87629400D01*
X30909776Y-87629400D02*
X30838348Y-87557971D01*
X30838348Y-87557971D02*
X30838348Y-87700828D01*
X29338347Y-87700828D02*
X30195490Y-87700828D01*
X29766919Y-87700828D02*
X29766919Y-86200828D01*
X29766919Y-86200828D02*
X29909776Y-86415114D01*
X29909776Y-86415114D02*
X30052633Y-86557971D01*
X30052633Y-86557971D02*
X30195490Y-86629400D01*
X28409776Y-86200828D02*
X28266919Y-86200828D01*
X28266919Y-86200828D02*
X28124062Y-86272257D01*
X28124062Y-86272257D02*
X28052634Y-86343685D01*
X28052634Y-86343685D02*
X27981205Y-86486542D01*
X27981205Y-86486542D02*
X27909776Y-86772257D01*
X27909776Y-86772257D02*
X27909776Y-87129400D01*
X27909776Y-87129400D02*
X27981205Y-87415114D01*
X27981205Y-87415114D02*
X28052634Y-87557971D01*
X28052634Y-87557971D02*
X28124062Y-87629400D01*
X28124062Y-87629400D02*
X28266919Y-87700828D01*
X28266919Y-87700828D02*
X28409776Y-87700828D01*
X28409776Y-87700828D02*
X28552634Y-87629400D01*
X28552634Y-87629400D02*
X28624062Y-87557971D01*
X28624062Y-87557971D02*
X28695491Y-87415114D01*
X28695491Y-87415114D02*
X28766919Y-87129400D01*
X28766919Y-87129400D02*
X28766919Y-86772257D01*
X28766919Y-86772257D02*
X28695491Y-86486542D01*
X28695491Y-86486542D02*
X28624062Y-86343685D01*
X28624062Y-86343685D02*
X28552634Y-86272257D01*
X28552634Y-86272257D02*
X28409776Y-86200828D01*
X27266920Y-87557971D02*
X27195491Y-87629400D01*
X27195491Y-87629400D02*
X27266920Y-87700828D01*
X27266920Y-87700828D02*
X27338348Y-87629400D01*
X27338348Y-87629400D02*
X27266920Y-87557971D01*
X27266920Y-87557971D02*
X27266920Y-87700828D01*
X26266919Y-86200828D02*
X26124062Y-86200828D01*
X26124062Y-86200828D02*
X25981205Y-86272257D01*
X25981205Y-86272257D02*
X25909777Y-86343685D01*
X25909777Y-86343685D02*
X25838348Y-86486542D01*
X25838348Y-86486542D02*
X25766919Y-86772257D01*
X25766919Y-86772257D02*
X25766919Y-87129400D01*
X25766919Y-87129400D02*
X25838348Y-87415114D01*
X25838348Y-87415114D02*
X25909777Y-87557971D01*
X25909777Y-87557971D02*
X25981205Y-87629400D01*
X25981205Y-87629400D02*
X26124062Y-87700828D01*
X26124062Y-87700828D02*
X26266919Y-87700828D01*
X26266919Y-87700828D02*
X26409777Y-87629400D01*
X26409777Y-87629400D02*
X26481205Y-87557971D01*
X26481205Y-87557971D02*
X26552634Y-87415114D01*
X26552634Y-87415114D02*
X26624062Y-87129400D01*
X26624062Y-87129400D02*
X26624062Y-86772257D01*
X26624062Y-86772257D02*
X26552634Y-86486542D01*
X26552634Y-86486542D02*
X26481205Y-86343685D01*
X26481205Y-86343685D02*
X26409777Y-86272257D01*
X26409777Y-86272257D02*
X26266919Y-86200828D01*
X25124063Y-87557971D02*
X25052634Y-87629400D01*
X25052634Y-87629400D02*
X25124063Y-87700828D01*
X25124063Y-87700828D02*
X25195491Y-87629400D01*
X25195491Y-87629400D02*
X25124063Y-87557971D01*
X25124063Y-87557971D02*
X25124063Y-87700828D01*
X23624062Y-87700828D02*
X24481205Y-87700828D01*
X24052634Y-87700828D02*
X24052634Y-86200828D01*
X24052634Y-86200828D02*
X24195491Y-86415114D01*
X24195491Y-86415114D02*
X24338348Y-86557971D01*
X24338348Y-86557971D02*
X24481205Y-86629400D01*
X22981206Y-87557971D02*
X22909777Y-87629400D01*
X22909777Y-87629400D02*
X22981206Y-87700828D01*
X22981206Y-87700828D02*
X23052634Y-87629400D01*
X23052634Y-87629400D02*
X22981206Y-87557971D01*
X22981206Y-87557971D02*
X22981206Y-87700828D01*
X21481205Y-87700828D02*
X22338348Y-87700828D01*
X21909777Y-87700828D02*
X21909777Y-86200828D01*
X21909777Y-86200828D02*
X22052634Y-86415114D01*
X22052634Y-86415114D02*
X22195491Y-86557971D01*
X22195491Y-86557971D02*
X22338348Y-86629400D01*
G36*
X4825263Y-78926118D02*
G01*
X4841651Y-78926491D01*
X4857775Y-78927111D01*
X4873635Y-78927980D01*
X4889231Y-78929098D01*
X4904562Y-78930463D01*
X4919630Y-78932077D01*
X4934434Y-78933939D01*
X4963249Y-78938409D01*
X4991009Y-78943871D01*
X5017712Y-78950327D01*
X5043359Y-78957776D01*
X5067949Y-78966218D01*
X5091484Y-78975653D01*
X5113963Y-78986082D01*
X5135385Y-78997504D01*
X5155751Y-79009919D01*
X5175061Y-79023327D01*
X5193315Y-79037728D01*
X5210512Y-79053122D01*
X5218717Y-79061170D01*
X5234345Y-79078014D01*
X5248931Y-79095857D01*
X5262475Y-79114699D01*
X5274977Y-79134540D01*
X5286437Y-79155380D01*
X5296856Y-79177219D01*
X5306232Y-79200056D01*
X5314567Y-79223893D01*
X5321860Y-79248728D01*
X5328111Y-79274563D01*
X5333320Y-79301396D01*
X5337488Y-79329228D01*
X5340613Y-79358059D01*
X5341785Y-79372850D01*
X5342697Y-79387889D01*
X5343348Y-79403179D01*
X5343739Y-79418718D01*
X5343869Y-79434508D01*
X5343792Y-79446251D01*
X5343386Y-79463942D01*
X5342633Y-79481723D01*
X5341531Y-79499594D01*
X5340082Y-79517555D01*
X5338286Y-79535606D01*
X5336141Y-79553748D01*
X5333649Y-79571979D01*
X5330809Y-79590301D01*
X5327621Y-79608713D01*
X5324085Y-79627215D01*
X5321524Y-79639637D01*
X5317348Y-79658485D01*
X5312774Y-79677590D01*
X5307800Y-79696953D01*
X5302427Y-79716574D01*
X5296655Y-79736452D01*
X5290483Y-79756588D01*
X5283912Y-79776981D01*
X5276942Y-79797632D01*
X5272073Y-79811542D01*
X5267027Y-79825567D01*
X5261803Y-79839706D01*
X5056273Y-79839706D01*
X5063459Y-79826919D01*
X5073706Y-79807873D01*
X5083315Y-79788988D01*
X5092287Y-79770264D01*
X5100622Y-79751700D01*
X5108319Y-79733298D01*
X5115378Y-79715057D01*
X5121800Y-79696976D01*
X5127584Y-79679057D01*
X5132730Y-79661299D01*
X5137240Y-79643702D01*
X5139946Y-79632008D01*
X5143678Y-79614408D01*
X5147017Y-79596738D01*
X5149963Y-79578997D01*
X5152517Y-79561185D01*
X5154677Y-79543302D01*
X5156445Y-79525349D01*
X5157820Y-79507324D01*
X5158802Y-79489229D01*
X5159391Y-79471063D01*
X5159588Y-79452826D01*
X5159521Y-79443527D01*
X5158989Y-79425329D01*
X5157924Y-79407663D01*
X5156327Y-79390530D01*
X5154197Y-79373929D01*
X5151536Y-79357861D01*
X5148341Y-79342325D01*
X5144615Y-79327321D01*
X5140356Y-79312850D01*
X5132969Y-79292141D01*
X5124385Y-79272630D01*
X5114602Y-79254316D01*
X5103622Y-79237201D01*
X5091444Y-79221284D01*
X5087153Y-79216235D01*
X5073618Y-79202049D01*
X5059092Y-79189307D01*
X5043573Y-79178007D01*
X5027063Y-79168149D01*
X5009562Y-79159734D01*
X4991068Y-79152762D01*
X4971583Y-79147232D01*
X4951106Y-79143145D01*
X4929637Y-79140500D01*
X4914773Y-79139538D01*
X4899469Y-79139218D01*
X4890310Y-79139218D01*
X4890310Y-79391277D01*
X4890211Y-79407613D01*
X4889912Y-79423697D01*
X4889415Y-79439527D01*
X4888719Y-79455104D01*
X4887823Y-79470428D01*
X4886729Y-79485498D01*
X4883944Y-79514879D01*
X4880364Y-79543246D01*
X4875987Y-79570600D01*
X4870815Y-79596941D01*
X4864848Y-79622269D01*
X4858084Y-79646584D01*
X4850525Y-79669885D01*
X4842170Y-79692173D01*
X4833020Y-79713448D01*
X4823074Y-79733710D01*
X4812332Y-79752958D01*
X4800794Y-79771193D01*
X4788461Y-79788415D01*
X4775349Y-79804608D01*
X4761476Y-79819757D01*
X4746841Y-79833860D01*
X4731445Y-79846919D01*
X4715288Y-79858933D01*
X4698370Y-79869903D01*
X4680690Y-79879828D01*
X4662248Y-79888708D01*
X4643046Y-79896543D01*
X4623082Y-79903334D01*
X4602356Y-79909079D01*
X4580870Y-79913781D01*
X4558622Y-79917437D01*
X4535612Y-79920049D01*
X4511841Y-79921616D01*
X4487309Y-79922138D01*
X4466054Y-79921719D01*
X4445338Y-79920461D01*
X4425159Y-79918365D01*
X4405519Y-79915429D01*
X4386416Y-79911655D01*
X4367852Y-79907043D01*
X4349825Y-79901592D01*
X4332337Y-79895302D01*
X4315387Y-79888174D01*
X4298975Y-79880207D01*
X4283101Y-79871401D01*
X4267766Y-79861757D01*
X4252968Y-79851274D01*
X4238708Y-79839953D01*
X4224987Y-79827792D01*
X4211803Y-79814794D01*
X4199293Y-79801039D01*
X4187589Y-79786704D01*
X4176693Y-79771787D01*
X4166603Y-79756290D01*
X4157321Y-79740211D01*
X4148846Y-79723552D01*
X4141178Y-79706311D01*
X4134317Y-79688490D01*
X4128264Y-79670087D01*
X4123017Y-79651103D01*
X4118578Y-79631539D01*
X4114946Y-79611393D01*
X4112121Y-79590666D01*
X4110103Y-79569358D01*
X4108892Y-79547469D01*
X4108489Y-79525000D01*
X4108539Y-79516112D01*
X4108946Y-79498589D01*
X4109759Y-79481404D01*
X4110316Y-79473709D01*
X4292770Y-79473709D01*
X4292986Y-79487394D01*
X4294121Y-79507209D01*
X4296227Y-79526167D01*
X4299307Y-79544269D01*
X4303359Y-79561514D01*
X4308383Y-79577903D01*
X4314380Y-79593435D01*
X4321349Y-79608111D01*
X4329290Y-79621930D01*
X4338204Y-79634893D01*
X4348091Y-79646999D01*
X4355208Y-79654541D01*
X4366468Y-79664941D01*
X4378430Y-79674247D01*
X4391095Y-79682458D01*
X4404461Y-79689574D01*
X4418529Y-79695596D01*
X4433299Y-79700522D01*
X4448771Y-79704354D01*
X4464945Y-79707091D01*
X4481821Y-79708733D01*
X4499399Y-79709281D01*
X4514274Y-79708952D01*
X4535524Y-79707224D01*
X4555499Y-79704014D01*
X4574198Y-79699324D01*
X4591623Y-79693152D01*
X4607772Y-79685499D01*
X4622647Y-79676365D01*
X4636246Y-79665750D01*
X4648570Y-79653653D01*
X4659619Y-79640076D01*
X4669392Y-79625017D01*
X4678166Y-79607912D01*
X4686076Y-79588335D01*
X4690870Y-79573909D01*
X4695281Y-79558384D01*
X4699308Y-79541761D01*
X4702952Y-79524038D01*
X4706212Y-79505216D01*
X4709089Y-79485295D01*
X4711582Y-79464275D01*
X4713691Y-79442155D01*
X4715417Y-79418937D01*
X4716759Y-79394620D01*
X4717718Y-79369203D01*
X4718293Y-79342687D01*
X4718485Y-79315073D01*
X4718485Y-79139218D01*
X4689176Y-79139218D01*
X4666839Y-79139576D01*
X4645075Y-79140649D01*
X4623883Y-79142438D01*
X4603264Y-79144942D01*
X4583217Y-79148162D01*
X4563742Y-79152098D01*
X4544840Y-79156749D01*
X4526510Y-79162116D01*
X4508753Y-79168198D01*
X4491568Y-79174996D01*
X4474956Y-79182509D01*
X4458916Y-79190738D01*
X4443449Y-79199682D01*
X4428554Y-79209342D01*
X4414231Y-79219718D01*
X4400481Y-79230809D01*
X4387438Y-79242491D01*
X4375236Y-79254640D01*
X4363876Y-79267255D01*
X4353357Y-79280337D01*
X4343680Y-79293885D01*
X4334845Y-79307900D01*
X4326850Y-79322381D01*
X4319698Y-79337329D01*
X4313386Y-79352744D01*
X4307917Y-79368625D01*
X4303289Y-79384972D01*
X4299502Y-79401787D01*
X4296557Y-79419067D01*
X4294453Y-79436814D01*
X4293191Y-79455028D01*
X4292770Y-79473709D01*
X4110316Y-79473709D01*
X4110978Y-79464557D01*
X4112604Y-79448048D01*
X4114636Y-79431876D01*
X4117075Y-79416043D01*
X4119920Y-79400547D01*
X4123171Y-79385388D01*
X4126829Y-79370568D01*
X4130893Y-79356085D01*
X4135364Y-79341940D01*
X4142832Y-79321355D01*
X4151215Y-79301531D01*
X4160512Y-79282466D01*
X4167093Y-79270229D01*
X4177253Y-79252694D01*
X4187761Y-79236144D01*
X4198616Y-79220580D01*
X4209820Y-79206001D01*
X4221371Y-79192407D01*
X4233270Y-79179798D01*
X4245517Y-79168175D01*
X4258111Y-79157538D01*
X4271054Y-79147885D01*
X4284344Y-79139218D01*
X4139630Y-79139218D01*
X4139630Y-78925994D01*
X4808611Y-78925994D01*
X4825263Y-78926118D01*
G37*
G36*
X5107198Y-77908600D02*
G01*
X5115618Y-77923110D01*
X5123019Y-77937101D01*
X5129400Y-77950573D01*
X5135711Y-77966055D01*
X5140554Y-77980789D01*
X5143468Y-77992498D01*
X5146608Y-78008752D01*
X5148686Y-78023297D01*
X5150198Y-78038410D01*
X5151142Y-78054089D01*
X5151520Y-78070335D01*
X5151528Y-78073098D01*
X5151136Y-78092230D01*
X5149959Y-78110793D01*
X5147999Y-78128787D01*
X5145254Y-78146210D01*
X5141725Y-78163065D01*
X5137411Y-78179349D01*
X5132314Y-78195064D01*
X5126432Y-78210210D01*
X5119766Y-78224786D01*
X5112315Y-78238792D01*
X5104081Y-78252229D01*
X5095062Y-78265096D01*
X5085259Y-78277393D01*
X5074671Y-78289121D01*
X5063300Y-78300280D01*
X5051144Y-78310868D01*
X5038240Y-78320850D01*
X5024623Y-78330188D01*
X5010293Y-78338882D01*
X4995251Y-78346932D01*
X4979495Y-78354338D01*
X4963028Y-78361100D01*
X4945847Y-78367218D01*
X4927954Y-78372692D01*
X4909348Y-78377522D01*
X4890030Y-78381708D01*
X4869998Y-78385250D01*
X4849254Y-78388148D01*
X4827798Y-78390402D01*
X4805628Y-78392012D01*
X4782746Y-78392978D01*
X4759152Y-78393300D01*
X4139630Y-78393300D01*
X4139630Y-78608356D01*
X5317124Y-78608356D01*
X5317124Y-78393300D01*
X5171311Y-78393300D01*
X5184012Y-78385681D01*
X5196423Y-78376973D01*
X5208544Y-78367176D01*
X5220376Y-78356292D01*
X5231917Y-78344319D01*
X5243169Y-78331257D01*
X5254131Y-78317108D01*
X5264803Y-78301869D01*
X5275185Y-78285543D01*
X5285278Y-78268128D01*
X5291845Y-78255914D01*
X5301142Y-78236885D01*
X5309525Y-78217166D01*
X5316993Y-78196759D01*
X5321464Y-78182771D01*
X5325529Y-78168477D01*
X5329187Y-78153877D01*
X5332438Y-78138971D01*
X5335283Y-78123758D01*
X5337722Y-78108239D01*
X5339754Y-78092414D01*
X5341380Y-78076282D01*
X5342599Y-78059845D01*
X5343412Y-78043101D01*
X5343818Y-78026050D01*
X5343869Y-78017411D01*
X5343560Y-78001439D01*
X5342733Y-77986256D01*
X5341671Y-77973447D01*
X5340132Y-77957254D01*
X5338335Y-77942084D01*
X5336349Y-77927195D01*
X5333977Y-77910799D01*
X5107198Y-77908600D01*
G37*
G36*
X5269863Y-76743562D02*
G01*
X5065432Y-76743562D01*
X5074851Y-76761870D01*
X5083735Y-76779836D01*
X5092084Y-76797462D01*
X5099899Y-76814745D01*
X5107179Y-76831688D01*
X5113925Y-76848289D01*
X5120137Y-76864549D01*
X5125814Y-76880468D01*
X5130956Y-76896045D01*
X5135564Y-76911281D01*
X5138339Y-76921249D01*
X5142136Y-76936037D01*
X5145560Y-76950864D01*
X5148610Y-76965730D01*
X5151287Y-76980634D01*
X5153591Y-76995577D01*
X5155521Y-77010559D01*
X5157077Y-77025579D01*
X5158260Y-77040638D01*
X5159069Y-77055735D01*
X5159505Y-77070871D01*
X5159588Y-77080983D01*
X5159147Y-77103150D01*
X5157825Y-77124678D01*
X5155621Y-77145568D01*
X5152535Y-77165820D01*
X5148568Y-77185433D01*
X5143720Y-77204408D01*
X5137989Y-77222745D01*
X5131378Y-77240443D01*
X5123884Y-77257504D01*
X5115510Y-77273926D01*
X5106253Y-77289709D01*
X5096115Y-77304855D01*
X5085096Y-77319362D01*
X5073195Y-77333231D01*
X5060412Y-77346462D01*
X5046748Y-77359054D01*
X5032275Y-77370899D01*
X5017066Y-77381980D01*
X5001122Y-77392297D01*
X4984443Y-77401850D01*
X4967028Y-77410638D01*
X4948877Y-77418663D01*
X4929990Y-77425923D01*
X4910368Y-77432418D01*
X4890011Y-77438150D01*
X4868918Y-77443117D01*
X4847089Y-77447321D01*
X4824525Y-77450759D01*
X4801225Y-77453434D01*
X4777189Y-77455345D01*
X4752418Y-77456491D01*
X4726912Y-77456873D01*
X4701445Y-77456491D01*
X4676702Y-77455345D01*
X4652684Y-77453434D01*
X4629390Y-77450759D01*
X4606820Y-77447321D01*
X4584974Y-77443117D01*
X4563852Y-77438150D01*
X4543455Y-77432418D01*
X4523781Y-77425923D01*
X4504832Y-77418663D01*
X4486607Y-77410638D01*
X4469106Y-77401850D01*
X4452329Y-77392297D01*
X4436276Y-77381980D01*
X4420947Y-77370899D01*
X4406343Y-77359054D01*
X4392590Y-77346462D01*
X4379724Y-77333231D01*
X4367746Y-77319362D01*
X4356655Y-77304855D01*
X4346451Y-77289709D01*
X4337134Y-77273926D01*
X4328705Y-77257504D01*
X4321163Y-77240443D01*
X4314508Y-77222745D01*
X4308741Y-77204408D01*
X4303861Y-77185433D01*
X4299868Y-77165820D01*
X4296763Y-77145568D01*
X4294544Y-77124678D01*
X4293214Y-77103150D01*
X4292770Y-77080983D01*
X4292966Y-77065822D01*
X4293556Y-77050698D01*
X4294538Y-77035614D01*
X4295913Y-77020568D01*
X4297680Y-77005560D01*
X4299841Y-76990592D01*
X4302394Y-76975662D01*
X4305341Y-76960770D01*
X4308680Y-76945917D01*
X4312412Y-76931103D01*
X4315118Y-76921249D01*
X4319589Y-76906240D01*
X4324619Y-76890890D01*
X4330210Y-76875199D01*
X4336362Y-76859167D01*
X4343073Y-76842793D01*
X4350345Y-76826078D01*
X4358177Y-76809022D01*
X4366569Y-76791624D01*
X4375522Y-76773885D01*
X4385035Y-76755805D01*
X4391688Y-76743562D01*
X4186891Y-76743562D01*
X4179456Y-76760170D01*
X4172401Y-76776745D01*
X4165726Y-76793288D01*
X4159430Y-76809799D01*
X4153515Y-76826278D01*
X4147980Y-76842725D01*
X4142825Y-76859140D01*
X4138050Y-76875522D01*
X4133654Y-76891872D01*
X4129639Y-76908190D01*
X4127173Y-76919050D01*
X4123834Y-76935408D01*
X4120823Y-76951920D01*
X4118141Y-76968587D01*
X4115787Y-76985408D01*
X4113762Y-77002384D01*
X4112065Y-77019514D01*
X4110697Y-77036799D01*
X4109656Y-77054239D01*
X4108945Y-77071833D01*
X4108562Y-77089582D01*
X4108489Y-77101500D01*
X4108653Y-77117950D01*
X4109146Y-77134192D01*
X4109967Y-77150225D01*
X4111116Y-77166049D01*
X4112594Y-77181663D01*
X4114401Y-77197069D01*
X4116535Y-77212266D01*
X4118999Y-77227254D01*
X4121790Y-77242033D01*
X4124911Y-77256604D01*
X4128359Y-77270965D01*
X4136242Y-77299060D01*
X4145438Y-77326320D01*
X4155948Y-77352744D01*
X4167772Y-77378332D01*
X4180910Y-77403085D01*
X4195361Y-77427002D01*
X4211126Y-77450083D01*
X4228205Y-77472328D01*
X4246598Y-77493737D01*
X4266304Y-77514311D01*
X4276650Y-77524284D01*
X4298155Y-77543405D01*
X4320539Y-77561293D01*
X4343802Y-77577947D01*
X4367943Y-77593367D01*
X4392963Y-77607553D01*
X4418862Y-77620506D01*
X4445640Y-77632226D01*
X4459358Y-77637623D01*
X4473296Y-77642711D01*
X4487454Y-77647492D01*
X4501831Y-77651964D01*
X4516428Y-77656127D01*
X4531244Y-77659982D01*
X4546281Y-77663529D01*
X4561537Y-77666767D01*
X4577012Y-77669697D01*
X4592708Y-77672318D01*
X4608623Y-77674631D01*
X4624757Y-77676636D01*
X4641112Y-77678332D01*
X4657686Y-77679720D01*
X4674480Y-77680799D01*
X4691493Y-77681570D01*
X4708726Y-77682033D01*
X4726179Y-77682187D01*
X4744123Y-77682032D01*
X4761824Y-77681568D01*
X4779280Y-77680793D01*
X4796492Y-77679709D01*
X4813460Y-77678314D01*
X4830185Y-77676610D01*
X4846665Y-77674596D01*
X4862901Y-77672272D01*
X4878894Y-77669639D01*
X4894642Y-77666695D01*
X4910146Y-77663442D01*
X4925407Y-77659879D01*
X4940423Y-77656006D01*
X4955195Y-77651823D01*
X4969723Y-77647331D01*
X4984008Y-77642528D01*
X4998048Y-77637416D01*
X5011844Y-77631994D01*
X5025396Y-77626262D01*
X5051769Y-77613869D01*
X5077165Y-77600236D01*
X5101586Y-77585364D01*
X5125030Y-77569252D01*
X5147499Y-77551901D01*
X5168991Y-77533311D01*
X5179371Y-77523551D01*
X5199291Y-77503223D01*
X5217926Y-77481986D01*
X5235275Y-77459843D01*
X5251339Y-77436792D01*
X5266118Y-77412834D01*
X5279612Y-77387968D01*
X5291821Y-77362195D01*
X5302745Y-77335515D01*
X5312383Y-77307928D01*
X5316720Y-77293794D01*
X5320737Y-77279433D01*
X5324431Y-77264845D01*
X5327805Y-77250031D01*
X5330857Y-77234989D01*
X5333588Y-77219721D01*
X5335998Y-77204226D01*
X5338086Y-77188504D01*
X5339853Y-77172556D01*
X5341299Y-77156380D01*
X5342423Y-77139978D01*
X5343226Y-77123349D01*
X5343708Y-77106493D01*
X5343869Y-77089410D01*
X5343711Y-77072943D01*
X5343238Y-77056514D01*
X5342449Y-77040125D01*
X5341345Y-77023773D01*
X5339925Y-77007461D01*
X5338189Y-76991187D01*
X5336138Y-76974952D01*
X5333771Y-76958755D01*
X5331089Y-76942597D01*
X5328091Y-76926478D01*
X5325917Y-76915753D01*
X5322436Y-76899672D01*
X5318588Y-76883579D01*
X5314373Y-76867473D01*
X5309791Y-76851353D01*
X5304842Y-76835221D01*
X5299526Y-76819076D01*
X5293843Y-76802918D01*
X5287792Y-76786747D01*
X5281375Y-76770563D01*
X5274590Y-76754367D01*
X5269863Y-76743562D01*
G37*
G36*
X4847812Y-75442236D02*
G01*
X4139630Y-75442236D01*
X4139630Y-75655094D01*
X4841584Y-75655094D01*
X4861359Y-75655331D01*
X4880475Y-75656044D01*
X4898934Y-75657232D01*
X4916734Y-75658895D01*
X4933876Y-75661033D01*
X4950359Y-75663646D01*
X4966185Y-75666734D01*
X4981352Y-75670298D01*
X4995860Y-75674336D01*
X5016389Y-75681285D01*
X5035436Y-75689303D01*
X5053002Y-75698390D01*
X5069087Y-75708546D01*
X5078988Y-75715910D01*
X5092672Y-75727854D01*
X5105010Y-75740880D01*
X5116002Y-75754988D01*
X5125648Y-75770178D01*
X5133948Y-75786450D01*
X5140902Y-75803803D01*
X5146510Y-75822239D01*
X5150772Y-75841756D01*
X5153688Y-75862356D01*
X5155259Y-75884037D01*
X5155558Y-75899092D01*
X5155193Y-75917260D01*
X5154098Y-75934944D01*
X5152273Y-75952145D01*
X5149719Y-75968862D01*
X5146434Y-75985095D01*
X5142420Y-76000844D01*
X5137676Y-76016110D01*
X5132202Y-76030892D01*
X5125998Y-76045190D01*
X5119064Y-76059005D01*
X5111401Y-76072335D01*
X5103007Y-76085182D01*
X5093884Y-76097546D01*
X5084031Y-76109425D01*
X5073448Y-76120821D01*
X5062135Y-76131734D01*
X5050224Y-76142071D01*
X5037754Y-76151741D01*
X5024727Y-76160744D01*
X5011142Y-76169080D01*
X4996998Y-76176749D01*
X4982296Y-76183752D01*
X4967036Y-76190087D01*
X4951218Y-76195756D01*
X4934842Y-76200758D01*
X4917908Y-76205092D01*
X4900415Y-76208760D01*
X4882365Y-76211761D01*
X4863756Y-76214095D01*
X4844589Y-76215763D01*
X4824864Y-76216763D01*
X4804581Y-76217096D01*
X4139630Y-76217096D01*
X4139630Y-76432152D01*
X5766287Y-76432152D01*
X5766287Y-76217096D01*
X5166182Y-76217096D01*
X5179479Y-76208072D01*
X5192440Y-76198171D01*
X5205067Y-76187395D01*
X5217359Y-76175743D01*
X5229316Y-76163215D01*
X5240938Y-76149811D01*
X5252225Y-76135532D01*
X5263177Y-76120376D01*
X5273795Y-76104345D01*
X5284077Y-76087438D01*
X5290746Y-76075680D01*
X5300240Y-76057516D01*
X5308800Y-76038882D01*
X5316426Y-76019777D01*
X5323118Y-76000203D01*
X5328876Y-75980159D01*
X5333701Y-75959644D01*
X5337592Y-75938659D01*
X5340549Y-75917204D01*
X5342572Y-75895279D01*
X5343402Y-75880402D01*
X5343817Y-75865315D01*
X5343869Y-75857693D01*
X5343375Y-75832438D01*
X5341894Y-75807965D01*
X5339425Y-75784273D01*
X5335969Y-75761362D01*
X5331526Y-75739233D01*
X5326095Y-75717885D01*
X5319676Y-75697319D01*
X5312270Y-75677534D01*
X5303877Y-75658530D01*
X5294496Y-75640307D01*
X5284127Y-75622867D01*
X5272771Y-75606207D01*
X5260428Y-75590329D01*
X5247097Y-75575232D01*
X5232779Y-75560917D01*
X5217473Y-75547383D01*
X5201217Y-75534650D01*
X5184048Y-75522739D01*
X5165966Y-75511649D01*
X5146971Y-75501381D01*
X5127063Y-75491934D01*
X5106242Y-75483309D01*
X5084507Y-75475505D01*
X5061860Y-75468523D01*
X5038300Y-75462362D01*
X5013826Y-75457022D01*
X4988440Y-75452504D01*
X4962140Y-75448808D01*
X4934928Y-75445933D01*
X4906802Y-75443879D01*
X4877763Y-75442647D01*
X4862902Y-75442339D01*
X4847812Y-75442236D01*
G37*
G36*
X4791904Y-74062278D02*
G01*
X4807957Y-74062686D01*
X4823797Y-74063365D01*
X4839425Y-74064317D01*
X4854841Y-74065541D01*
X4870044Y-74067036D01*
X4885035Y-74068804D01*
X4899813Y-74070843D01*
X4928731Y-74075737D01*
X4956799Y-74081719D01*
X4984018Y-74088789D01*
X5010386Y-74096946D01*
X5035904Y-74106191D01*
X5060572Y-74116524D01*
X5084390Y-74127944D01*
X5107358Y-74140452D01*
X5129476Y-74154048D01*
X5150744Y-74168731D01*
X5171161Y-74184502D01*
X5190729Y-74201360D01*
X5200150Y-74210158D01*
X5218097Y-74228333D01*
X5234846Y-74247281D01*
X5250400Y-74267002D01*
X5264757Y-74287495D01*
X5277917Y-74308762D01*
X5289881Y-74330801D01*
X5300649Y-74353613D01*
X5310220Y-74377197D01*
X5318595Y-74401555D01*
X5325773Y-74426685D01*
X5331755Y-74452588D01*
X5336541Y-74479264D01*
X5340130Y-74506713D01*
X5342523Y-74534934D01*
X5343719Y-74563929D01*
X5343869Y-74578715D01*
X5343703Y-74595165D01*
X5343206Y-74611403D01*
X5342378Y-74627431D01*
X5341219Y-74643247D01*
X5339728Y-74658852D01*
X5337906Y-74674246D01*
X5335752Y-74689429D01*
X5333267Y-74704401D01*
X5330451Y-74719162D01*
X5327304Y-74733712D01*
X5320015Y-74762178D01*
X5311401Y-74789800D01*
X5301462Y-74816577D01*
X5290198Y-74842511D01*
X5277609Y-74867599D01*
X5263694Y-74891844D01*
X5248454Y-74915244D01*
X5231889Y-74937800D01*
X5213999Y-74959511D01*
X5194783Y-74980378D01*
X5174242Y-75000401D01*
X5152625Y-75019389D01*
X5130090Y-75037152D01*
X5106635Y-75053690D01*
X5082262Y-75069002D01*
X5056970Y-75083090D01*
X5030759Y-75095953D01*
X5017309Y-75101925D01*
X5003630Y-75107591D01*
X4989720Y-75112950D01*
X4975581Y-75118004D01*
X4961213Y-75122751D01*
X4946614Y-75127191D01*
X4931786Y-75131326D01*
X4916728Y-75135154D01*
X4901441Y-75138676D01*
X4885924Y-75141892D01*
X4870177Y-75144801D01*
X4854200Y-75147404D01*
X4837994Y-75149701D01*
X4821558Y-75151692D01*
X4804892Y-75153376D01*
X4787997Y-75154755D01*
X4770872Y-75155827D01*
X4753517Y-75156592D01*
X4735933Y-75157052D01*
X4718119Y-75157205D01*
X4700670Y-75157043D01*
X4683449Y-75156559D01*
X4666455Y-75155752D01*
X4649689Y-75154623D01*
X4633150Y-75153171D01*
X4616839Y-75151396D01*
X4600756Y-75149298D01*
X4584900Y-75146878D01*
X4569271Y-75144135D01*
X4553870Y-75141069D01*
X4538697Y-75137680D01*
X4523751Y-75133969D01*
X4509033Y-75129935D01*
X4494542Y-75125579D01*
X4480279Y-75120899D01*
X4466243Y-75115897D01*
X4452435Y-75110572D01*
X4438855Y-75104925D01*
X4412376Y-75092662D01*
X4386808Y-75079108D01*
X4362150Y-75064263D01*
X4338402Y-75048127D01*
X4315565Y-75030700D01*
X4293637Y-75011983D01*
X4272620Y-74991974D01*
X4252745Y-74970868D01*
X4234152Y-74948858D01*
X4216841Y-74925943D01*
X4200812Y-74902124D01*
X4186066Y-74877400D01*
X4172602Y-74851771D01*
X4160421Y-74825239D01*
X4154811Y-74811633D01*
X4149521Y-74797801D01*
X4144553Y-74783744D01*
X4139904Y-74769460D01*
X4135577Y-74754950D01*
X4131570Y-74740213D01*
X4127883Y-74725251D01*
X4124517Y-74710063D01*
X4121472Y-74694648D01*
X4118747Y-74679008D01*
X4116343Y-74663141D01*
X4114259Y-74647048D01*
X4112496Y-74630729D01*
X4111053Y-74614184D01*
X4109931Y-74597413D01*
X4109130Y-74580416D01*
X4108649Y-74563192D01*
X4108489Y-74545743D01*
X4108577Y-74531965D01*
X4109043Y-74511326D01*
X4109908Y-74490719D01*
X4111173Y-74470145D01*
X4112836Y-74449602D01*
X4114899Y-74429092D01*
X4117362Y-74408614D01*
X4120223Y-74388168D01*
X4123484Y-74367754D01*
X4127144Y-74347373D01*
X4131203Y-74327023D01*
X4132671Y-74320243D01*
X4137380Y-74299872D01*
X4142546Y-74279456D01*
X4148169Y-74258995D01*
X4154250Y-74238489D01*
X4160787Y-74217938D01*
X4167782Y-74197342D01*
X4175234Y-74176701D01*
X4180456Y-74162915D01*
X4185882Y-74149109D01*
X4191510Y-74135283D01*
X4197342Y-74121437D01*
X4203377Y-74107571D01*
X4407808Y-74107571D01*
X4403951Y-74114860D01*
X4396446Y-74129343D01*
X4389222Y-74143699D01*
X4382278Y-74157930D01*
X4375615Y-74172035D01*
X4369232Y-74186014D01*
X4363130Y-74199868D01*
X4357308Y-74213595D01*
X4351767Y-74227196D01*
X4343981Y-74247362D01*
X4336826Y-74267244D01*
X4330302Y-74286843D01*
X4324410Y-74306159D01*
X4319148Y-74325191D01*
X4315954Y-74337777D01*
X4311549Y-74356794D01*
X4307608Y-74375979D01*
X4304130Y-74395331D01*
X4301116Y-74414850D01*
X4298566Y-74434538D01*
X4296479Y-74454392D01*
X4294856Y-74474414D01*
X4293697Y-74494603D01*
X4293002Y-74514960D01*
X4292770Y-74535484D01*
X4293159Y-74558024D01*
X4294327Y-74579941D01*
X4296273Y-74601233D01*
X4298998Y-74621901D01*
X4302501Y-74641945D01*
X4306783Y-74661365D01*
X4311844Y-74680161D01*
X4317683Y-74698333D01*
X4324300Y-74715882D01*
X4331696Y-74732806D01*
X4339871Y-74749106D01*
X4348824Y-74764783D01*
X4358555Y-74779835D01*
X4369065Y-74794264D01*
X4380354Y-74808068D01*
X4392421Y-74821249D01*
X4405231Y-74833715D01*
X4418656Y-74845469D01*
X4432697Y-74856510D01*
X4447353Y-74866838D01*
X4462624Y-74876454D01*
X4478511Y-74885357D01*
X4495013Y-74893547D01*
X4512131Y-74901024D01*
X4529863Y-74907789D01*
X4548212Y-74913841D01*
X4567175Y-74919181D01*
X4586754Y-74923808D01*
X4606949Y-74927722D01*
X4627759Y-74930923D01*
X4649184Y-74933412D01*
X4671224Y-74935188D01*
X4671224Y-74926762D01*
X4840851Y-74926762D01*
X4859063Y-74925070D01*
X4876789Y-74922743D01*
X4894028Y-74919781D01*
X4910781Y-74916183D01*
X4927047Y-74911950D01*
X4942826Y-74907081D01*
X4958119Y-74901577D01*
X4972925Y-74895437D01*
X4987245Y-74888663D01*
X5001078Y-74881252D01*
X5014425Y-74873207D01*
X5027284Y-74864525D01*
X5039658Y-74855209D01*
X5051545Y-74845257D01*
X5062945Y-74834670D01*
X5073859Y-74823447D01*
X5084240Y-74811620D01*
X5093951Y-74799313D01*
X5102993Y-74786524D01*
X5111365Y-74773255D01*
X5119067Y-74759505D01*
X5126100Y-74745274D01*
X5132463Y-74730562D01*
X5138155Y-74715369D01*
X5143179Y-74699696D01*
X5147532Y-74683541D01*
X5151216Y-74666906D01*
X5154230Y-74649790D01*
X5156574Y-74632193D01*
X5158248Y-74614115D01*
X5159253Y-74595557D01*
X5159588Y-74576517D01*
X5159239Y-74559875D01*
X5158191Y-74543653D01*
X5156445Y-74527852D01*
X5154001Y-74512472D01*
X5150858Y-74497513D01*
X5147017Y-74482974D01*
X5142477Y-74468856D01*
X5137240Y-74455159D01*
X5128073Y-74435402D01*
X5117336Y-74416592D01*
X5105027Y-74398729D01*
X5091146Y-74381812D01*
X5081020Y-74371060D01*
X5070195Y-74360729D01*
X5058875Y-74350864D01*
X5047171Y-74341603D01*
X5035084Y-74332947D01*
X5022613Y-74324894D01*
X5009759Y-74317445D01*
X4996521Y-74310600D01*
X4982900Y-74304359D01*
X4968895Y-74298722D01*
X4954507Y-74293688D01*
X4939735Y-74289259D01*
X4924579Y-74285434D01*
X4909040Y-74282212D01*
X4893118Y-74279595D01*
X4876812Y-74277581D01*
X4860122Y-74276172D01*
X4843049Y-74275366D01*
X4840851Y-74926762D01*
X4671224Y-74926762D01*
X4671224Y-74062142D01*
X4775638Y-74062142D01*
X4791904Y-74062278D01*
G37*
G36*
X5107198Y-73138538D02*
G01*
X5115618Y-73153047D01*
X5123019Y-73167038D01*
X5129400Y-73180510D01*
X5135711Y-73195992D01*
X5140554Y-73210727D01*
X5143468Y-73222435D01*
X5146608Y-73238689D01*
X5148686Y-73253235D01*
X5150198Y-73268347D01*
X5151142Y-73284026D01*
X5151520Y-73300272D01*
X5151528Y-73303035D01*
X5151136Y-73322168D01*
X5149959Y-73340731D01*
X5147999Y-73358724D01*
X5145254Y-73376148D01*
X5141725Y-73393002D01*
X5137411Y-73409286D01*
X5132314Y-73425001D01*
X5126432Y-73440147D01*
X5119766Y-73454723D01*
X5112315Y-73468729D01*
X5104081Y-73482166D01*
X5095062Y-73495033D01*
X5085259Y-73507330D01*
X5074671Y-73519058D01*
X5063300Y-73530217D01*
X5051144Y-73540806D01*
X5038240Y-73550787D01*
X5024623Y-73560125D01*
X5010293Y-73568819D01*
X4995251Y-73576869D01*
X4979495Y-73584275D01*
X4963028Y-73591037D01*
X4945847Y-73597155D01*
X4927954Y-73602629D01*
X4909348Y-73607459D01*
X4890030Y-73611645D01*
X4869998Y-73615187D01*
X4849254Y-73618085D01*
X4827798Y-73620339D01*
X4805628Y-73621949D01*
X4782746Y-73622915D01*
X4759152Y-73623237D01*
X4139630Y-73623237D01*
X4139630Y-73838293D01*
X5317124Y-73838293D01*
X5317124Y-73623237D01*
X5171311Y-73623237D01*
X5184012Y-73615618D01*
X5196423Y-73606910D01*
X5208544Y-73597114D01*
X5220376Y-73586229D01*
X5231917Y-73574256D01*
X5243169Y-73561195D01*
X5254131Y-73547045D01*
X5264803Y-73531807D01*
X5275185Y-73515480D01*
X5285278Y-73498065D01*
X5291845Y-73485851D01*
X5301142Y-73466822D01*
X5309525Y-73447104D01*
X5316993Y-73426696D01*
X5321464Y-73412709D01*
X5325529Y-73398415D01*
X5329187Y-73383814D01*
X5332438Y-73368908D01*
X5335283Y-73353695D01*
X5337722Y-73338176D01*
X5339754Y-73322351D01*
X5341380Y-73306220D01*
X5342599Y-73289782D01*
X5343412Y-73273038D01*
X5343818Y-73255988D01*
X5343869Y-73247348D01*
X5343560Y-73231377D01*
X5342733Y-73216193D01*
X5341671Y-73203384D01*
X5340132Y-73187191D01*
X5338335Y-73172021D01*
X5336349Y-73157132D01*
X5333977Y-73140736D01*
X5107198Y-73138538D01*
G37*
G36*
X5766287Y-72220795D02*
G01*
X5584204Y-72220795D01*
X5584204Y-72413869D01*
X5583872Y-72431731D01*
X5582877Y-72448499D01*
X5581219Y-72464172D01*
X5578897Y-72478750D01*
X5574770Y-72496484D01*
X5569464Y-72512272D01*
X5562978Y-72526114D01*
X5553212Y-72540679D01*
X5546468Y-72547958D01*
X5533093Y-72558196D01*
X5520113Y-72565137D01*
X5505106Y-72570967D01*
X5488073Y-72575687D01*
X5469014Y-72579296D01*
X5453389Y-72581275D01*
X5436625Y-72582628D01*
X5418720Y-72583357D01*
X5406151Y-72583496D01*
X5317124Y-72583496D01*
X5317124Y-72270254D01*
X5147131Y-72270254D01*
X5147131Y-72583496D01*
X4139630Y-72583496D01*
X4139630Y-72796720D01*
X5147131Y-72796720D01*
X5147131Y-72978070D01*
X5317124Y-72978070D01*
X5317124Y-72796720D01*
X5385635Y-72796720D01*
X5410035Y-72796360D01*
X5433594Y-72795283D01*
X5456311Y-72793487D01*
X5478187Y-72790972D01*
X5499222Y-72787739D01*
X5519415Y-72783788D01*
X5538766Y-72779118D01*
X5557276Y-72773730D01*
X5574945Y-72767624D01*
X5591772Y-72760799D01*
X5607757Y-72753255D01*
X5622901Y-72744994D01*
X5637204Y-72736013D01*
X5650665Y-72726315D01*
X5663284Y-72715898D01*
X5675062Y-72704762D01*
X5686109Y-72692800D01*
X5696443Y-72679993D01*
X5706064Y-72666341D01*
X5714973Y-72651845D01*
X5723169Y-72636505D01*
X5730652Y-72620321D01*
X5737423Y-72603292D01*
X5743481Y-72585419D01*
X5748826Y-72566702D01*
X5753459Y-72547140D01*
X5757378Y-72526734D01*
X5760585Y-72505483D01*
X5763080Y-72483388D01*
X5764862Y-72460449D01*
X5765931Y-72436665D01*
X5766287Y-72412037D01*
X5766287Y-72220795D01*
G37*
G36*
X5317124Y-72054466D02*
G01*
X5317124Y-71841242D01*
X4139630Y-71841242D01*
X4139630Y-72054466D01*
X5317124Y-72054466D01*
G37*
G36*
X5766287Y-72054466D02*
G01*
X5766287Y-71841242D01*
X5501772Y-71841242D01*
X5501772Y-72054466D01*
X5766287Y-72054466D01*
G37*
G36*
X5277923Y-70623447D02*
G01*
X5073859Y-70623447D01*
X5082875Y-70641744D01*
X5091375Y-70659816D01*
X5099361Y-70677662D01*
X5106831Y-70695283D01*
X5113787Y-70712678D01*
X5120227Y-70729848D01*
X5126151Y-70746793D01*
X5131561Y-70763512D01*
X5136455Y-70780006D01*
X5140835Y-70796275D01*
X5143468Y-70806995D01*
X5147069Y-70823033D01*
X5150316Y-70839135D01*
X5153208Y-70855302D01*
X5155747Y-70871533D01*
X5157931Y-70887828D01*
X5159761Y-70904188D01*
X5161237Y-70920612D01*
X5162358Y-70937100D01*
X5163126Y-70953653D01*
X5163539Y-70970271D01*
X5163618Y-70981385D01*
X5163459Y-70998461D01*
X5162982Y-71014976D01*
X5162188Y-71030930D01*
X5161076Y-71046323D01*
X5159646Y-71061155D01*
X5156906Y-71082351D01*
X5153451Y-71102285D01*
X5149281Y-71120957D01*
X5144397Y-71138366D01*
X5138797Y-71154513D01*
X5132483Y-71169398D01*
X5125453Y-71183021D01*
X5122951Y-71187281D01*
X5112172Y-71202909D01*
X5100168Y-71216453D01*
X5086939Y-71227914D01*
X5072485Y-71237290D01*
X5056805Y-71244583D01*
X5039901Y-71249792D01*
X5021772Y-71252918D01*
X5002418Y-71253960D01*
X4987780Y-71253210D01*
X4970562Y-71250163D01*
X4954543Y-71244773D01*
X4939722Y-71237040D01*
X4926099Y-71226963D01*
X4913675Y-71214543D01*
X4906796Y-71205966D01*
X4897924Y-71192290D01*
X4889074Y-71175443D01*
X4882451Y-71160727D01*
X4875842Y-71144226D01*
X4869245Y-71125942D01*
X4862661Y-71105874D01*
X4858279Y-71091504D01*
X4853903Y-71076342D01*
X4849532Y-71060386D01*
X4845167Y-71043638D01*
X4840808Y-71026097D01*
X4836454Y-71007763D01*
X4823998Y-70944016D01*
X4818135Y-70918825D01*
X4811994Y-70894545D01*
X4805575Y-70871175D01*
X4798879Y-70848715D01*
X4791905Y-70827165D01*
X4784654Y-70806526D01*
X4777125Y-70786797D01*
X4769318Y-70767978D01*
X4761234Y-70750069D01*
X4752872Y-70733070D01*
X4744232Y-70716981D01*
X4735315Y-70701803D01*
X4726120Y-70687535D01*
X4716648Y-70674177D01*
X4706897Y-70661729D01*
X4696870Y-70650191D01*
X4686498Y-70639455D01*
X4675626Y-70629412D01*
X4664253Y-70620061D01*
X4652379Y-70611403D01*
X4640005Y-70603437D01*
X4627129Y-70596164D01*
X4613752Y-70589584D01*
X4599875Y-70583696D01*
X4585496Y-70578501D01*
X4570617Y-70573999D01*
X4555237Y-70570189D01*
X4539356Y-70567073D01*
X4522974Y-70564648D01*
X4506091Y-70562917D01*
X4488708Y-70561878D01*
X4470823Y-70561531D01*
X4450255Y-70562046D01*
X4430225Y-70563592D01*
X4410733Y-70566168D01*
X4391780Y-70569774D01*
X4373364Y-70574411D01*
X4355487Y-70580078D01*
X4338148Y-70586776D01*
X4321346Y-70594504D01*
X4305083Y-70603262D01*
X4289358Y-70613051D01*
X4274171Y-70623870D01*
X4259522Y-70635720D01*
X4245412Y-70648600D01*
X4231839Y-70662510D01*
X4218804Y-70677451D01*
X4206308Y-70693422D01*
X4194463Y-70710234D01*
X4183382Y-70727786D01*
X4173065Y-70746080D01*
X4163512Y-70765115D01*
X4154724Y-70784892D01*
X4146699Y-70805410D01*
X4139439Y-70826669D01*
X4132943Y-70848669D01*
X4127212Y-70871411D01*
X4122245Y-70894894D01*
X4118041Y-70919119D01*
X4114602Y-70944084D01*
X4111928Y-70969791D01*
X4110017Y-70996240D01*
X4108871Y-71023429D01*
X4108489Y-71051360D01*
X4108653Y-71069072D01*
X4109146Y-71086900D01*
X4109967Y-71104844D01*
X4111116Y-71122904D01*
X4112594Y-71141080D01*
X4114401Y-71159372D01*
X4116535Y-71177780D01*
X4118999Y-71196303D01*
X4121790Y-71214943D01*
X4124911Y-71233698D01*
X4127173Y-71246266D01*
X4130929Y-71265327D01*
X4135052Y-71284730D01*
X4139541Y-71304474D01*
X4144398Y-71324559D01*
X4149622Y-71344986D01*
X4155213Y-71365754D01*
X4161171Y-71386863D01*
X4165347Y-71401125D01*
X4169686Y-71415540D01*
X4174188Y-71430105D01*
X4178854Y-71444823D01*
X4183682Y-71459692D01*
X4186158Y-71467184D01*
X4407808Y-71467184D01*
X4400163Y-71452369D01*
X4392799Y-71437691D01*
X4385715Y-71423151D01*
X4378911Y-71408749D01*
X4372388Y-71394483D01*
X4366146Y-71380355D01*
X4360184Y-71366365D01*
X4354502Y-71352512D01*
X4349101Y-71338796D01*
X4341526Y-71318480D01*
X4334581Y-71298473D01*
X4328268Y-71278775D01*
X4322586Y-71259386D01*
X4319148Y-71246632D01*
X4314434Y-71227574D01*
X4310184Y-71208594D01*
X4306397Y-71189690D01*
X4303074Y-71170864D01*
X4300215Y-71152115D01*
X4297819Y-71133443D01*
X4295887Y-71114849D01*
X4294419Y-71096331D01*
X4293414Y-71077892D01*
X4292873Y-71059529D01*
X4292770Y-71047330D01*
X4292937Y-71031272D01*
X4293440Y-71015703D01*
X4294277Y-71000623D01*
X4296161Y-70978921D01*
X4298798Y-70958321D01*
X4302188Y-70938822D01*
X4306333Y-70920424D01*
X4311230Y-70903127D01*
X4316881Y-70886931D01*
X4323286Y-70871837D01*
X4330444Y-70857844D01*
X4335635Y-70849127D01*
X4343961Y-70836949D01*
X4355966Y-70822575D01*
X4369000Y-70810331D01*
X4383065Y-70800215D01*
X4398160Y-70792230D01*
X4414286Y-70786374D01*
X4431442Y-70782647D01*
X4449629Y-70781050D01*
X4454337Y-70780983D01*
X4471853Y-70781756D01*
X4488317Y-70784075D01*
X4503727Y-70787939D01*
X4518084Y-70793348D01*
X4531388Y-70800303D01*
X4543638Y-70808804D01*
X4554835Y-70818851D01*
X4564979Y-70830443D01*
X4574659Y-70844645D01*
X4581881Y-70857829D01*
X4589071Y-70873183D01*
X4596229Y-70890707D01*
X4603355Y-70910402D01*
X4608088Y-70924737D01*
X4612806Y-70940037D01*
X4617510Y-70956302D01*
X4622200Y-70973531D01*
X4626876Y-70991724D01*
X4631537Y-71010883D01*
X4636183Y-71031006D01*
X4640816Y-71052093D01*
X4657302Y-71118039D01*
X4662181Y-71139962D01*
X4667383Y-71161126D01*
X4672909Y-71181533D01*
X4678758Y-71201180D01*
X4684930Y-71220070D01*
X4691426Y-71238200D01*
X4698245Y-71255573D01*
X4705388Y-71272186D01*
X4712854Y-71288042D01*
X4720643Y-71303138D01*
X4728756Y-71317477D01*
X4737193Y-71331057D01*
X4745952Y-71343878D01*
X4755036Y-71355941D01*
X4764442Y-71367245D01*
X4774173Y-71377791D01*
X4789551Y-71392260D01*
X4806012Y-71405307D01*
X4823554Y-71416930D01*
X4842179Y-71427130D01*
X4861885Y-71435906D01*
X4882674Y-71443260D01*
X4897134Y-71447371D01*
X4912074Y-71450850D01*
X4927496Y-71453697D01*
X4943399Y-71455911D01*
X4959782Y-71457492D01*
X4976646Y-71458441D01*
X4993991Y-71458757D01*
X5014535Y-71458292D01*
X5034492Y-71456897D01*
X5053862Y-71454571D01*
X5072645Y-71451316D01*
X5090842Y-71447130D01*
X5108451Y-71442013D01*
X5125474Y-71435967D01*
X5141911Y-71428990D01*
X5157760Y-71421083D01*
X5173023Y-71412246D01*
X5187699Y-71402479D01*
X5201788Y-71391781D01*
X5215291Y-71380154D01*
X5228207Y-71367596D01*
X5240536Y-71354107D01*
X5252278Y-71339689D01*
X5263369Y-71324390D01*
X5273745Y-71308353D01*
X5283405Y-71291578D01*
X5292349Y-71274064D01*
X5300578Y-71255812D01*
X5308091Y-71236821D01*
X5314889Y-71217091D01*
X5320971Y-71196624D01*
X5326338Y-71175418D01*
X5330989Y-71153473D01*
X5334925Y-71130790D01*
X5338145Y-71107368D01*
X5340649Y-71083208D01*
X5342438Y-71058310D01*
X5343511Y-71032673D01*
X5343869Y-71006297D01*
X5343740Y-70986159D01*
X5343354Y-70966271D01*
X5342710Y-70946634D01*
X5341808Y-70927249D01*
X5340649Y-70908114D01*
X5339232Y-70889231D01*
X5337558Y-70870599D01*
X5335626Y-70852218D01*
X5333436Y-70834089D01*
X5330989Y-70816210D01*
X5329214Y-70804431D01*
X5326274Y-70786841D01*
X5322946Y-70769380D01*
X5319232Y-70752048D01*
X5315132Y-70734844D01*
X5310646Y-70717770D01*
X5305773Y-70700824D01*
X5300514Y-70684007D01*
X5294868Y-70667319D01*
X5288836Y-70650760D01*
X5282417Y-70634329D01*
X5277923Y-70623447D01*
G37*
G36*
X4847812Y-69325418D02*
G01*
X4139630Y-69325418D01*
X4139630Y-69538276D01*
X4841584Y-69538276D01*
X4861359Y-69538513D01*
X4880475Y-69539226D01*
X4898934Y-69540414D01*
X4916734Y-69542077D01*
X4933876Y-69544215D01*
X4950359Y-69546828D01*
X4966185Y-69549916D01*
X4981352Y-69553480D01*
X4995860Y-69557519D01*
X5016389Y-69564467D01*
X5035436Y-69572485D01*
X5053002Y-69581572D01*
X5069087Y-69591728D01*
X5078988Y-69599092D01*
X5092672Y-69611036D01*
X5105010Y-69624062D01*
X5116002Y-69638170D01*
X5125648Y-69653360D01*
X5133948Y-69669632D01*
X5140902Y-69686985D01*
X5146510Y-69705421D01*
X5150772Y-69724938D01*
X5153688Y-69745538D01*
X5155259Y-69767219D01*
X5155558Y-69782274D01*
X5155193Y-69800442D01*
X5154098Y-69818127D01*
X5152273Y-69835327D01*
X5149719Y-69852044D01*
X5146434Y-69868277D01*
X5142420Y-69884026D01*
X5137676Y-69899292D01*
X5132202Y-69914074D01*
X5125998Y-69928372D01*
X5119064Y-69942187D01*
X5111401Y-69955518D01*
X5103007Y-69968365D01*
X5093884Y-69980728D01*
X5084031Y-69992608D01*
X5073448Y-70004004D01*
X5062135Y-70014916D01*
X5050224Y-70025253D01*
X5037754Y-70034923D01*
X5024727Y-70043926D01*
X5011142Y-70052262D01*
X4996998Y-70059931D01*
X4982296Y-70066934D01*
X4967036Y-70073269D01*
X4951218Y-70078938D01*
X4934842Y-70083940D01*
X4917908Y-70088274D01*
X4900415Y-70091942D01*
X4882365Y-70094943D01*
X4863756Y-70097278D01*
X4844589Y-70098945D01*
X4824864Y-70099945D01*
X4804581Y-70100279D01*
X4139630Y-70100279D01*
X4139630Y-70315334D01*
X5766287Y-70315334D01*
X5766287Y-70100279D01*
X5166182Y-70100279D01*
X5179479Y-70091254D01*
X5192440Y-70081354D01*
X5205067Y-70070577D01*
X5217359Y-70058925D01*
X5229316Y-70046397D01*
X5240938Y-70032994D01*
X5252225Y-70018714D01*
X5263177Y-70003558D01*
X5273795Y-69987527D01*
X5284077Y-69970620D01*
X5290746Y-69958862D01*
X5300240Y-69940698D01*
X5308800Y-69922064D01*
X5316426Y-69902960D01*
X5323118Y-69883385D01*
X5328876Y-69863341D01*
X5333701Y-69842826D01*
X5337592Y-69821841D01*
X5340549Y-69800387D01*
X5342572Y-69778462D01*
X5343402Y-69763584D01*
X5343817Y-69748497D01*
X5343869Y-69740875D01*
X5343375Y-69715620D01*
X5341894Y-69691147D01*
X5339425Y-69667455D01*
X5335969Y-69644544D01*
X5331526Y-69622415D01*
X5326095Y-69601067D01*
X5319676Y-69580501D01*
X5312270Y-69560716D01*
X5303877Y-69541712D01*
X5294496Y-69523490D01*
X5284127Y-69506049D01*
X5272771Y-69489389D01*
X5260428Y-69473511D01*
X5247097Y-69458414D01*
X5232779Y-69444099D01*
X5217473Y-69430565D01*
X5201217Y-69417832D01*
X5184048Y-69405921D01*
X5165966Y-69394831D01*
X5146971Y-69384563D01*
X5127063Y-69375116D01*
X5106242Y-69366491D01*
X5084507Y-69358687D01*
X5061860Y-69351705D01*
X5038300Y-69345544D01*
X5013826Y-69340204D01*
X4988440Y-69335686D01*
X4962140Y-69331990D01*
X4934928Y-69329115D01*
X4906802Y-69327061D01*
X4877763Y-69325829D01*
X4862902Y-69325521D01*
X4847812Y-69325418D01*
G37*
D12*
X53435901Y-85083601D02*
G75*
G03*
X52673901Y-85083601I-381000J0D01*
G01*
X52673901Y-85083601D02*
G75*
G03*
X53435901Y-85083601I381000J0D01*
G01*
X49803800Y-78900000D02*
G75*
G03*
X49041800Y-78900000I-381000J0D01*
G01*
X49041800Y-78900000D02*
G75*
G03*
X49803800Y-78900000I381000J0D01*
G01*
X53434101Y-61046900D02*
G75*
G03*
X52672101Y-61046900I-381000J0D01*
G01*
X52672101Y-61046900D02*
G75*
G03*
X53434101Y-61046900I381000J0D01*
G01*
%LPC*%
D13*
X53054901Y-81271601D03*
X53054901Y-77461601D03*
D14*
X49000000Y-44250000D03*
X56600000Y-44250000D03*
D15*
X7000000Y-38500000D03*
D16*
X7000000Y-41000000D03*
X7000000Y-43500000D03*
X7000000Y-46000000D03*
X7000000Y-48500000D03*
D17*
X46466596Y-78900000D03*
X46466596Y-71100000D03*
X3966604Y-86399998D03*
X3966604Y-63600003D03*
D18*
X5900000Y-22100000D03*
D14*
X8400000Y-22100000D03*
X10900000Y-22100000D03*
X13400000Y-22100000D03*
D19*
X28500000Y-17150000D03*
D20*
X25960000Y-17150000D03*
X23420000Y-17150000D03*
X20880000Y-17150000D03*
X18340000Y-17150000D03*
D21*
X52000000Y-55000000D03*
X28500000Y-29735000D03*
D22*
X53053101Y-65404778D03*
X53053101Y-67904900D03*
X53053101Y-70405022D03*
D21*
X5000000Y-55000000D03*
%LPD*%
M02*
