G04 #@! TF.GenerationSoftware,KiCad,Pcbnew,7.0.11-7.0.11~ubuntu22.04.1*
G04 #@! TF.CreationDate,2024-09-13T17:01:46+07:00*
G04 #@! TF.ProjectId,scale,7363616c-652e-46b6-9963-61645f706362,rev?*
G04 #@! TF.SameCoordinates,Original*
G04 #@! TF.FileFunction,Legend,Top*
G04 #@! TF.FilePolarity,Positive*
%FSLAX46Y46*%
G04 Gerber Fmt 4.6, Leading zero omitted, Abs format (unit mm)*
G04 Created by KiCad (PCBNEW 7.0.11-7.0.11~ubuntu22.04.1) date 2024-09-13 17:01:46*
%MOMM*%
%LPD*%
G01*
G04 APERTURE LIST*
G04 Aperture macros list*
%AMRoundRect*
0 Rectangle with rounded corners*
0 $1 Rounding radius*
0 $2 $3 $4 $5 $6 $7 $8 $9 X,Y pos of 4 corners*
0 Add a 4 corners polygon primitive as box body*
4,1,4,$2,$3,$4,$5,$6,$7,$8,$9,$2,$3,0*
0 Add four circle primitives for the rounded corners*
1,1,$1+$1,$2,$3*
1,1,$1+$1,$4,$5*
1,1,$1+$1,$6,$7*
1,1,$1+$1,$8,$9*
0 Add four rect primitives between the rounded corners*
20,1,$1+$1,$2,$3,$4,$5,0*
20,1,$1+$1,$4,$5,$6,$7,0*
20,1,$1+$1,$6,$7,$8,$9,0*
20,1,$1+$1,$8,$9,$2,$3,0*%
G04 Aperture macros list end*
%ADD10C,0.150000*%
%ADD11C,0.120000*%
%ADD12C,0.152400*%
%ADD13C,0.508000*%
%ADD14C,0.127000*%
%ADD15C,0.200000*%
%ADD16C,0.254000*%
%ADD17R,1.100000X0.250000*%
%ADD18RoundRect,0.250000X-0.262500X-0.450000X0.262500X-0.450000X0.262500X0.450000X-0.262500X0.450000X0*%
%ADD19RoundRect,0.250000X0.262500X0.450000X-0.262500X0.450000X-0.262500X-0.450000X0.262500X-0.450000X0*%
%ADD20RoundRect,0.250000X0.450000X-0.262500X0.450000X0.262500X-0.450000X0.262500X-0.450000X-0.262500X0*%
%ADD21RoundRect,0.135000X-0.135000X-0.185000X0.135000X-0.185000X0.135000X0.185000X-0.135000X0.185000X0*%
%ADD22C,1.320800*%
%ADD23C,1.828800*%
%ADD24RoundRect,0.250000X-0.450000X0.262500X-0.450000X-0.262500X0.450000X-0.262500X0.450000X0.262500X0*%
%ADD25RoundRect,0.250000X0.250000X0.475000X-0.250000X0.475000X-0.250000X-0.475000X0.250000X-0.475000X0*%
%ADD26RoundRect,0.112500X0.187500X0.112500X-0.187500X0.112500X-0.187500X-0.112500X0.187500X-0.112500X0*%
%ADD27RoundRect,0.250000X-0.475000X0.250000X-0.475000X-0.250000X0.475000X-0.250000X0.475000X0.250000X0*%
%ADD28RoundRect,0.250000X1.000000X0.650000X-1.000000X0.650000X-1.000000X-0.650000X1.000000X-0.650000X0*%
%ADD29RoundRect,0.375000X0.375000X-0.625000X0.375000X0.625000X-0.375000X0.625000X-0.375000X-0.625000X0*%
%ADD30RoundRect,0.500000X1.400000X-0.500000X1.400000X0.500000X-1.400000X0.500000X-1.400000X-0.500000X0*%
%ADD31RoundRect,0.135000X0.135000X0.185000X-0.135000X0.185000X-0.135000X-0.185000X0.135000X-0.185000X0*%
%ADD32RoundRect,0.250000X0.375000X0.625000X-0.375000X0.625000X-0.375000X-0.625000X0.375000X-0.625000X0*%
%ADD33RoundRect,0.250000X0.550000X-1.500000X0.550000X1.500000X-0.550000X1.500000X-0.550000X-1.500000X0*%
%ADD34R,1.120000X2.160000*%
%ADD35RoundRect,0.150000X-0.587500X-0.150000X0.587500X-0.150000X0.587500X0.150000X-0.587500X0.150000X0*%
%ADD36C,1.712000*%
%ADD37RoundRect,0.102000X-0.795000X-0.795000X0.795000X-0.795000X0.795000X0.795000X-0.795000X0.795000X0*%
%ADD38C,1.794000*%
%ADD39RoundRect,0.243750X-0.456250X0.243750X-0.456250X-0.243750X0.456250X-0.243750X0.456250X0.243750X0*%
%ADD40RoundRect,0.243750X0.243750X0.456250X-0.243750X0.456250X-0.243750X-0.456250X0.243750X-0.456250X0*%
%ADD41RoundRect,0.250000X-0.250000X-0.475000X0.250000X-0.475000X0.250000X0.475000X-0.250000X0.475000X0*%
%ADD42RoundRect,0.150000X-0.825000X-0.150000X0.825000X-0.150000X0.825000X0.150000X-0.825000X0.150000X0*%
%ADD43RoundRect,0.250000X0.300000X-2.050000X0.300000X2.050000X-0.300000X2.050000X-0.300000X-2.050000X0*%
%ADD44RoundRect,0.250002X5.149998X-4.449998X5.149998X4.449998X-5.149998X4.449998X-5.149998X-4.449998X0*%
%ADD45RoundRect,0.102000X0.754000X0.754000X-0.754000X0.754000X-0.754000X-0.754000X0.754000X-0.754000X0*%
%ADD46R,1.700000X1.700000*%
%ADD47O,1.700000X1.700000*%
%ADD48C,3.000000*%
%ADD49RoundRect,0.250000X-0.550000X1.500000X-0.550000X-1.500000X0.550000X-1.500000X0.550000X1.500000X0*%
%ADD50R,2.895600X5.410200*%
%ADD51R,1.500000X0.900000*%
%ADD52R,0.900000X1.500000*%
%ADD53C,0.600000*%
%ADD54R,3.800000X3.800000*%
%ADD55RoundRect,0.150000X-0.150000X0.587500X-0.150000X-0.587500X0.150000X-0.587500X0.150000X0.587500X0*%
G04 APERTURE END LIST*
D10*
X1000000Y-49500000D02*
X10000000Y-49500000D01*
X10000000Y-49500000D02*
X11000000Y-49500000D01*
X5000000Y-47500000D02*
X5000000Y-49500000D01*
X500000Y-19500000D02*
X3000000Y-19500000D01*
X3000000Y-49500000D02*
X3000000Y-51500000D01*
X3000000Y-21500000D02*
X500000Y-21500000D01*
X500000Y-21500000D02*
X500000Y-11500000D01*
X11000000Y-51500000D02*
X10000000Y-51500000D01*
X7000000Y-47500000D02*
X7000000Y-49500000D01*
X7000000Y-49500000D02*
X7000000Y-51500000D01*
X11000000Y-49500000D02*
X11000000Y-51500000D01*
X500000Y-17500000D02*
X3000000Y-17500000D01*
X10000000Y-51500000D02*
X1000000Y-51500000D01*
X500000Y-15500000D02*
X3000000Y-15500000D01*
X9000000Y-47500000D02*
X9000000Y-49500000D01*
X3000000Y-47500000D02*
X3000000Y-49500000D01*
X9000000Y-49500000D02*
X9000000Y-51500000D01*
X3000000Y-11500000D02*
X3000000Y-21500000D01*
X500000Y-13500000D02*
X3000000Y-13500000D01*
X1000000Y-51500000D02*
X1000000Y-47500000D01*
X500000Y-11500000D02*
X3000000Y-11500000D01*
X5000000Y-49500000D02*
X5000000Y-51500000D01*
X9000000Y-47500000D02*
X1000000Y-47500000D01*
X1136779Y-16969819D02*
X1136779Y-15969819D01*
X1136779Y-15969819D02*
X1374874Y-15969819D01*
X1374874Y-15969819D02*
X1517731Y-16017438D01*
X1517731Y-16017438D02*
X1612969Y-16112676D01*
X1612969Y-16112676D02*
X1660588Y-16207914D01*
X1660588Y-16207914D02*
X1708207Y-16398390D01*
X1708207Y-16398390D02*
X1708207Y-16541247D01*
X1708207Y-16541247D02*
X1660588Y-16731723D01*
X1660588Y-16731723D02*
X1612969Y-16826961D01*
X1612969Y-16826961D02*
X1517731Y-16922200D01*
X1517731Y-16922200D02*
X1374874Y-16969819D01*
X1374874Y-16969819D02*
X1136779Y-16969819D01*
X1993922Y-15969819D02*
X2565350Y-15969819D01*
X2279636Y-16969819D02*
X2279636Y-15969819D01*
X1708207Y-18969819D02*
X1374874Y-18493628D01*
X1136779Y-18969819D02*
X1136779Y-17969819D01*
X1136779Y-17969819D02*
X1517731Y-17969819D01*
X1517731Y-17969819D02*
X1612969Y-18017438D01*
X1612969Y-18017438D02*
X1660588Y-18065057D01*
X1660588Y-18065057D02*
X1708207Y-18160295D01*
X1708207Y-18160295D02*
X1708207Y-18303152D01*
X1708207Y-18303152D02*
X1660588Y-18398390D01*
X1660588Y-18398390D02*
X1612969Y-18446009D01*
X1612969Y-18446009D02*
X1517731Y-18493628D01*
X1517731Y-18493628D02*
X1136779Y-18493628D01*
X2041541Y-17969819D02*
X2708207Y-18969819D01*
X2708207Y-17969819D02*
X2041541Y-18969819D01*
X6246303Y-50818104D02*
X6208207Y-50856200D01*
X6208207Y-50856200D02*
X6093922Y-50894295D01*
X6093922Y-50894295D02*
X6017731Y-50894295D01*
X6017731Y-50894295D02*
X5903445Y-50856200D01*
X5903445Y-50856200D02*
X5827255Y-50780009D01*
X5827255Y-50780009D02*
X5789160Y-50703819D01*
X5789160Y-50703819D02*
X5751064Y-50551438D01*
X5751064Y-50551438D02*
X5751064Y-50437152D01*
X5751064Y-50437152D02*
X5789160Y-50284771D01*
X5789160Y-50284771D02*
X5827255Y-50208580D01*
X5827255Y-50208580D02*
X5903445Y-50132390D01*
X5903445Y-50132390D02*
X6017731Y-50094295D01*
X6017731Y-50094295D02*
X6093922Y-50094295D01*
X6093922Y-50094295D02*
X6208207Y-50132390D01*
X6208207Y-50132390D02*
X6246303Y-50170485D01*
X3789160Y-50894295D02*
X3789160Y-50094295D01*
X3789160Y-50094295D02*
X3979636Y-50094295D01*
X3979636Y-50094295D02*
X4093922Y-50132390D01*
X4093922Y-50132390D02*
X4170112Y-50208580D01*
X4170112Y-50208580D02*
X4208207Y-50284771D01*
X4208207Y-50284771D02*
X4246303Y-50437152D01*
X4246303Y-50437152D02*
X4246303Y-50551438D01*
X4246303Y-50551438D02*
X4208207Y-50703819D01*
X4208207Y-50703819D02*
X4170112Y-50780009D01*
X4170112Y-50780009D02*
X4093922Y-50856200D01*
X4093922Y-50856200D02*
X3979636Y-50894295D01*
X3979636Y-50894295D02*
X3789160Y-50894295D01*
X8208207Y-50132390D02*
X8132017Y-50094295D01*
X8132017Y-50094295D02*
X8017731Y-50094295D01*
X8017731Y-50094295D02*
X7903445Y-50132390D01*
X7903445Y-50132390D02*
X7827255Y-50208580D01*
X7827255Y-50208580D02*
X7789160Y-50284771D01*
X7789160Y-50284771D02*
X7751064Y-50437152D01*
X7751064Y-50437152D02*
X7751064Y-50551438D01*
X7751064Y-50551438D02*
X7789160Y-50703819D01*
X7789160Y-50703819D02*
X7827255Y-50780009D01*
X7827255Y-50780009D02*
X7903445Y-50856200D01*
X7903445Y-50856200D02*
X8017731Y-50894295D01*
X8017731Y-50894295D02*
X8093922Y-50894295D01*
X8093922Y-50894295D02*
X8208207Y-50856200D01*
X8208207Y-50856200D02*
X8246303Y-50818104D01*
X8246303Y-50818104D02*
X8246303Y-50551438D01*
X8246303Y-50551438D02*
X8093922Y-50551438D01*
X9462969Y-50094295D02*
X9958207Y-50094295D01*
X9958207Y-50094295D02*
X9691541Y-50399057D01*
X9691541Y-50399057D02*
X9805826Y-50399057D01*
X9805826Y-50399057D02*
X9882017Y-50437152D01*
X9882017Y-50437152D02*
X9920112Y-50475247D01*
X9920112Y-50475247D02*
X9958207Y-50551438D01*
X9958207Y-50551438D02*
X9958207Y-50741914D01*
X9958207Y-50741914D02*
X9920112Y-50818104D01*
X9920112Y-50818104D02*
X9882017Y-50856200D01*
X9882017Y-50856200D02*
X9805826Y-50894295D01*
X9805826Y-50894295D02*
X9577255Y-50894295D01*
X9577255Y-50894295D02*
X9501064Y-50856200D01*
X9501064Y-50856200D02*
X9462969Y-50818104D01*
X10224874Y-50094295D02*
X10720112Y-50094295D01*
X10720112Y-50094295D02*
X10453446Y-50399057D01*
X10453446Y-50399057D02*
X10567731Y-50399057D01*
X10567731Y-50399057D02*
X10643922Y-50437152D01*
X10643922Y-50437152D02*
X10682017Y-50475247D01*
X10682017Y-50475247D02*
X10720112Y-50551438D01*
X10720112Y-50551438D02*
X10720112Y-50741914D01*
X10720112Y-50741914D02*
X10682017Y-50818104D01*
X10682017Y-50818104D02*
X10643922Y-50856200D01*
X10643922Y-50856200D02*
X10567731Y-50894295D01*
X10567731Y-50894295D02*
X10339160Y-50894295D01*
X10339160Y-50894295D02*
X10262969Y-50856200D01*
X10262969Y-50856200D02*
X10224874Y-50818104D01*
X1789160Y-48894295D02*
X1789160Y-48094295D01*
X2589159Y-48894295D02*
X2132016Y-48894295D01*
X2360588Y-48894295D02*
X2360588Y-48094295D01*
X2360588Y-48094295D02*
X2284397Y-48208580D01*
X2284397Y-48208580D02*
X2208207Y-48284771D01*
X2208207Y-48284771D02*
X2132016Y-48322866D01*
X2039160Y-50568104D02*
X2077255Y-50606200D01*
X2077255Y-50606200D02*
X2039160Y-50644295D01*
X2039160Y-50644295D02*
X2001064Y-50606200D01*
X2001064Y-50606200D02*
X2039160Y-50568104D01*
X2039160Y-50568104D02*
X2039160Y-50644295D01*
X2060588Y-12017438D02*
X1965350Y-11969819D01*
X1965350Y-11969819D02*
X1822493Y-11969819D01*
X1822493Y-11969819D02*
X1679636Y-12017438D01*
X1679636Y-12017438D02*
X1584398Y-12112676D01*
X1584398Y-12112676D02*
X1536779Y-12207914D01*
X1536779Y-12207914D02*
X1489160Y-12398390D01*
X1489160Y-12398390D02*
X1489160Y-12541247D01*
X1489160Y-12541247D02*
X1536779Y-12731723D01*
X1536779Y-12731723D02*
X1584398Y-12826961D01*
X1584398Y-12826961D02*
X1679636Y-12922200D01*
X1679636Y-12922200D02*
X1822493Y-12969819D01*
X1822493Y-12969819D02*
X1917731Y-12969819D01*
X1917731Y-12969819D02*
X2060588Y-12922200D01*
X2060588Y-12922200D02*
X2108207Y-12874580D01*
X2108207Y-12874580D02*
X2108207Y-12541247D01*
X2108207Y-12541247D02*
X1917731Y-12541247D01*
X1093922Y-19969819D02*
X1665350Y-19969819D01*
X1379636Y-20969819D02*
X1379636Y-19969819D01*
X1903446Y-19969819D02*
X2570112Y-20969819D01*
X2570112Y-19969819D02*
X1903446Y-20969819D01*
X7920112Y-48094295D02*
X7539160Y-48094295D01*
X7539160Y-48094295D02*
X7501064Y-48475247D01*
X7501064Y-48475247D02*
X7539160Y-48437152D01*
X7539160Y-48437152D02*
X7615350Y-48399057D01*
X7615350Y-48399057D02*
X7805826Y-48399057D01*
X7805826Y-48399057D02*
X7882017Y-48437152D01*
X7882017Y-48437152D02*
X7920112Y-48475247D01*
X7920112Y-48475247D02*
X7958207Y-48551438D01*
X7958207Y-48551438D02*
X7958207Y-48741914D01*
X7958207Y-48741914D02*
X7920112Y-48818104D01*
X7920112Y-48818104D02*
X7882017Y-48856200D01*
X7882017Y-48856200D02*
X7805826Y-48894295D01*
X7805826Y-48894295D02*
X7615350Y-48894295D01*
X7615350Y-48894295D02*
X7539160Y-48856200D01*
X7539160Y-48856200D02*
X7501064Y-48818104D01*
X8453446Y-48094295D02*
X8529636Y-48094295D01*
X8529636Y-48094295D02*
X8605827Y-48132390D01*
X8605827Y-48132390D02*
X8643922Y-48170485D01*
X8643922Y-48170485D02*
X8682017Y-48246676D01*
X8682017Y-48246676D02*
X8720112Y-48399057D01*
X8720112Y-48399057D02*
X8720112Y-48589533D01*
X8720112Y-48589533D02*
X8682017Y-48741914D01*
X8682017Y-48741914D02*
X8643922Y-48818104D01*
X8643922Y-48818104D02*
X8605827Y-48856200D01*
X8605827Y-48856200D02*
X8529636Y-48894295D01*
X8529636Y-48894295D02*
X8453446Y-48894295D01*
X8453446Y-48894295D02*
X8377255Y-48856200D01*
X8377255Y-48856200D02*
X8339160Y-48818104D01*
X8339160Y-48818104D02*
X8301065Y-48741914D01*
X8301065Y-48741914D02*
X8262969Y-48589533D01*
X8262969Y-48589533D02*
X8262969Y-48399057D01*
X8262969Y-48399057D02*
X8301065Y-48246676D01*
X8301065Y-48246676D02*
X8339160Y-48170485D01*
X8339160Y-48170485D02*
X8377255Y-48132390D01*
X8377255Y-48132390D02*
X8453446Y-48094295D01*
X6208207Y-48132390D02*
X6132017Y-48094295D01*
X6132017Y-48094295D02*
X6017731Y-48094295D01*
X6017731Y-48094295D02*
X5903445Y-48132390D01*
X5903445Y-48132390D02*
X5827255Y-48208580D01*
X5827255Y-48208580D02*
X5789160Y-48284771D01*
X5789160Y-48284771D02*
X5751064Y-48437152D01*
X5751064Y-48437152D02*
X5751064Y-48551438D01*
X5751064Y-48551438D02*
X5789160Y-48703819D01*
X5789160Y-48703819D02*
X5827255Y-48780009D01*
X5827255Y-48780009D02*
X5903445Y-48856200D01*
X5903445Y-48856200D02*
X6017731Y-48894295D01*
X6017731Y-48894295D02*
X6093922Y-48894295D01*
X6093922Y-48894295D02*
X6208207Y-48856200D01*
X6208207Y-48856200D02*
X6246303Y-48818104D01*
X6246303Y-48818104D02*
X6246303Y-48551438D01*
X6246303Y-48551438D02*
X6093922Y-48551438D01*
X1708207Y-15069819D02*
X1374874Y-14593628D01*
X1136779Y-15069819D02*
X1136779Y-14069819D01*
X1136779Y-14069819D02*
X1517731Y-14069819D01*
X1517731Y-14069819D02*
X1612969Y-14117438D01*
X1612969Y-14117438D02*
X1660588Y-14165057D01*
X1660588Y-14165057D02*
X1708207Y-14260295D01*
X1708207Y-14260295D02*
X1708207Y-14403152D01*
X1708207Y-14403152D02*
X1660588Y-14498390D01*
X1660588Y-14498390D02*
X1612969Y-14546009D01*
X1612969Y-14546009D02*
X1517731Y-14593628D01*
X1517731Y-14593628D02*
X1136779Y-14593628D01*
X1993922Y-14069819D02*
X2565350Y-14069819D01*
X2279636Y-15069819D02*
X2279636Y-14069819D01*
X3789160Y-48894295D02*
X3789160Y-48094295D01*
X4132016Y-48170485D02*
X4170112Y-48132390D01*
X4170112Y-48132390D02*
X4246302Y-48094295D01*
X4246302Y-48094295D02*
X4436778Y-48094295D01*
X4436778Y-48094295D02*
X4512969Y-48132390D01*
X4512969Y-48132390D02*
X4551064Y-48170485D01*
X4551064Y-48170485D02*
X4589159Y-48246676D01*
X4589159Y-48246676D02*
X4589159Y-48322866D01*
X4589159Y-48322866D02*
X4551064Y-48437152D01*
X4551064Y-48437152D02*
X4093921Y-48894295D01*
X4093921Y-48894295D02*
X4589159Y-48894295D01*
X11338095Y-21954819D02*
X11338095Y-22764342D01*
X11338095Y-22764342D02*
X11385714Y-22859580D01*
X11385714Y-22859580D02*
X11433333Y-22907200D01*
X11433333Y-22907200D02*
X11528571Y-22954819D01*
X11528571Y-22954819D02*
X11719047Y-22954819D01*
X11719047Y-22954819D02*
X11814285Y-22907200D01*
X11814285Y-22907200D02*
X11861904Y-22859580D01*
X11861904Y-22859580D02*
X11909523Y-22764342D01*
X11909523Y-22764342D02*
X11909523Y-21954819D01*
X12814285Y-21954819D02*
X12623809Y-21954819D01*
X12623809Y-21954819D02*
X12528571Y-22002438D01*
X12528571Y-22002438D02*
X12480952Y-22050057D01*
X12480952Y-22050057D02*
X12385714Y-22192914D01*
X12385714Y-22192914D02*
X12338095Y-22383390D01*
X12338095Y-22383390D02*
X12338095Y-22764342D01*
X12338095Y-22764342D02*
X12385714Y-22859580D01*
X12385714Y-22859580D02*
X12433333Y-22907200D01*
X12433333Y-22907200D02*
X12528571Y-22954819D01*
X12528571Y-22954819D02*
X12719047Y-22954819D01*
X12719047Y-22954819D02*
X12814285Y-22907200D01*
X12814285Y-22907200D02*
X12861904Y-22859580D01*
X12861904Y-22859580D02*
X12909523Y-22764342D01*
X12909523Y-22764342D02*
X12909523Y-22526247D01*
X12909523Y-22526247D02*
X12861904Y-22431009D01*
X12861904Y-22431009D02*
X12814285Y-22383390D01*
X12814285Y-22383390D02*
X12719047Y-22335771D01*
X12719047Y-22335771D02*
X12528571Y-22335771D01*
X12528571Y-22335771D02*
X12433333Y-22383390D01*
X12433333Y-22383390D02*
X12385714Y-22431009D01*
X12385714Y-22431009D02*
X12338095Y-22526247D01*
X27957142Y-23454819D02*
X27623809Y-22978628D01*
X27385714Y-23454819D02*
X27385714Y-22454819D01*
X27385714Y-22454819D02*
X27766666Y-22454819D01*
X27766666Y-22454819D02*
X27861904Y-22502438D01*
X27861904Y-22502438D02*
X27909523Y-22550057D01*
X27909523Y-22550057D02*
X27957142Y-22645295D01*
X27957142Y-22645295D02*
X27957142Y-22788152D01*
X27957142Y-22788152D02*
X27909523Y-22883390D01*
X27909523Y-22883390D02*
X27861904Y-22931009D01*
X27861904Y-22931009D02*
X27766666Y-22978628D01*
X27766666Y-22978628D02*
X27385714Y-22978628D01*
X28909523Y-23454819D02*
X28338095Y-23454819D01*
X28623809Y-23454819D02*
X28623809Y-22454819D01*
X28623809Y-22454819D02*
X28528571Y-22597676D01*
X28528571Y-22597676D02*
X28433333Y-22692914D01*
X28433333Y-22692914D02*
X28338095Y-22740533D01*
X29242857Y-22454819D02*
X29861904Y-22454819D01*
X29861904Y-22454819D02*
X29528571Y-22835771D01*
X29528571Y-22835771D02*
X29671428Y-22835771D01*
X29671428Y-22835771D02*
X29766666Y-22883390D01*
X29766666Y-22883390D02*
X29814285Y-22931009D01*
X29814285Y-22931009D02*
X29861904Y-23026247D01*
X29861904Y-23026247D02*
X29861904Y-23264342D01*
X29861904Y-23264342D02*
X29814285Y-23359580D01*
X29814285Y-23359580D02*
X29766666Y-23407200D01*
X29766666Y-23407200D02*
X29671428Y-23454819D01*
X29671428Y-23454819D02*
X29385714Y-23454819D01*
X29385714Y-23454819D02*
X29290476Y-23407200D01*
X29290476Y-23407200D02*
X29242857Y-23359580D01*
X22033333Y-28854819D02*
X21700000Y-28378628D01*
X21461905Y-28854819D02*
X21461905Y-27854819D01*
X21461905Y-27854819D02*
X21842857Y-27854819D01*
X21842857Y-27854819D02*
X21938095Y-27902438D01*
X21938095Y-27902438D02*
X21985714Y-27950057D01*
X21985714Y-27950057D02*
X22033333Y-28045295D01*
X22033333Y-28045295D02*
X22033333Y-28188152D01*
X22033333Y-28188152D02*
X21985714Y-28283390D01*
X21985714Y-28283390D02*
X21938095Y-28331009D01*
X21938095Y-28331009D02*
X21842857Y-28378628D01*
X21842857Y-28378628D02*
X21461905Y-28378628D01*
X22890476Y-27854819D02*
X22700000Y-27854819D01*
X22700000Y-27854819D02*
X22604762Y-27902438D01*
X22604762Y-27902438D02*
X22557143Y-27950057D01*
X22557143Y-27950057D02*
X22461905Y-28092914D01*
X22461905Y-28092914D02*
X22414286Y-28283390D01*
X22414286Y-28283390D02*
X22414286Y-28664342D01*
X22414286Y-28664342D02*
X22461905Y-28759580D01*
X22461905Y-28759580D02*
X22509524Y-28807200D01*
X22509524Y-28807200D02*
X22604762Y-28854819D01*
X22604762Y-28854819D02*
X22795238Y-28854819D01*
X22795238Y-28854819D02*
X22890476Y-28807200D01*
X22890476Y-28807200D02*
X22938095Y-28759580D01*
X22938095Y-28759580D02*
X22985714Y-28664342D01*
X22985714Y-28664342D02*
X22985714Y-28426247D01*
X22985714Y-28426247D02*
X22938095Y-28331009D01*
X22938095Y-28331009D02*
X22890476Y-28283390D01*
X22890476Y-28283390D02*
X22795238Y-28235771D01*
X22795238Y-28235771D02*
X22604762Y-28235771D01*
X22604762Y-28235771D02*
X22509524Y-28283390D01*
X22509524Y-28283390D02*
X22461905Y-28331009D01*
X22461905Y-28331009D02*
X22414286Y-28426247D01*
X9533333Y-39854819D02*
X9200000Y-39378628D01*
X8961905Y-39854819D02*
X8961905Y-38854819D01*
X8961905Y-38854819D02*
X9342857Y-38854819D01*
X9342857Y-38854819D02*
X9438095Y-38902438D01*
X9438095Y-38902438D02*
X9485714Y-38950057D01*
X9485714Y-38950057D02*
X9533333Y-39045295D01*
X9533333Y-39045295D02*
X9533333Y-39188152D01*
X9533333Y-39188152D02*
X9485714Y-39283390D01*
X9485714Y-39283390D02*
X9438095Y-39331009D01*
X9438095Y-39331009D02*
X9342857Y-39378628D01*
X9342857Y-39378628D02*
X8961905Y-39378628D01*
X9914286Y-38950057D02*
X9961905Y-38902438D01*
X9961905Y-38902438D02*
X10057143Y-38854819D01*
X10057143Y-38854819D02*
X10295238Y-38854819D01*
X10295238Y-38854819D02*
X10390476Y-38902438D01*
X10390476Y-38902438D02*
X10438095Y-38950057D01*
X10438095Y-38950057D02*
X10485714Y-39045295D01*
X10485714Y-39045295D02*
X10485714Y-39140533D01*
X10485714Y-39140533D02*
X10438095Y-39283390D01*
X10438095Y-39283390D02*
X9866667Y-39854819D01*
X9866667Y-39854819D02*
X10485714Y-39854819D01*
X12857142Y-20954819D02*
X12523809Y-20478628D01*
X12285714Y-20954819D02*
X12285714Y-19954819D01*
X12285714Y-19954819D02*
X12666666Y-19954819D01*
X12666666Y-19954819D02*
X12761904Y-20002438D01*
X12761904Y-20002438D02*
X12809523Y-20050057D01*
X12809523Y-20050057D02*
X12857142Y-20145295D01*
X12857142Y-20145295D02*
X12857142Y-20288152D01*
X12857142Y-20288152D02*
X12809523Y-20383390D01*
X12809523Y-20383390D02*
X12761904Y-20431009D01*
X12761904Y-20431009D02*
X12666666Y-20478628D01*
X12666666Y-20478628D02*
X12285714Y-20478628D01*
X13809523Y-20954819D02*
X13238095Y-20954819D01*
X13523809Y-20954819D02*
X13523809Y-19954819D01*
X13523809Y-19954819D02*
X13428571Y-20097676D01*
X13428571Y-20097676D02*
X13333333Y-20192914D01*
X13333333Y-20192914D02*
X13238095Y-20240533D01*
X14666666Y-20288152D02*
X14666666Y-20954819D01*
X14428571Y-19907200D02*
X14190476Y-20621485D01*
X14190476Y-20621485D02*
X14809523Y-20621485D01*
X76338095Y-49754819D02*
X76338095Y-50564342D01*
X76338095Y-50564342D02*
X76385714Y-50659580D01*
X76385714Y-50659580D02*
X76433333Y-50707200D01*
X76433333Y-50707200D02*
X76528571Y-50754819D01*
X76528571Y-50754819D02*
X76719047Y-50754819D01*
X76719047Y-50754819D02*
X76814285Y-50707200D01*
X76814285Y-50707200D02*
X76861904Y-50659580D01*
X76861904Y-50659580D02*
X76909523Y-50564342D01*
X76909523Y-50564342D02*
X76909523Y-49754819D01*
X77909523Y-50754819D02*
X77338095Y-50754819D01*
X77623809Y-50754819D02*
X77623809Y-49754819D01*
X77623809Y-49754819D02*
X77528571Y-49897676D01*
X77528571Y-49897676D02*
X77433333Y-49992914D01*
X77433333Y-49992914D02*
X77338095Y-50040533D01*
X66025066Y-49619720D02*
X66025066Y-50334005D01*
X66025066Y-50334005D02*
X65977447Y-50476862D01*
X65977447Y-50476862D02*
X65882209Y-50572101D01*
X65882209Y-50572101D02*
X65739352Y-50619720D01*
X65739352Y-50619720D02*
X65644114Y-50619720D01*
X67025066Y-50619720D02*
X66453638Y-50619720D01*
X66739352Y-50619720D02*
X66739352Y-49619720D01*
X66739352Y-49619720D02*
X66644114Y-49762577D01*
X66644114Y-49762577D02*
X66548876Y-49857815D01*
X66548876Y-49857815D02*
X66453638Y-49905434D01*
X8754819Y-28342857D02*
X8278628Y-28676190D01*
X8754819Y-28914285D02*
X7754819Y-28914285D01*
X7754819Y-28914285D02*
X7754819Y-28533333D01*
X7754819Y-28533333D02*
X7802438Y-28438095D01*
X7802438Y-28438095D02*
X7850057Y-28390476D01*
X7850057Y-28390476D02*
X7945295Y-28342857D01*
X7945295Y-28342857D02*
X8088152Y-28342857D01*
X8088152Y-28342857D02*
X8183390Y-28390476D01*
X8183390Y-28390476D02*
X8231009Y-28438095D01*
X8231009Y-28438095D02*
X8278628Y-28533333D01*
X8278628Y-28533333D02*
X8278628Y-28914285D01*
X8754819Y-27390476D02*
X8754819Y-27961904D01*
X8754819Y-27676190D02*
X7754819Y-27676190D01*
X7754819Y-27676190D02*
X7897676Y-27771428D01*
X7897676Y-27771428D02*
X7992914Y-27866666D01*
X7992914Y-27866666D02*
X8040533Y-27961904D01*
X7754819Y-26771428D02*
X7754819Y-26676190D01*
X7754819Y-26676190D02*
X7802438Y-26580952D01*
X7802438Y-26580952D02*
X7850057Y-26533333D01*
X7850057Y-26533333D02*
X7945295Y-26485714D01*
X7945295Y-26485714D02*
X8135771Y-26438095D01*
X8135771Y-26438095D02*
X8373866Y-26438095D01*
X8373866Y-26438095D02*
X8564342Y-26485714D01*
X8564342Y-26485714D02*
X8659580Y-26533333D01*
X8659580Y-26533333D02*
X8707200Y-26580952D01*
X8707200Y-26580952D02*
X8754819Y-26676190D01*
X8754819Y-26676190D02*
X8754819Y-26771428D01*
X8754819Y-26771428D02*
X8707200Y-26866666D01*
X8707200Y-26866666D02*
X8659580Y-26914285D01*
X8659580Y-26914285D02*
X8564342Y-26961904D01*
X8564342Y-26961904D02*
X8373866Y-27009523D01*
X8373866Y-27009523D02*
X8135771Y-27009523D01*
X8135771Y-27009523D02*
X7945295Y-26961904D01*
X7945295Y-26961904D02*
X7850057Y-26914285D01*
X7850057Y-26914285D02*
X7802438Y-26866666D01*
X7802438Y-26866666D02*
X7754819Y-26771428D01*
X25609580Y-2666666D02*
X25657200Y-2714285D01*
X25657200Y-2714285D02*
X25704819Y-2857142D01*
X25704819Y-2857142D02*
X25704819Y-2952380D01*
X25704819Y-2952380D02*
X25657200Y-3095237D01*
X25657200Y-3095237D02*
X25561961Y-3190475D01*
X25561961Y-3190475D02*
X25466723Y-3238094D01*
X25466723Y-3238094D02*
X25276247Y-3285713D01*
X25276247Y-3285713D02*
X25133390Y-3285713D01*
X25133390Y-3285713D02*
X24942914Y-3238094D01*
X24942914Y-3238094D02*
X24847676Y-3190475D01*
X24847676Y-3190475D02*
X24752438Y-3095237D01*
X24752438Y-3095237D02*
X24704819Y-2952380D01*
X24704819Y-2952380D02*
X24704819Y-2857142D01*
X24704819Y-2857142D02*
X24752438Y-2714285D01*
X24752438Y-2714285D02*
X24800057Y-2666666D01*
X25133390Y-2095237D02*
X25085771Y-2190475D01*
X25085771Y-2190475D02*
X25038152Y-2238094D01*
X25038152Y-2238094D02*
X24942914Y-2285713D01*
X24942914Y-2285713D02*
X24895295Y-2285713D01*
X24895295Y-2285713D02*
X24800057Y-2238094D01*
X24800057Y-2238094D02*
X24752438Y-2190475D01*
X24752438Y-2190475D02*
X24704819Y-2095237D01*
X24704819Y-2095237D02*
X24704819Y-1904761D01*
X24704819Y-1904761D02*
X24752438Y-1809523D01*
X24752438Y-1809523D02*
X24800057Y-1761904D01*
X24800057Y-1761904D02*
X24895295Y-1714285D01*
X24895295Y-1714285D02*
X24942914Y-1714285D01*
X24942914Y-1714285D02*
X25038152Y-1761904D01*
X25038152Y-1761904D02*
X25085771Y-1809523D01*
X25085771Y-1809523D02*
X25133390Y-1904761D01*
X25133390Y-1904761D02*
X25133390Y-2095237D01*
X25133390Y-2095237D02*
X25181009Y-2190475D01*
X25181009Y-2190475D02*
X25228628Y-2238094D01*
X25228628Y-2238094D02*
X25323866Y-2285713D01*
X25323866Y-2285713D02*
X25514342Y-2285713D01*
X25514342Y-2285713D02*
X25609580Y-2238094D01*
X25609580Y-2238094D02*
X25657200Y-2190475D01*
X25657200Y-2190475D02*
X25704819Y-2095237D01*
X25704819Y-2095237D02*
X25704819Y-1904761D01*
X25704819Y-1904761D02*
X25657200Y-1809523D01*
X25657200Y-1809523D02*
X25609580Y-1761904D01*
X25609580Y-1761904D02*
X25514342Y-1714285D01*
X25514342Y-1714285D02*
X25323866Y-1714285D01*
X25323866Y-1714285D02*
X25228628Y-1761904D01*
X25228628Y-1761904D02*
X25181009Y-1809523D01*
X25181009Y-1809523D02*
X25133390Y-1904761D01*
X20761905Y-27554819D02*
X20761905Y-26554819D01*
X20761905Y-26554819D02*
X21000000Y-26554819D01*
X21000000Y-26554819D02*
X21142857Y-26602438D01*
X21142857Y-26602438D02*
X21238095Y-26697676D01*
X21238095Y-26697676D02*
X21285714Y-26792914D01*
X21285714Y-26792914D02*
X21333333Y-26983390D01*
X21333333Y-26983390D02*
X21333333Y-27126247D01*
X21333333Y-27126247D02*
X21285714Y-27316723D01*
X21285714Y-27316723D02*
X21238095Y-27411961D01*
X21238095Y-27411961D02*
X21142857Y-27507200D01*
X21142857Y-27507200D02*
X21000000Y-27554819D01*
X21000000Y-27554819D02*
X20761905Y-27554819D01*
X22190476Y-26888152D02*
X22190476Y-27554819D01*
X21952381Y-26507200D02*
X21714286Y-27221485D01*
X21714286Y-27221485D02*
X22333333Y-27221485D01*
X5657142Y-26554819D02*
X5323809Y-26078628D01*
X5085714Y-26554819D02*
X5085714Y-25554819D01*
X5085714Y-25554819D02*
X5466666Y-25554819D01*
X5466666Y-25554819D02*
X5561904Y-25602438D01*
X5561904Y-25602438D02*
X5609523Y-25650057D01*
X5609523Y-25650057D02*
X5657142Y-25745295D01*
X5657142Y-25745295D02*
X5657142Y-25888152D01*
X5657142Y-25888152D02*
X5609523Y-25983390D01*
X5609523Y-25983390D02*
X5561904Y-26031009D01*
X5561904Y-26031009D02*
X5466666Y-26078628D01*
X5466666Y-26078628D02*
X5085714Y-26078628D01*
X6609523Y-26554819D02*
X6038095Y-26554819D01*
X6323809Y-26554819D02*
X6323809Y-25554819D01*
X6323809Y-25554819D02*
X6228571Y-25697676D01*
X6228571Y-25697676D02*
X6133333Y-25792914D01*
X6133333Y-25792914D02*
X6038095Y-25840533D01*
X7561904Y-26554819D02*
X6990476Y-26554819D01*
X7276190Y-26554819D02*
X7276190Y-25554819D01*
X7276190Y-25554819D02*
X7180952Y-25697676D01*
X7180952Y-25697676D02*
X7085714Y-25792914D01*
X7085714Y-25792914D02*
X6990476Y-25840533D01*
X28339580Y-21566666D02*
X28387200Y-21614285D01*
X28387200Y-21614285D02*
X28434819Y-21757142D01*
X28434819Y-21757142D02*
X28434819Y-21852380D01*
X28434819Y-21852380D02*
X28387200Y-21995237D01*
X28387200Y-21995237D02*
X28291961Y-22090475D01*
X28291961Y-22090475D02*
X28196723Y-22138094D01*
X28196723Y-22138094D02*
X28006247Y-22185713D01*
X28006247Y-22185713D02*
X27863390Y-22185713D01*
X27863390Y-22185713D02*
X27672914Y-22138094D01*
X27672914Y-22138094D02*
X27577676Y-22090475D01*
X27577676Y-22090475D02*
X27482438Y-21995237D01*
X27482438Y-21995237D02*
X27434819Y-21852380D01*
X27434819Y-21852380D02*
X27434819Y-21757142D01*
X27434819Y-21757142D02*
X27482438Y-21614285D01*
X27482438Y-21614285D02*
X27530057Y-21566666D01*
X27434819Y-21233332D02*
X27434819Y-20566666D01*
X27434819Y-20566666D02*
X28434819Y-20995237D01*
X35354819Y-6138094D02*
X34354819Y-6138094D01*
X34354819Y-6138094D02*
X34354819Y-5899999D01*
X34354819Y-5899999D02*
X34402438Y-5757142D01*
X34402438Y-5757142D02*
X34497676Y-5661904D01*
X34497676Y-5661904D02*
X34592914Y-5614285D01*
X34592914Y-5614285D02*
X34783390Y-5566666D01*
X34783390Y-5566666D02*
X34926247Y-5566666D01*
X34926247Y-5566666D02*
X35116723Y-5614285D01*
X35116723Y-5614285D02*
X35211961Y-5661904D01*
X35211961Y-5661904D02*
X35307200Y-5757142D01*
X35307200Y-5757142D02*
X35354819Y-5899999D01*
X35354819Y-5899999D02*
X35354819Y-6138094D01*
X35354819Y-4614285D02*
X35354819Y-5185713D01*
X35354819Y-4899999D02*
X34354819Y-4899999D01*
X34354819Y-4899999D02*
X34497676Y-4995237D01*
X34497676Y-4995237D02*
X34592914Y-5090475D01*
X34592914Y-5090475D02*
X34640533Y-5185713D01*
X31338095Y-44854819D02*
X31338095Y-45664342D01*
X31338095Y-45664342D02*
X31385714Y-45759580D01*
X31385714Y-45759580D02*
X31433333Y-45807200D01*
X31433333Y-45807200D02*
X31528571Y-45854819D01*
X31528571Y-45854819D02*
X31719047Y-45854819D01*
X31719047Y-45854819D02*
X31814285Y-45807200D01*
X31814285Y-45807200D02*
X31861904Y-45759580D01*
X31861904Y-45759580D02*
X31909523Y-45664342D01*
X31909523Y-45664342D02*
X31909523Y-44854819D01*
X32290476Y-44854819D02*
X32909523Y-44854819D01*
X32909523Y-44854819D02*
X32576190Y-45235771D01*
X32576190Y-45235771D02*
X32719047Y-45235771D01*
X32719047Y-45235771D02*
X32814285Y-45283390D01*
X32814285Y-45283390D02*
X32861904Y-45331009D01*
X32861904Y-45331009D02*
X32909523Y-45426247D01*
X32909523Y-45426247D02*
X32909523Y-45664342D01*
X32909523Y-45664342D02*
X32861904Y-45759580D01*
X32861904Y-45759580D02*
X32814285Y-45807200D01*
X32814285Y-45807200D02*
X32719047Y-45854819D01*
X32719047Y-45854819D02*
X32433333Y-45854819D01*
X32433333Y-45854819D02*
X32338095Y-45807200D01*
X32338095Y-45807200D02*
X32290476Y-45759580D01*
X9157142Y-22954819D02*
X8823809Y-22478628D01*
X8585714Y-22954819D02*
X8585714Y-21954819D01*
X8585714Y-21954819D02*
X8966666Y-21954819D01*
X8966666Y-21954819D02*
X9061904Y-22002438D01*
X9061904Y-22002438D02*
X9109523Y-22050057D01*
X9109523Y-22050057D02*
X9157142Y-22145295D01*
X9157142Y-22145295D02*
X9157142Y-22288152D01*
X9157142Y-22288152D02*
X9109523Y-22383390D01*
X9109523Y-22383390D02*
X9061904Y-22431009D01*
X9061904Y-22431009D02*
X8966666Y-22478628D01*
X8966666Y-22478628D02*
X8585714Y-22478628D01*
X10109523Y-22954819D02*
X9538095Y-22954819D01*
X9823809Y-22954819D02*
X9823809Y-21954819D01*
X9823809Y-21954819D02*
X9728571Y-22097676D01*
X9728571Y-22097676D02*
X9633333Y-22192914D01*
X9633333Y-22192914D02*
X9538095Y-22240533D01*
X11014285Y-21954819D02*
X10538095Y-21954819D01*
X10538095Y-21954819D02*
X10490476Y-22431009D01*
X10490476Y-22431009D02*
X10538095Y-22383390D01*
X10538095Y-22383390D02*
X10633333Y-22335771D01*
X10633333Y-22335771D02*
X10871428Y-22335771D01*
X10871428Y-22335771D02*
X10966666Y-22383390D01*
X10966666Y-22383390D02*
X11014285Y-22431009D01*
X11014285Y-22431009D02*
X11061904Y-22526247D01*
X11061904Y-22526247D02*
X11061904Y-22764342D01*
X11061904Y-22764342D02*
X11014285Y-22859580D01*
X11014285Y-22859580D02*
X10966666Y-22907200D01*
X10966666Y-22907200D02*
X10871428Y-22954819D01*
X10871428Y-22954819D02*
X10633333Y-22954819D01*
X10633333Y-22954819D02*
X10538095Y-22907200D01*
X10538095Y-22907200D02*
X10490476Y-22859580D01*
X48531009Y-4533333D02*
X48531009Y-4866666D01*
X49054819Y-4866666D02*
X48054819Y-4866666D01*
X48054819Y-4866666D02*
X48054819Y-4390476D01*
X49054819Y-3485714D02*
X49054819Y-4057142D01*
X49054819Y-3771428D02*
X48054819Y-3771428D01*
X48054819Y-3771428D02*
X48197676Y-3866666D01*
X48197676Y-3866666D02*
X48292914Y-3961904D01*
X48292914Y-3961904D02*
X48340533Y-4057142D01*
X28933333Y-14159580D02*
X28885714Y-14207200D01*
X28885714Y-14207200D02*
X28742857Y-14254819D01*
X28742857Y-14254819D02*
X28647619Y-14254819D01*
X28647619Y-14254819D02*
X28504762Y-14207200D01*
X28504762Y-14207200D02*
X28409524Y-14111961D01*
X28409524Y-14111961D02*
X28361905Y-14016723D01*
X28361905Y-14016723D02*
X28314286Y-13826247D01*
X28314286Y-13826247D02*
X28314286Y-13683390D01*
X28314286Y-13683390D02*
X28361905Y-13492914D01*
X28361905Y-13492914D02*
X28409524Y-13397676D01*
X28409524Y-13397676D02*
X28504762Y-13302438D01*
X28504762Y-13302438D02*
X28647619Y-13254819D01*
X28647619Y-13254819D02*
X28742857Y-13254819D01*
X28742857Y-13254819D02*
X28885714Y-13302438D01*
X28885714Y-13302438D02*
X28933333Y-13350057D01*
X29885714Y-14254819D02*
X29314286Y-14254819D01*
X29600000Y-14254819D02*
X29600000Y-13254819D01*
X29600000Y-13254819D02*
X29504762Y-13397676D01*
X29504762Y-13397676D02*
X29409524Y-13492914D01*
X29409524Y-13492914D02*
X29314286Y-13540533D01*
X32107200Y-11233332D02*
X32154819Y-11090475D01*
X32154819Y-11090475D02*
X32154819Y-10852380D01*
X32154819Y-10852380D02*
X32107200Y-10757142D01*
X32107200Y-10757142D02*
X32059580Y-10709523D01*
X32059580Y-10709523D02*
X31964342Y-10661904D01*
X31964342Y-10661904D02*
X31869104Y-10661904D01*
X31869104Y-10661904D02*
X31773866Y-10709523D01*
X31773866Y-10709523D02*
X31726247Y-10757142D01*
X31726247Y-10757142D02*
X31678628Y-10852380D01*
X31678628Y-10852380D02*
X31631009Y-11042856D01*
X31631009Y-11042856D02*
X31583390Y-11138094D01*
X31583390Y-11138094D02*
X31535771Y-11185713D01*
X31535771Y-11185713D02*
X31440533Y-11233332D01*
X31440533Y-11233332D02*
X31345295Y-11233332D01*
X31345295Y-11233332D02*
X31250057Y-11185713D01*
X31250057Y-11185713D02*
X31202438Y-11138094D01*
X31202438Y-11138094D02*
X31154819Y-11042856D01*
X31154819Y-11042856D02*
X31154819Y-10804761D01*
X31154819Y-10804761D02*
X31202438Y-10661904D01*
X31154819Y-10328570D02*
X32154819Y-10090475D01*
X32154819Y-10090475D02*
X31440533Y-9899999D01*
X31440533Y-9899999D02*
X32154819Y-9709523D01*
X32154819Y-9709523D02*
X31154819Y-9471428D01*
X32154819Y-8566666D02*
X32154819Y-9138094D01*
X32154819Y-8852380D02*
X31154819Y-8852380D01*
X31154819Y-8852380D02*
X31297676Y-8947618D01*
X31297676Y-8947618D02*
X31392914Y-9042856D01*
X31392914Y-9042856D02*
X31440533Y-9138094D01*
X5304761Y-41750057D02*
X5209523Y-41702438D01*
X5209523Y-41702438D02*
X5114285Y-41607200D01*
X5114285Y-41607200D02*
X4971428Y-41464342D01*
X4971428Y-41464342D02*
X4876190Y-41416723D01*
X4876190Y-41416723D02*
X4780952Y-41416723D01*
X4828571Y-41654819D02*
X4733333Y-41607200D01*
X4733333Y-41607200D02*
X4638095Y-41511961D01*
X4638095Y-41511961D02*
X4590476Y-41321485D01*
X4590476Y-41321485D02*
X4590476Y-40988152D01*
X4590476Y-40988152D02*
X4638095Y-40797676D01*
X4638095Y-40797676D02*
X4733333Y-40702438D01*
X4733333Y-40702438D02*
X4828571Y-40654819D01*
X4828571Y-40654819D02*
X5019047Y-40654819D01*
X5019047Y-40654819D02*
X5114285Y-40702438D01*
X5114285Y-40702438D02*
X5209523Y-40797676D01*
X5209523Y-40797676D02*
X5257142Y-40988152D01*
X5257142Y-40988152D02*
X5257142Y-41321485D01*
X5257142Y-41321485D02*
X5209523Y-41511961D01*
X5209523Y-41511961D02*
X5114285Y-41607200D01*
X5114285Y-41607200D02*
X5019047Y-41654819D01*
X5019047Y-41654819D02*
X4828571Y-41654819D01*
X6209523Y-41654819D02*
X5638095Y-41654819D01*
X5923809Y-41654819D02*
X5923809Y-40654819D01*
X5923809Y-40654819D02*
X5828571Y-40797676D01*
X5828571Y-40797676D02*
X5733333Y-40892914D01*
X5733333Y-40892914D02*
X5638095Y-40940533D01*
X25433333Y-33259580D02*
X25385714Y-33307200D01*
X25385714Y-33307200D02*
X25242857Y-33354819D01*
X25242857Y-33354819D02*
X25147619Y-33354819D01*
X25147619Y-33354819D02*
X25004762Y-33307200D01*
X25004762Y-33307200D02*
X24909524Y-33211961D01*
X24909524Y-33211961D02*
X24861905Y-33116723D01*
X24861905Y-33116723D02*
X24814286Y-32926247D01*
X24814286Y-32926247D02*
X24814286Y-32783390D01*
X24814286Y-32783390D02*
X24861905Y-32592914D01*
X24861905Y-32592914D02*
X24909524Y-32497676D01*
X24909524Y-32497676D02*
X25004762Y-32402438D01*
X25004762Y-32402438D02*
X25147619Y-32354819D01*
X25147619Y-32354819D02*
X25242857Y-32354819D01*
X25242857Y-32354819D02*
X25385714Y-32402438D01*
X25385714Y-32402438D02*
X25433333Y-32450057D01*
X26338095Y-32354819D02*
X25861905Y-32354819D01*
X25861905Y-32354819D02*
X25814286Y-32831009D01*
X25814286Y-32831009D02*
X25861905Y-32783390D01*
X25861905Y-32783390D02*
X25957143Y-32735771D01*
X25957143Y-32735771D02*
X26195238Y-32735771D01*
X26195238Y-32735771D02*
X26290476Y-32783390D01*
X26290476Y-32783390D02*
X26338095Y-32831009D01*
X26338095Y-32831009D02*
X26385714Y-32926247D01*
X26385714Y-32926247D02*
X26385714Y-33164342D01*
X26385714Y-33164342D02*
X26338095Y-33259580D01*
X26338095Y-33259580D02*
X26290476Y-33307200D01*
X26290476Y-33307200D02*
X26195238Y-33354819D01*
X26195238Y-33354819D02*
X25957143Y-33354819D01*
X25957143Y-33354819D02*
X25861905Y-33307200D01*
X25861905Y-33307200D02*
X25814286Y-33259580D01*
X11633333Y-38454819D02*
X11300000Y-37978628D01*
X11061905Y-38454819D02*
X11061905Y-37454819D01*
X11061905Y-37454819D02*
X11442857Y-37454819D01*
X11442857Y-37454819D02*
X11538095Y-37502438D01*
X11538095Y-37502438D02*
X11585714Y-37550057D01*
X11585714Y-37550057D02*
X11633333Y-37645295D01*
X11633333Y-37645295D02*
X11633333Y-37788152D01*
X11633333Y-37788152D02*
X11585714Y-37883390D01*
X11585714Y-37883390D02*
X11538095Y-37931009D01*
X11538095Y-37931009D02*
X11442857Y-37978628D01*
X11442857Y-37978628D02*
X11061905Y-37978628D01*
X12538095Y-37454819D02*
X12061905Y-37454819D01*
X12061905Y-37454819D02*
X12014286Y-37931009D01*
X12014286Y-37931009D02*
X12061905Y-37883390D01*
X12061905Y-37883390D02*
X12157143Y-37835771D01*
X12157143Y-37835771D02*
X12395238Y-37835771D01*
X12395238Y-37835771D02*
X12490476Y-37883390D01*
X12490476Y-37883390D02*
X12538095Y-37931009D01*
X12538095Y-37931009D02*
X12585714Y-38026247D01*
X12585714Y-38026247D02*
X12585714Y-38264342D01*
X12585714Y-38264342D02*
X12538095Y-38359580D01*
X12538095Y-38359580D02*
X12490476Y-38407200D01*
X12490476Y-38407200D02*
X12395238Y-38454819D01*
X12395238Y-38454819D02*
X12157143Y-38454819D01*
X12157143Y-38454819D02*
X12061905Y-38407200D01*
X12061905Y-38407200D02*
X12014286Y-38359580D01*
X18917653Y-47630912D02*
X19060736Y-47678607D01*
X19060736Y-47678607D02*
X19108430Y-47726301D01*
X19108430Y-47726301D02*
X19156125Y-47821690D01*
X19156125Y-47821690D02*
X19156125Y-47964773D01*
X19156125Y-47964773D02*
X19108430Y-48060162D01*
X19108430Y-48060162D02*
X19060736Y-48107857D01*
X19060736Y-48107857D02*
X18965347Y-48155551D01*
X18965347Y-48155551D02*
X18583792Y-48155551D01*
X18583792Y-48155551D02*
X18583792Y-47153968D01*
X18583792Y-47153968D02*
X18917653Y-47153968D01*
X18917653Y-47153968D02*
X19013042Y-47201662D01*
X19013042Y-47201662D02*
X19060736Y-47249357D01*
X19060736Y-47249357D02*
X19108430Y-47344746D01*
X19108430Y-47344746D02*
X19108430Y-47440135D01*
X19108430Y-47440135D02*
X19060736Y-47535523D01*
X19060736Y-47535523D02*
X19013042Y-47583218D01*
X19013042Y-47583218D02*
X18917653Y-47630912D01*
X18917653Y-47630912D02*
X18583792Y-47630912D01*
X19489986Y-47153968D02*
X20157708Y-47153968D01*
X20157708Y-47153968D02*
X19489986Y-48155551D01*
X19489986Y-48155551D02*
X20157708Y-48155551D01*
X21063902Y-48155551D02*
X20491569Y-48155551D01*
X20777736Y-48155551D02*
X20777736Y-47153968D01*
X20777736Y-47153968D02*
X20682347Y-47297051D01*
X20682347Y-47297051D02*
X20586958Y-47392440D01*
X20586958Y-47392440D02*
X20491569Y-47440135D01*
X43066666Y-57554819D02*
X43066666Y-58269104D01*
X43066666Y-58269104D02*
X43019047Y-58411961D01*
X43019047Y-58411961D02*
X42923809Y-58507200D01*
X42923809Y-58507200D02*
X42780952Y-58554819D01*
X42780952Y-58554819D02*
X42685714Y-58554819D01*
X43447619Y-57554819D02*
X44066666Y-57554819D01*
X44066666Y-57554819D02*
X43733333Y-57935771D01*
X43733333Y-57935771D02*
X43876190Y-57935771D01*
X43876190Y-57935771D02*
X43971428Y-57983390D01*
X43971428Y-57983390D02*
X44019047Y-58031009D01*
X44019047Y-58031009D02*
X44066666Y-58126247D01*
X44066666Y-58126247D02*
X44066666Y-58364342D01*
X44066666Y-58364342D02*
X44019047Y-58459580D01*
X44019047Y-58459580D02*
X43971428Y-58507200D01*
X43971428Y-58507200D02*
X43876190Y-58554819D01*
X43876190Y-58554819D02*
X43590476Y-58554819D01*
X43590476Y-58554819D02*
X43495238Y-58507200D01*
X43495238Y-58507200D02*
X43447619Y-58459580D01*
X17354819Y-40442857D02*
X16878628Y-40776190D01*
X17354819Y-41014285D02*
X16354819Y-41014285D01*
X16354819Y-41014285D02*
X16354819Y-40633333D01*
X16354819Y-40633333D02*
X16402438Y-40538095D01*
X16402438Y-40538095D02*
X16450057Y-40490476D01*
X16450057Y-40490476D02*
X16545295Y-40442857D01*
X16545295Y-40442857D02*
X16688152Y-40442857D01*
X16688152Y-40442857D02*
X16783390Y-40490476D01*
X16783390Y-40490476D02*
X16831009Y-40538095D01*
X16831009Y-40538095D02*
X16878628Y-40633333D01*
X16878628Y-40633333D02*
X16878628Y-41014285D01*
X17354819Y-39490476D02*
X17354819Y-40061904D01*
X17354819Y-39776190D02*
X16354819Y-39776190D01*
X16354819Y-39776190D02*
X16497676Y-39871428D01*
X16497676Y-39871428D02*
X16592914Y-39966666D01*
X16592914Y-39966666D02*
X16640533Y-40061904D01*
X16783390Y-38919047D02*
X16735771Y-39014285D01*
X16735771Y-39014285D02*
X16688152Y-39061904D01*
X16688152Y-39061904D02*
X16592914Y-39109523D01*
X16592914Y-39109523D02*
X16545295Y-39109523D01*
X16545295Y-39109523D02*
X16450057Y-39061904D01*
X16450057Y-39061904D02*
X16402438Y-39014285D01*
X16402438Y-39014285D02*
X16354819Y-38919047D01*
X16354819Y-38919047D02*
X16354819Y-38728571D01*
X16354819Y-38728571D02*
X16402438Y-38633333D01*
X16402438Y-38633333D02*
X16450057Y-38585714D01*
X16450057Y-38585714D02*
X16545295Y-38538095D01*
X16545295Y-38538095D02*
X16592914Y-38538095D01*
X16592914Y-38538095D02*
X16688152Y-38585714D01*
X16688152Y-38585714D02*
X16735771Y-38633333D01*
X16735771Y-38633333D02*
X16783390Y-38728571D01*
X16783390Y-38728571D02*
X16783390Y-38919047D01*
X16783390Y-38919047D02*
X16831009Y-39014285D01*
X16831009Y-39014285D02*
X16878628Y-39061904D01*
X16878628Y-39061904D02*
X16973866Y-39109523D01*
X16973866Y-39109523D02*
X17164342Y-39109523D01*
X17164342Y-39109523D02*
X17259580Y-39061904D01*
X17259580Y-39061904D02*
X17307200Y-39014285D01*
X17307200Y-39014285D02*
X17354819Y-38919047D01*
X17354819Y-38919047D02*
X17354819Y-38728571D01*
X17354819Y-38728571D02*
X17307200Y-38633333D01*
X17307200Y-38633333D02*
X17259580Y-38585714D01*
X17259580Y-38585714D02*
X17164342Y-38538095D01*
X17164342Y-38538095D02*
X16973866Y-38538095D01*
X16973866Y-38538095D02*
X16878628Y-38585714D01*
X16878628Y-38585714D02*
X16831009Y-38633333D01*
X16831009Y-38633333D02*
X16783390Y-38728571D01*
X57661905Y-57154819D02*
X57661905Y-56154819D01*
X57661905Y-56154819D02*
X57900000Y-56154819D01*
X57900000Y-56154819D02*
X58042857Y-56202438D01*
X58042857Y-56202438D02*
X58138095Y-56297676D01*
X58138095Y-56297676D02*
X58185714Y-56392914D01*
X58185714Y-56392914D02*
X58233333Y-56583390D01*
X58233333Y-56583390D02*
X58233333Y-56726247D01*
X58233333Y-56726247D02*
X58185714Y-56916723D01*
X58185714Y-56916723D02*
X58138095Y-57011961D01*
X58138095Y-57011961D02*
X58042857Y-57107200D01*
X58042857Y-57107200D02*
X57900000Y-57154819D01*
X57900000Y-57154819D02*
X57661905Y-57154819D01*
X58614286Y-56250057D02*
X58661905Y-56202438D01*
X58661905Y-56202438D02*
X58757143Y-56154819D01*
X58757143Y-56154819D02*
X58995238Y-56154819D01*
X58995238Y-56154819D02*
X59090476Y-56202438D01*
X59090476Y-56202438D02*
X59138095Y-56250057D01*
X59138095Y-56250057D02*
X59185714Y-56345295D01*
X59185714Y-56345295D02*
X59185714Y-56440533D01*
X59185714Y-56440533D02*
X59138095Y-56583390D01*
X59138095Y-56583390D02*
X58566667Y-57154819D01*
X58566667Y-57154819D02*
X59185714Y-57154819D01*
X25261905Y-23454819D02*
X25261905Y-22454819D01*
X25261905Y-22454819D02*
X25500000Y-22454819D01*
X25500000Y-22454819D02*
X25642857Y-22502438D01*
X25642857Y-22502438D02*
X25738095Y-22597676D01*
X25738095Y-22597676D02*
X25785714Y-22692914D01*
X25785714Y-22692914D02*
X25833333Y-22883390D01*
X25833333Y-22883390D02*
X25833333Y-23026247D01*
X25833333Y-23026247D02*
X25785714Y-23216723D01*
X25785714Y-23216723D02*
X25738095Y-23311961D01*
X25738095Y-23311961D02*
X25642857Y-23407200D01*
X25642857Y-23407200D02*
X25500000Y-23454819D01*
X25500000Y-23454819D02*
X25261905Y-23454819D01*
X26738095Y-22454819D02*
X26261905Y-22454819D01*
X26261905Y-22454819D02*
X26214286Y-22931009D01*
X26214286Y-22931009D02*
X26261905Y-22883390D01*
X26261905Y-22883390D02*
X26357143Y-22835771D01*
X26357143Y-22835771D02*
X26595238Y-22835771D01*
X26595238Y-22835771D02*
X26690476Y-22883390D01*
X26690476Y-22883390D02*
X26738095Y-22931009D01*
X26738095Y-22931009D02*
X26785714Y-23026247D01*
X26785714Y-23026247D02*
X26785714Y-23264342D01*
X26785714Y-23264342D02*
X26738095Y-23359580D01*
X26738095Y-23359580D02*
X26690476Y-23407200D01*
X26690476Y-23407200D02*
X26595238Y-23454819D01*
X26595238Y-23454819D02*
X26357143Y-23454819D01*
X26357143Y-23454819D02*
X26261905Y-23407200D01*
X26261905Y-23407200D02*
X26214286Y-23359580D01*
X9533333Y-38454819D02*
X9200000Y-37978628D01*
X8961905Y-38454819D02*
X8961905Y-37454819D01*
X8961905Y-37454819D02*
X9342857Y-37454819D01*
X9342857Y-37454819D02*
X9438095Y-37502438D01*
X9438095Y-37502438D02*
X9485714Y-37550057D01*
X9485714Y-37550057D02*
X9533333Y-37645295D01*
X9533333Y-37645295D02*
X9533333Y-37788152D01*
X9533333Y-37788152D02*
X9485714Y-37883390D01*
X9485714Y-37883390D02*
X9438095Y-37931009D01*
X9438095Y-37931009D02*
X9342857Y-37978628D01*
X9342857Y-37978628D02*
X8961905Y-37978628D01*
X10390476Y-37788152D02*
X10390476Y-38454819D01*
X10152381Y-37407200D02*
X9914286Y-38121485D01*
X9914286Y-38121485D02*
X10533333Y-38121485D01*
X22033333Y-25459580D02*
X21985714Y-25507200D01*
X21985714Y-25507200D02*
X21842857Y-25554819D01*
X21842857Y-25554819D02*
X21747619Y-25554819D01*
X21747619Y-25554819D02*
X21604762Y-25507200D01*
X21604762Y-25507200D02*
X21509524Y-25411961D01*
X21509524Y-25411961D02*
X21461905Y-25316723D01*
X21461905Y-25316723D02*
X21414286Y-25126247D01*
X21414286Y-25126247D02*
X21414286Y-24983390D01*
X21414286Y-24983390D02*
X21461905Y-24792914D01*
X21461905Y-24792914D02*
X21509524Y-24697676D01*
X21509524Y-24697676D02*
X21604762Y-24602438D01*
X21604762Y-24602438D02*
X21747619Y-24554819D01*
X21747619Y-24554819D02*
X21842857Y-24554819D01*
X21842857Y-24554819D02*
X21985714Y-24602438D01*
X21985714Y-24602438D02*
X22033333Y-24650057D01*
X22890476Y-24554819D02*
X22700000Y-24554819D01*
X22700000Y-24554819D02*
X22604762Y-24602438D01*
X22604762Y-24602438D02*
X22557143Y-24650057D01*
X22557143Y-24650057D02*
X22461905Y-24792914D01*
X22461905Y-24792914D02*
X22414286Y-24983390D01*
X22414286Y-24983390D02*
X22414286Y-25364342D01*
X22414286Y-25364342D02*
X22461905Y-25459580D01*
X22461905Y-25459580D02*
X22509524Y-25507200D01*
X22509524Y-25507200D02*
X22604762Y-25554819D01*
X22604762Y-25554819D02*
X22795238Y-25554819D01*
X22795238Y-25554819D02*
X22890476Y-25507200D01*
X22890476Y-25507200D02*
X22938095Y-25459580D01*
X22938095Y-25459580D02*
X22985714Y-25364342D01*
X22985714Y-25364342D02*
X22985714Y-25126247D01*
X22985714Y-25126247D02*
X22938095Y-25031009D01*
X22938095Y-25031009D02*
X22890476Y-24983390D01*
X22890476Y-24983390D02*
X22795238Y-24935771D01*
X22795238Y-24935771D02*
X22604762Y-24935771D01*
X22604762Y-24935771D02*
X22509524Y-24983390D01*
X22509524Y-24983390D02*
X22461905Y-25031009D01*
X22461905Y-25031009D02*
X22414286Y-25126247D01*
X15333333Y-38354819D02*
X15000000Y-37878628D01*
X14761905Y-38354819D02*
X14761905Y-37354819D01*
X14761905Y-37354819D02*
X15142857Y-37354819D01*
X15142857Y-37354819D02*
X15238095Y-37402438D01*
X15238095Y-37402438D02*
X15285714Y-37450057D01*
X15285714Y-37450057D02*
X15333333Y-37545295D01*
X15333333Y-37545295D02*
X15333333Y-37688152D01*
X15333333Y-37688152D02*
X15285714Y-37783390D01*
X15285714Y-37783390D02*
X15238095Y-37831009D01*
X15238095Y-37831009D02*
X15142857Y-37878628D01*
X15142857Y-37878628D02*
X14761905Y-37878628D01*
X15666667Y-37354819D02*
X16333333Y-37354819D01*
X16333333Y-37354819D02*
X15904762Y-38354819D01*
X5233333Y-43054819D02*
X4900000Y-42578628D01*
X4661905Y-43054819D02*
X4661905Y-42054819D01*
X4661905Y-42054819D02*
X5042857Y-42054819D01*
X5042857Y-42054819D02*
X5138095Y-42102438D01*
X5138095Y-42102438D02*
X5185714Y-42150057D01*
X5185714Y-42150057D02*
X5233333Y-42245295D01*
X5233333Y-42245295D02*
X5233333Y-42388152D01*
X5233333Y-42388152D02*
X5185714Y-42483390D01*
X5185714Y-42483390D02*
X5138095Y-42531009D01*
X5138095Y-42531009D02*
X5042857Y-42578628D01*
X5042857Y-42578628D02*
X4661905Y-42578628D01*
X5804762Y-42483390D02*
X5709524Y-42435771D01*
X5709524Y-42435771D02*
X5661905Y-42388152D01*
X5661905Y-42388152D02*
X5614286Y-42292914D01*
X5614286Y-42292914D02*
X5614286Y-42245295D01*
X5614286Y-42245295D02*
X5661905Y-42150057D01*
X5661905Y-42150057D02*
X5709524Y-42102438D01*
X5709524Y-42102438D02*
X5804762Y-42054819D01*
X5804762Y-42054819D02*
X5995238Y-42054819D01*
X5995238Y-42054819D02*
X6090476Y-42102438D01*
X6090476Y-42102438D02*
X6138095Y-42150057D01*
X6138095Y-42150057D02*
X6185714Y-42245295D01*
X6185714Y-42245295D02*
X6185714Y-42292914D01*
X6185714Y-42292914D02*
X6138095Y-42388152D01*
X6138095Y-42388152D02*
X6090476Y-42435771D01*
X6090476Y-42435771D02*
X5995238Y-42483390D01*
X5995238Y-42483390D02*
X5804762Y-42483390D01*
X5804762Y-42483390D02*
X5709524Y-42531009D01*
X5709524Y-42531009D02*
X5661905Y-42578628D01*
X5661905Y-42578628D02*
X5614286Y-42673866D01*
X5614286Y-42673866D02*
X5614286Y-42864342D01*
X5614286Y-42864342D02*
X5661905Y-42959580D01*
X5661905Y-42959580D02*
X5709524Y-43007200D01*
X5709524Y-43007200D02*
X5804762Y-43054819D01*
X5804762Y-43054819D02*
X5995238Y-43054819D01*
X5995238Y-43054819D02*
X6090476Y-43007200D01*
X6090476Y-43007200D02*
X6138095Y-42959580D01*
X6138095Y-42959580D02*
X6185714Y-42864342D01*
X6185714Y-42864342D02*
X6185714Y-42673866D01*
X6185714Y-42673866D02*
X6138095Y-42578628D01*
X6138095Y-42578628D02*
X6090476Y-42531009D01*
X6090476Y-42531009D02*
X5995238Y-42483390D01*
X17538095Y-35154819D02*
X17538095Y-35964342D01*
X17538095Y-35964342D02*
X17585714Y-36059580D01*
X17585714Y-36059580D02*
X17633333Y-36107200D01*
X17633333Y-36107200D02*
X17728571Y-36154819D01*
X17728571Y-36154819D02*
X17919047Y-36154819D01*
X17919047Y-36154819D02*
X18014285Y-36107200D01*
X18014285Y-36107200D02*
X18061904Y-36059580D01*
X18061904Y-36059580D02*
X18109523Y-35964342D01*
X18109523Y-35964342D02*
X18109523Y-35154819D01*
X19061904Y-35154819D02*
X18585714Y-35154819D01*
X18585714Y-35154819D02*
X18538095Y-35631009D01*
X18538095Y-35631009D02*
X18585714Y-35583390D01*
X18585714Y-35583390D02*
X18680952Y-35535771D01*
X18680952Y-35535771D02*
X18919047Y-35535771D01*
X18919047Y-35535771D02*
X19014285Y-35583390D01*
X19014285Y-35583390D02*
X19061904Y-35631009D01*
X19061904Y-35631009D02*
X19109523Y-35726247D01*
X19109523Y-35726247D02*
X19109523Y-35964342D01*
X19109523Y-35964342D02*
X19061904Y-36059580D01*
X19061904Y-36059580D02*
X19014285Y-36107200D01*
X19014285Y-36107200D02*
X18919047Y-36154819D01*
X18919047Y-36154819D02*
X18680952Y-36154819D01*
X18680952Y-36154819D02*
X18585714Y-36107200D01*
X18585714Y-36107200D02*
X18538095Y-36059580D01*
X31933333Y-47959580D02*
X31885714Y-48007200D01*
X31885714Y-48007200D02*
X31742857Y-48054819D01*
X31742857Y-48054819D02*
X31647619Y-48054819D01*
X31647619Y-48054819D02*
X31504762Y-48007200D01*
X31504762Y-48007200D02*
X31409524Y-47911961D01*
X31409524Y-47911961D02*
X31361905Y-47816723D01*
X31361905Y-47816723D02*
X31314286Y-47626247D01*
X31314286Y-47626247D02*
X31314286Y-47483390D01*
X31314286Y-47483390D02*
X31361905Y-47292914D01*
X31361905Y-47292914D02*
X31409524Y-47197676D01*
X31409524Y-47197676D02*
X31504762Y-47102438D01*
X31504762Y-47102438D02*
X31647619Y-47054819D01*
X31647619Y-47054819D02*
X31742857Y-47054819D01*
X31742857Y-47054819D02*
X31885714Y-47102438D01*
X31885714Y-47102438D02*
X31933333Y-47150057D01*
X32790476Y-47388152D02*
X32790476Y-48054819D01*
X32552381Y-47007200D02*
X32314286Y-47721485D01*
X32314286Y-47721485D02*
X32933333Y-47721485D01*
X60533333Y-57254819D02*
X60200000Y-56778628D01*
X59961905Y-57254819D02*
X59961905Y-56254819D01*
X59961905Y-56254819D02*
X60342857Y-56254819D01*
X60342857Y-56254819D02*
X60438095Y-56302438D01*
X60438095Y-56302438D02*
X60485714Y-56350057D01*
X60485714Y-56350057D02*
X60533333Y-56445295D01*
X60533333Y-56445295D02*
X60533333Y-56588152D01*
X60533333Y-56588152D02*
X60485714Y-56683390D01*
X60485714Y-56683390D02*
X60438095Y-56731009D01*
X60438095Y-56731009D02*
X60342857Y-56778628D01*
X60342857Y-56778628D02*
X59961905Y-56778628D01*
X61485714Y-57254819D02*
X60914286Y-57254819D01*
X61200000Y-57254819D02*
X61200000Y-56254819D01*
X61200000Y-56254819D02*
X61104762Y-56397676D01*
X61104762Y-56397676D02*
X61009524Y-56492914D01*
X61009524Y-56492914D02*
X60914286Y-56540533D01*
X5304761Y-44650057D02*
X5209523Y-44602438D01*
X5209523Y-44602438D02*
X5114285Y-44507200D01*
X5114285Y-44507200D02*
X4971428Y-44364342D01*
X4971428Y-44364342D02*
X4876190Y-44316723D01*
X4876190Y-44316723D02*
X4780952Y-44316723D01*
X4828571Y-44554819D02*
X4733333Y-44507200D01*
X4733333Y-44507200D02*
X4638095Y-44411961D01*
X4638095Y-44411961D02*
X4590476Y-44221485D01*
X4590476Y-44221485D02*
X4590476Y-43888152D01*
X4590476Y-43888152D02*
X4638095Y-43697676D01*
X4638095Y-43697676D02*
X4733333Y-43602438D01*
X4733333Y-43602438D02*
X4828571Y-43554819D01*
X4828571Y-43554819D02*
X5019047Y-43554819D01*
X5019047Y-43554819D02*
X5114285Y-43602438D01*
X5114285Y-43602438D02*
X5209523Y-43697676D01*
X5209523Y-43697676D02*
X5257142Y-43888152D01*
X5257142Y-43888152D02*
X5257142Y-44221485D01*
X5257142Y-44221485D02*
X5209523Y-44411961D01*
X5209523Y-44411961D02*
X5114285Y-44507200D01*
X5114285Y-44507200D02*
X5019047Y-44554819D01*
X5019047Y-44554819D02*
X4828571Y-44554819D01*
X5638095Y-43650057D02*
X5685714Y-43602438D01*
X5685714Y-43602438D02*
X5780952Y-43554819D01*
X5780952Y-43554819D02*
X6019047Y-43554819D01*
X6019047Y-43554819D02*
X6114285Y-43602438D01*
X6114285Y-43602438D02*
X6161904Y-43650057D01*
X6161904Y-43650057D02*
X6209523Y-43745295D01*
X6209523Y-43745295D02*
X6209523Y-43840533D01*
X6209523Y-43840533D02*
X6161904Y-43983390D01*
X6161904Y-43983390D02*
X5590476Y-44554819D01*
X5590476Y-44554819D02*
X6209523Y-44554819D01*
X4404819Y-20842857D02*
X3928628Y-21176190D01*
X4404819Y-21414285D02*
X3404819Y-21414285D01*
X3404819Y-21414285D02*
X3404819Y-21033333D01*
X3404819Y-21033333D02*
X3452438Y-20938095D01*
X3452438Y-20938095D02*
X3500057Y-20890476D01*
X3500057Y-20890476D02*
X3595295Y-20842857D01*
X3595295Y-20842857D02*
X3738152Y-20842857D01*
X3738152Y-20842857D02*
X3833390Y-20890476D01*
X3833390Y-20890476D02*
X3881009Y-20938095D01*
X3881009Y-20938095D02*
X3928628Y-21033333D01*
X3928628Y-21033333D02*
X3928628Y-21414285D01*
X4404819Y-19890476D02*
X4404819Y-20461904D01*
X4404819Y-20176190D02*
X3404819Y-20176190D01*
X3404819Y-20176190D02*
X3547676Y-20271428D01*
X3547676Y-20271428D02*
X3642914Y-20366666D01*
X3642914Y-20366666D02*
X3690533Y-20461904D01*
X3500057Y-19509523D02*
X3452438Y-19461904D01*
X3452438Y-19461904D02*
X3404819Y-19366666D01*
X3404819Y-19366666D02*
X3404819Y-19128571D01*
X3404819Y-19128571D02*
X3452438Y-19033333D01*
X3452438Y-19033333D02*
X3500057Y-18985714D01*
X3500057Y-18985714D02*
X3595295Y-18938095D01*
X3595295Y-18938095D02*
X3690533Y-18938095D01*
X3690533Y-18938095D02*
X3833390Y-18985714D01*
X3833390Y-18985714D02*
X4404819Y-19557142D01*
X4404819Y-19557142D02*
X4404819Y-18938095D01*
X41633333Y-48059580D02*
X41585714Y-48107200D01*
X41585714Y-48107200D02*
X41442857Y-48154819D01*
X41442857Y-48154819D02*
X41347619Y-48154819D01*
X41347619Y-48154819D02*
X41204762Y-48107200D01*
X41204762Y-48107200D02*
X41109524Y-48011961D01*
X41109524Y-48011961D02*
X41061905Y-47916723D01*
X41061905Y-47916723D02*
X41014286Y-47726247D01*
X41014286Y-47726247D02*
X41014286Y-47583390D01*
X41014286Y-47583390D02*
X41061905Y-47392914D01*
X41061905Y-47392914D02*
X41109524Y-47297676D01*
X41109524Y-47297676D02*
X41204762Y-47202438D01*
X41204762Y-47202438D02*
X41347619Y-47154819D01*
X41347619Y-47154819D02*
X41442857Y-47154819D01*
X41442857Y-47154819D02*
X41585714Y-47202438D01*
X41585714Y-47202438D02*
X41633333Y-47250057D01*
X41966667Y-47154819D02*
X42585714Y-47154819D01*
X42585714Y-47154819D02*
X42252381Y-47535771D01*
X42252381Y-47535771D02*
X42395238Y-47535771D01*
X42395238Y-47535771D02*
X42490476Y-47583390D01*
X42490476Y-47583390D02*
X42538095Y-47631009D01*
X42538095Y-47631009D02*
X42585714Y-47726247D01*
X42585714Y-47726247D02*
X42585714Y-47964342D01*
X42585714Y-47964342D02*
X42538095Y-48059580D01*
X42538095Y-48059580D02*
X42490476Y-48107200D01*
X42490476Y-48107200D02*
X42395238Y-48154819D01*
X42395238Y-48154819D02*
X42109524Y-48154819D01*
X42109524Y-48154819D02*
X42014286Y-48107200D01*
X42014286Y-48107200D02*
X41966667Y-48059580D01*
X33938095Y-11254819D02*
X33938095Y-12064342D01*
X33938095Y-12064342D02*
X33985714Y-12159580D01*
X33985714Y-12159580D02*
X34033333Y-12207200D01*
X34033333Y-12207200D02*
X34128571Y-12254819D01*
X34128571Y-12254819D02*
X34319047Y-12254819D01*
X34319047Y-12254819D02*
X34414285Y-12207200D01*
X34414285Y-12207200D02*
X34461904Y-12159580D01*
X34461904Y-12159580D02*
X34509523Y-12064342D01*
X34509523Y-12064342D02*
X34509523Y-11254819D01*
X34938095Y-11350057D02*
X34985714Y-11302438D01*
X34985714Y-11302438D02*
X35080952Y-11254819D01*
X35080952Y-11254819D02*
X35319047Y-11254819D01*
X35319047Y-11254819D02*
X35414285Y-11302438D01*
X35414285Y-11302438D02*
X35461904Y-11350057D01*
X35461904Y-11350057D02*
X35509523Y-11445295D01*
X35509523Y-11445295D02*
X35509523Y-11540533D01*
X35509523Y-11540533D02*
X35461904Y-11683390D01*
X35461904Y-11683390D02*
X34890476Y-12254819D01*
X34890476Y-12254819D02*
X35509523Y-12254819D01*
X10471203Y-53204476D02*
X10471203Y-53919217D01*
X10471203Y-53919217D02*
X10423554Y-54062166D01*
X10423554Y-54062166D02*
X10328255Y-54157465D01*
X10328255Y-54157465D02*
X10185307Y-54205114D01*
X10185307Y-54205114D02*
X10090008Y-54205114D01*
X10900048Y-53299775D02*
X10947698Y-53252125D01*
X10947698Y-53252125D02*
X11042997Y-53204476D01*
X11042997Y-53204476D02*
X11281244Y-53204476D01*
X11281244Y-53204476D02*
X11376543Y-53252125D01*
X11376543Y-53252125D02*
X11424192Y-53299775D01*
X11424192Y-53299775D02*
X11471841Y-53395074D01*
X11471841Y-53395074D02*
X11471841Y-53490373D01*
X11471841Y-53490373D02*
X11424192Y-53633321D01*
X11424192Y-53633321D02*
X10852399Y-54205114D01*
X10852399Y-54205114D02*
X11471841Y-54205114D01*
X1166666Y-36754819D02*
X1166666Y-37469104D01*
X1166666Y-37469104D02*
X1119047Y-37611961D01*
X1119047Y-37611961D02*
X1023809Y-37707200D01*
X1023809Y-37707200D02*
X880952Y-37754819D01*
X880952Y-37754819D02*
X785714Y-37754819D01*
X2071428Y-37088152D02*
X2071428Y-37754819D01*
X1833333Y-36707200D02*
X1595238Y-37421485D01*
X1595238Y-37421485D02*
X2214285Y-37421485D01*
X33654819Y-5342857D02*
X33178628Y-5676190D01*
X33654819Y-5914285D02*
X32654819Y-5914285D01*
X32654819Y-5914285D02*
X32654819Y-5533333D01*
X32654819Y-5533333D02*
X32702438Y-5438095D01*
X32702438Y-5438095D02*
X32750057Y-5390476D01*
X32750057Y-5390476D02*
X32845295Y-5342857D01*
X32845295Y-5342857D02*
X32988152Y-5342857D01*
X32988152Y-5342857D02*
X33083390Y-5390476D01*
X33083390Y-5390476D02*
X33131009Y-5438095D01*
X33131009Y-5438095D02*
X33178628Y-5533333D01*
X33178628Y-5533333D02*
X33178628Y-5914285D01*
X33654819Y-4390476D02*
X33654819Y-4961904D01*
X33654819Y-4676190D02*
X32654819Y-4676190D01*
X32654819Y-4676190D02*
X32797676Y-4771428D01*
X32797676Y-4771428D02*
X32892914Y-4866666D01*
X32892914Y-4866666D02*
X32940533Y-4961904D01*
X32654819Y-3533333D02*
X32654819Y-3723809D01*
X32654819Y-3723809D02*
X32702438Y-3819047D01*
X32702438Y-3819047D02*
X32750057Y-3866666D01*
X32750057Y-3866666D02*
X32892914Y-3961904D01*
X32892914Y-3961904D02*
X33083390Y-4009523D01*
X33083390Y-4009523D02*
X33464342Y-4009523D01*
X33464342Y-4009523D02*
X33559580Y-3961904D01*
X33559580Y-3961904D02*
X33607200Y-3914285D01*
X33607200Y-3914285D02*
X33654819Y-3819047D01*
X33654819Y-3819047D02*
X33654819Y-3628571D01*
X33654819Y-3628571D02*
X33607200Y-3533333D01*
X33607200Y-3533333D02*
X33559580Y-3485714D01*
X33559580Y-3485714D02*
X33464342Y-3438095D01*
X33464342Y-3438095D02*
X33226247Y-3438095D01*
X33226247Y-3438095D02*
X33131009Y-3485714D01*
X33131009Y-3485714D02*
X33083390Y-3533333D01*
X33083390Y-3533333D02*
X33035771Y-3628571D01*
X33035771Y-3628571D02*
X33035771Y-3819047D01*
X33035771Y-3819047D02*
X33083390Y-3914285D01*
X33083390Y-3914285D02*
X33131009Y-3961904D01*
X33131009Y-3961904D02*
X33226247Y-4009523D01*
X42133333Y-46059580D02*
X42085714Y-46107200D01*
X42085714Y-46107200D02*
X41942857Y-46154819D01*
X41942857Y-46154819D02*
X41847619Y-46154819D01*
X41847619Y-46154819D02*
X41704762Y-46107200D01*
X41704762Y-46107200D02*
X41609524Y-46011961D01*
X41609524Y-46011961D02*
X41561905Y-45916723D01*
X41561905Y-45916723D02*
X41514286Y-45726247D01*
X41514286Y-45726247D02*
X41514286Y-45583390D01*
X41514286Y-45583390D02*
X41561905Y-45392914D01*
X41561905Y-45392914D02*
X41609524Y-45297676D01*
X41609524Y-45297676D02*
X41704762Y-45202438D01*
X41704762Y-45202438D02*
X41847619Y-45154819D01*
X41847619Y-45154819D02*
X41942857Y-45154819D01*
X41942857Y-45154819D02*
X42085714Y-45202438D01*
X42085714Y-45202438D02*
X42133333Y-45250057D01*
X42514286Y-45250057D02*
X42561905Y-45202438D01*
X42561905Y-45202438D02*
X42657143Y-45154819D01*
X42657143Y-45154819D02*
X42895238Y-45154819D01*
X42895238Y-45154819D02*
X42990476Y-45202438D01*
X42990476Y-45202438D02*
X43038095Y-45250057D01*
X43038095Y-45250057D02*
X43085714Y-45345295D01*
X43085714Y-45345295D02*
X43085714Y-45440533D01*
X43085714Y-45440533D02*
X43038095Y-45583390D01*
X43038095Y-45583390D02*
X42466667Y-46154819D01*
X42466667Y-46154819D02*
X43085714Y-46154819D01*
X11633333Y-39954819D02*
X11300000Y-39478628D01*
X11061905Y-39954819D02*
X11061905Y-38954819D01*
X11061905Y-38954819D02*
X11442857Y-38954819D01*
X11442857Y-38954819D02*
X11538095Y-39002438D01*
X11538095Y-39002438D02*
X11585714Y-39050057D01*
X11585714Y-39050057D02*
X11633333Y-39145295D01*
X11633333Y-39145295D02*
X11633333Y-39288152D01*
X11633333Y-39288152D02*
X11585714Y-39383390D01*
X11585714Y-39383390D02*
X11538095Y-39431009D01*
X11538095Y-39431009D02*
X11442857Y-39478628D01*
X11442857Y-39478628D02*
X11061905Y-39478628D01*
X11966667Y-38954819D02*
X12585714Y-38954819D01*
X12585714Y-38954819D02*
X12252381Y-39335771D01*
X12252381Y-39335771D02*
X12395238Y-39335771D01*
X12395238Y-39335771D02*
X12490476Y-39383390D01*
X12490476Y-39383390D02*
X12538095Y-39431009D01*
X12538095Y-39431009D02*
X12585714Y-39526247D01*
X12585714Y-39526247D02*
X12585714Y-39764342D01*
X12585714Y-39764342D02*
X12538095Y-39859580D01*
X12538095Y-39859580D02*
X12490476Y-39907200D01*
X12490476Y-39907200D02*
X12395238Y-39954819D01*
X12395238Y-39954819D02*
X12109524Y-39954819D01*
X12109524Y-39954819D02*
X12014286Y-39907200D01*
X12014286Y-39907200D02*
X11966667Y-39859580D01*
X33786333Y-24254819D02*
X33310143Y-24254819D01*
X33310143Y-24254819D02*
X33310143Y-23254819D01*
X34643476Y-24254819D02*
X34072048Y-24254819D01*
X34357762Y-24254819D02*
X34357762Y-23254819D01*
X34357762Y-23254819D02*
X34262524Y-23397676D01*
X34262524Y-23397676D02*
X34167286Y-23492914D01*
X34167286Y-23492914D02*
X34072048Y-23540533D01*
X5333333Y-40154819D02*
X5000000Y-39678628D01*
X4761905Y-40154819D02*
X4761905Y-39154819D01*
X4761905Y-39154819D02*
X5142857Y-39154819D01*
X5142857Y-39154819D02*
X5238095Y-39202438D01*
X5238095Y-39202438D02*
X5285714Y-39250057D01*
X5285714Y-39250057D02*
X5333333Y-39345295D01*
X5333333Y-39345295D02*
X5333333Y-39488152D01*
X5333333Y-39488152D02*
X5285714Y-39583390D01*
X5285714Y-39583390D02*
X5238095Y-39631009D01*
X5238095Y-39631009D02*
X5142857Y-39678628D01*
X5142857Y-39678628D02*
X4761905Y-39678628D01*
X5809524Y-40154819D02*
X6000000Y-40154819D01*
X6000000Y-40154819D02*
X6095238Y-40107200D01*
X6095238Y-40107200D02*
X6142857Y-40059580D01*
X6142857Y-40059580D02*
X6238095Y-39916723D01*
X6238095Y-39916723D02*
X6285714Y-39726247D01*
X6285714Y-39726247D02*
X6285714Y-39345295D01*
X6285714Y-39345295D02*
X6238095Y-39250057D01*
X6238095Y-39250057D02*
X6190476Y-39202438D01*
X6190476Y-39202438D02*
X6095238Y-39154819D01*
X6095238Y-39154819D02*
X5904762Y-39154819D01*
X5904762Y-39154819D02*
X5809524Y-39202438D01*
X5809524Y-39202438D02*
X5761905Y-39250057D01*
X5761905Y-39250057D02*
X5714286Y-39345295D01*
X5714286Y-39345295D02*
X5714286Y-39583390D01*
X5714286Y-39583390D02*
X5761905Y-39678628D01*
X5761905Y-39678628D02*
X5809524Y-39726247D01*
X5809524Y-39726247D02*
X5904762Y-39773866D01*
X5904762Y-39773866D02*
X6095238Y-39773866D01*
X6095238Y-39773866D02*
X6190476Y-39726247D01*
X6190476Y-39726247D02*
X6238095Y-39678628D01*
X6238095Y-39678628D02*
X6285714Y-39583390D01*
X23461905Y-28854819D02*
X23461905Y-27854819D01*
X23461905Y-27854819D02*
X23700000Y-27854819D01*
X23700000Y-27854819D02*
X23842857Y-27902438D01*
X23842857Y-27902438D02*
X23938095Y-27997676D01*
X23938095Y-27997676D02*
X23985714Y-28092914D01*
X23985714Y-28092914D02*
X24033333Y-28283390D01*
X24033333Y-28283390D02*
X24033333Y-28426247D01*
X24033333Y-28426247D02*
X23985714Y-28616723D01*
X23985714Y-28616723D02*
X23938095Y-28711961D01*
X23938095Y-28711961D02*
X23842857Y-28807200D01*
X23842857Y-28807200D02*
X23700000Y-28854819D01*
X23700000Y-28854819D02*
X23461905Y-28854819D01*
X24366667Y-27854819D02*
X24985714Y-27854819D01*
X24985714Y-27854819D02*
X24652381Y-28235771D01*
X24652381Y-28235771D02*
X24795238Y-28235771D01*
X24795238Y-28235771D02*
X24890476Y-28283390D01*
X24890476Y-28283390D02*
X24938095Y-28331009D01*
X24938095Y-28331009D02*
X24985714Y-28426247D01*
X24985714Y-28426247D02*
X24985714Y-28664342D01*
X24985714Y-28664342D02*
X24938095Y-28759580D01*
X24938095Y-28759580D02*
X24890476Y-28807200D01*
X24890476Y-28807200D02*
X24795238Y-28854819D01*
X24795238Y-28854819D02*
X24509524Y-28854819D01*
X24509524Y-28854819D02*
X24414286Y-28807200D01*
X24414286Y-28807200D02*
X24366667Y-28759580D01*
X2838095Y-1954819D02*
X2838095Y-2764342D01*
X2838095Y-2764342D02*
X2885714Y-2859580D01*
X2885714Y-2859580D02*
X2933333Y-2907200D01*
X2933333Y-2907200D02*
X3028571Y-2954819D01*
X3028571Y-2954819D02*
X3219047Y-2954819D01*
X3219047Y-2954819D02*
X3314285Y-2907200D01*
X3314285Y-2907200D02*
X3361904Y-2859580D01*
X3361904Y-2859580D02*
X3409523Y-2764342D01*
X3409523Y-2764342D02*
X3409523Y-1954819D01*
X4314285Y-2288152D02*
X4314285Y-2954819D01*
X4076190Y-1907200D02*
X3838095Y-2621485D01*
X3838095Y-2621485D02*
X4457142Y-2621485D01*
X11204761Y-42650057D02*
X11109523Y-42602438D01*
X11109523Y-42602438D02*
X11014285Y-42507200D01*
X11014285Y-42507200D02*
X10871428Y-42364342D01*
X10871428Y-42364342D02*
X10776190Y-42316723D01*
X10776190Y-42316723D02*
X10680952Y-42316723D01*
X10728571Y-42554819D02*
X10633333Y-42507200D01*
X10633333Y-42507200D02*
X10538095Y-42411961D01*
X10538095Y-42411961D02*
X10490476Y-42221485D01*
X10490476Y-42221485D02*
X10490476Y-41888152D01*
X10490476Y-41888152D02*
X10538095Y-41697676D01*
X10538095Y-41697676D02*
X10633333Y-41602438D01*
X10633333Y-41602438D02*
X10728571Y-41554819D01*
X10728571Y-41554819D02*
X10919047Y-41554819D01*
X10919047Y-41554819D02*
X11014285Y-41602438D01*
X11014285Y-41602438D02*
X11109523Y-41697676D01*
X11109523Y-41697676D02*
X11157142Y-41888152D01*
X11157142Y-41888152D02*
X11157142Y-42221485D01*
X11157142Y-42221485D02*
X11109523Y-42411961D01*
X11109523Y-42411961D02*
X11014285Y-42507200D01*
X11014285Y-42507200D02*
X10919047Y-42554819D01*
X10919047Y-42554819D02*
X10728571Y-42554819D01*
X11490476Y-41554819D02*
X12109523Y-41554819D01*
X12109523Y-41554819D02*
X11776190Y-41935771D01*
X11776190Y-41935771D02*
X11919047Y-41935771D01*
X11919047Y-41935771D02*
X12014285Y-41983390D01*
X12014285Y-41983390D02*
X12061904Y-42031009D01*
X12061904Y-42031009D02*
X12109523Y-42126247D01*
X12109523Y-42126247D02*
X12109523Y-42364342D01*
X12109523Y-42364342D02*
X12061904Y-42459580D01*
X12061904Y-42459580D02*
X12014285Y-42507200D01*
X12014285Y-42507200D02*
X11919047Y-42554819D01*
X11919047Y-42554819D02*
X11633333Y-42554819D01*
X11633333Y-42554819D02*
X11538095Y-42507200D01*
X11538095Y-42507200D02*
X11490476Y-42459580D01*
X45933333Y-54759580D02*
X45885714Y-54807200D01*
X45885714Y-54807200D02*
X45742857Y-54854819D01*
X45742857Y-54854819D02*
X45647619Y-54854819D01*
X45647619Y-54854819D02*
X45504762Y-54807200D01*
X45504762Y-54807200D02*
X45409524Y-54711961D01*
X45409524Y-54711961D02*
X45361905Y-54616723D01*
X45361905Y-54616723D02*
X45314286Y-54426247D01*
X45314286Y-54426247D02*
X45314286Y-54283390D01*
X45314286Y-54283390D02*
X45361905Y-54092914D01*
X45361905Y-54092914D02*
X45409524Y-53997676D01*
X45409524Y-53997676D02*
X45504762Y-53902438D01*
X45504762Y-53902438D02*
X45647619Y-53854819D01*
X45647619Y-53854819D02*
X45742857Y-53854819D01*
X45742857Y-53854819D02*
X45885714Y-53902438D01*
X45885714Y-53902438D02*
X45933333Y-53950057D01*
X46409524Y-54854819D02*
X46600000Y-54854819D01*
X46600000Y-54854819D02*
X46695238Y-54807200D01*
X46695238Y-54807200D02*
X46742857Y-54759580D01*
X46742857Y-54759580D02*
X46838095Y-54616723D01*
X46838095Y-54616723D02*
X46885714Y-54426247D01*
X46885714Y-54426247D02*
X46885714Y-54045295D01*
X46885714Y-54045295D02*
X46838095Y-53950057D01*
X46838095Y-53950057D02*
X46790476Y-53902438D01*
X46790476Y-53902438D02*
X46695238Y-53854819D01*
X46695238Y-53854819D02*
X46504762Y-53854819D01*
X46504762Y-53854819D02*
X46409524Y-53902438D01*
X46409524Y-53902438D02*
X46361905Y-53950057D01*
X46361905Y-53950057D02*
X46314286Y-54045295D01*
X46314286Y-54045295D02*
X46314286Y-54283390D01*
X46314286Y-54283390D02*
X46361905Y-54378628D01*
X46361905Y-54378628D02*
X46409524Y-54426247D01*
X46409524Y-54426247D02*
X46504762Y-54473866D01*
X46504762Y-54473866D02*
X46695238Y-54473866D01*
X46695238Y-54473866D02*
X46790476Y-54426247D01*
X46790476Y-54426247D02*
X46838095Y-54378628D01*
X46838095Y-54378628D02*
X46885714Y-54283390D01*
X10257142Y-47254819D02*
X9923809Y-46778628D01*
X9685714Y-47254819D02*
X9685714Y-46254819D01*
X9685714Y-46254819D02*
X10066666Y-46254819D01*
X10066666Y-46254819D02*
X10161904Y-46302438D01*
X10161904Y-46302438D02*
X10209523Y-46350057D01*
X10209523Y-46350057D02*
X10257142Y-46445295D01*
X10257142Y-46445295D02*
X10257142Y-46588152D01*
X10257142Y-46588152D02*
X10209523Y-46683390D01*
X10209523Y-46683390D02*
X10161904Y-46731009D01*
X10161904Y-46731009D02*
X10066666Y-46778628D01*
X10066666Y-46778628D02*
X9685714Y-46778628D01*
X11209523Y-47254819D02*
X10638095Y-47254819D01*
X10923809Y-47254819D02*
X10923809Y-46254819D01*
X10923809Y-46254819D02*
X10828571Y-46397676D01*
X10828571Y-46397676D02*
X10733333Y-46492914D01*
X10733333Y-46492914D02*
X10638095Y-46540533D01*
X11542857Y-46254819D02*
X12209523Y-46254819D01*
X12209523Y-46254819D02*
X11780952Y-47254819D01*
X12475000Y-23475000D02*
X12475000Y-23700000D01*
X12475000Y-23475000D02*
X15725000Y-23475000D01*
X12475000Y-26725000D02*
X12475000Y-26500000D01*
X12475000Y-26725000D02*
X15725000Y-26725000D01*
X15725000Y-23475000D02*
X15725000Y-23700000D01*
X15725000Y-26725000D02*
X15725000Y-26500000D01*
D11*
X12000000Y-23700000D02*
X11760000Y-23370000D01*
X12240000Y-23370000D01*
X12000000Y-23700000D01*
G36*
X12000000Y-23700000D02*
G01*
X11760000Y-23370000D01*
X12240000Y-23370000D01*
X12000000Y-23700000D01*
G37*
X22872936Y-22165000D02*
X23327064Y-22165000D01*
X22872936Y-23635000D02*
X23327064Y-23635000D01*
X15527064Y-28735000D02*
X15072936Y-28735000D01*
X15527064Y-27265000D02*
X15072936Y-27265000D01*
X9065000Y-35627064D02*
X9065000Y-35172936D01*
X10535000Y-35627064D02*
X10535000Y-35172936D01*
X16246359Y-22020000D02*
X16553641Y-22020000D01*
X16246359Y-22780000D02*
X16553641Y-22780000D01*
D12*
X49579200Y-48937800D02*
X77620800Y-48937800D01*
X77620800Y-48937800D02*
X77620800Y-1795400D01*
X49579200Y-1795400D02*
X49579200Y-48937800D01*
X77620800Y-1795400D02*
X49579200Y-1795400D01*
D13*
X60081000Y-49572800D02*
G75*
G03*
X59319000Y-49572800I-381000J0D01*
G01*
X59319000Y-49572800D02*
G75*
G03*
X60081000Y-49572800I381000J0D01*
G01*
D12*
X64451399Y-51377901D02*
X64451399Y-60831900D01*
X64451399Y-60831900D02*
X74615401Y-60831900D01*
X74615401Y-51377901D02*
X64451399Y-51377901D01*
X74615401Y-60831900D02*
X74615401Y-51377901D01*
D13*
X64197400Y-52704901D02*
G75*
G03*
X63435400Y-52704901I-381000J0D01*
G01*
X63435400Y-52704901D02*
G75*
G03*
X64197400Y-52704901I381000J0D01*
G01*
D11*
X10635000Y-24772936D02*
X10635000Y-25227064D01*
X9165000Y-24772936D02*
X9165000Y-25227064D01*
X27861252Y-2635000D02*
X27338748Y-2635000D01*
X27861252Y-1165000D02*
X27338748Y-1165000D01*
X13110000Y-28850000D02*
X13110000Y-27150000D01*
X13110000Y-28850000D02*
X10450000Y-28850000D01*
X13110000Y-27150000D02*
X10450000Y-27150000D01*
X6565000Y-23827064D02*
X6565000Y-23372936D01*
X8035000Y-23827064D02*
X8035000Y-23372936D01*
X27035000Y-19588748D02*
X27035000Y-20111252D01*
X25565000Y-19588748D02*
X25565000Y-20111252D01*
X41510000Y-4250000D02*
X41510000Y-950000D01*
X41510000Y-4250000D02*
X36000000Y-4250000D01*
X41510000Y-950000D02*
X36000000Y-950000D01*
X33490000Y-43050000D02*
X33490000Y-39290000D01*
X40310000Y-43050000D02*
X40310000Y-39290000D01*
X33490000Y-39290000D02*
X34750000Y-39290000D01*
X40310000Y-39290000D02*
X39050000Y-39290000D01*
X33590000Y-44330000D02*
X33260000Y-44570000D01*
X33260000Y-44090000D01*
X33590000Y-44330000D01*
G36*
X33590000Y-44330000D02*
G01*
X33260000Y-44570000D01*
X33260000Y-44090000D01*
X33590000Y-44330000D01*
G37*
X14253641Y-22780000D02*
X13946359Y-22780000D01*
X14253641Y-22020000D02*
X13946359Y-22020000D01*
X46202064Y-3410000D02*
X44997936Y-3410000D01*
X46202064Y-1590000D02*
X44997936Y-1590000D01*
X30052500Y-22637500D02*
X30052500Y-21850000D01*
X29658750Y-22243750D02*
X30446250Y-22243750D01*
X29554437Y-21610000D02*
X30840000Y-21610000D01*
X29554437Y-21610000D02*
X28490000Y-20545563D01*
X34245563Y-21610000D02*
X32960000Y-21610000D01*
X34245563Y-21610000D02*
X35310000Y-20545563D01*
X28490000Y-20545563D02*
X28490000Y-14790000D01*
X35310000Y-20545563D02*
X35310000Y-14790000D01*
X28490000Y-14790000D02*
X30840000Y-14790000D01*
X35310000Y-14790000D02*
X32960000Y-14790000D01*
X25950000Y-11950000D02*
X27333000Y-11950000D01*
X25950000Y-11950000D02*
X25950000Y-10567000D01*
X26190000Y-11710000D02*
X27500000Y-11710000D01*
X26190000Y-11710000D02*
X26190000Y-4890000D01*
X29100000Y-11710000D02*
X30410000Y-11710000D01*
X30410000Y-11710000D02*
X30410000Y-4890000D01*
X27665000Y-10110000D02*
X28935000Y-10110000D01*
X27785000Y-10110000D02*
X27785000Y-8903333D01*
X27905000Y-10110000D02*
X27905000Y-8903333D01*
X28025000Y-10110000D02*
X28025000Y-8903333D01*
X28145000Y-10110000D02*
X28145000Y-8903333D01*
X28265000Y-10110000D02*
X28265000Y-8903333D01*
X28385000Y-10110000D02*
X28385000Y-8903333D01*
X28505000Y-10110000D02*
X28505000Y-8903333D01*
X28625000Y-10110000D02*
X28625000Y-8903333D01*
X28745000Y-10110000D02*
X28745000Y-8903333D01*
X28865000Y-10110000D02*
X28865000Y-8903333D01*
X28935000Y-10110000D02*
X28935000Y-6490000D01*
X27665000Y-8903333D02*
X28935000Y-8903333D01*
X27665000Y-6490000D02*
X27665000Y-10110000D01*
X28935000Y-6490000D02*
X27665000Y-6490000D01*
X26190000Y-4890000D02*
X27500000Y-4890000D01*
X29100000Y-4890000D02*
X30410000Y-4890000D01*
X6337500Y-29990000D02*
X5687500Y-29990000D01*
X6337500Y-29990000D02*
X6987500Y-29990000D01*
X6337500Y-33110000D02*
X5687500Y-33110000D01*
X6337500Y-33110000D02*
X6987500Y-33110000D01*
X5175000Y-30040000D02*
X4935000Y-29710000D01*
X5415000Y-29710000D01*
X5175000Y-30040000D01*
G36*
X5175000Y-30040000D02*
G01*
X4935000Y-29710000D01*
X5415000Y-29710000D01*
X5175000Y-30040000D01*
G37*
X22961252Y-33135000D02*
X22438748Y-33135000D01*
X22961252Y-31665000D02*
X22438748Y-31665000D01*
X11165000Y-31127064D02*
X11165000Y-30672936D01*
X12635000Y-31127064D02*
X12635000Y-30672936D01*
D14*
X32200000Y-40700000D02*
G75*
G03*
X18200000Y-40700000I-7000000J0D01*
G01*
X18200000Y-40700000D02*
G75*
G03*
X32200000Y-40700000I7000000J0D01*
G01*
X26950000Y-49012500D02*
X41850000Y-49012500D01*
X26950000Y-60512500D02*
X26950000Y-49012500D01*
X41850000Y-49012500D02*
X41850000Y-60512500D01*
X41850000Y-60512500D02*
X26950000Y-60512500D01*
D15*
X29340000Y-48412500D02*
G75*
G03*
X29140000Y-48412500I-100000J0D01*
G01*
X29140000Y-48412500D02*
G75*
G03*
X29340000Y-48412500I100000J0D01*
G01*
D11*
X14539564Y-40835000D02*
X14085436Y-40835000D01*
X14539564Y-39365000D02*
X14085436Y-39365000D01*
X59260000Y-52477500D02*
X57340000Y-52477500D01*
X57340000Y-52477500D02*
X57340000Y-55162500D01*
X59260000Y-55162500D02*
X59260000Y-52477500D01*
X21085000Y-23860000D02*
X21085000Y-21940000D01*
X21085000Y-21940000D02*
X18400000Y-21940000D01*
X18400000Y-23860000D02*
X21085000Y-23860000D01*
X9065000Y-31127064D02*
X9065000Y-30672936D01*
X10535000Y-31127064D02*
X10535000Y-30672936D01*
X19138748Y-24465000D02*
X19661252Y-24465000D01*
X19138748Y-25935000D02*
X19661252Y-25935000D01*
X15014564Y-36835000D02*
X14560436Y-36835000D01*
X15014564Y-35365000D02*
X14560436Y-35365000D01*
X5885436Y-33665000D02*
X6339564Y-33665000D01*
X5885436Y-35135000D02*
X6339564Y-35135000D01*
X16825000Y-29535000D02*
X14875000Y-29535000D01*
X16825000Y-29535000D02*
X18775000Y-29535000D01*
X16825000Y-34655000D02*
X14875000Y-34655000D01*
X16825000Y-34655000D02*
X18775000Y-34655000D01*
X14125000Y-29630000D02*
X13885000Y-29300000D01*
X14365000Y-29300000D01*
X14125000Y-29630000D01*
G36*
X14125000Y-29630000D02*
G01*
X13885000Y-29300000D01*
X14365000Y-29300000D01*
X14125000Y-29630000D01*
G37*
X35311252Y-47935000D02*
X34788748Y-47935000D01*
X35311252Y-46465000D02*
X34788748Y-46465000D01*
X60065000Y-54414564D02*
X60065000Y-53960436D01*
X61535000Y-54414564D02*
X61535000Y-53960436D01*
X6362500Y-35740000D02*
X5712500Y-35740000D01*
X6362500Y-35740000D02*
X7012500Y-35740000D01*
X6362500Y-38860000D02*
X5712500Y-38860000D01*
X6362500Y-38860000D02*
X7012500Y-38860000D01*
X5200000Y-35790000D02*
X4960000Y-35460000D01*
X5440000Y-35460000D01*
X5200000Y-35790000D01*
G36*
X5200000Y-35790000D02*
G01*
X4960000Y-35460000D01*
X5440000Y-35460000D01*
X5200000Y-35790000D01*
G37*
X4365000Y-23827064D02*
X4365000Y-23372936D01*
X5835000Y-23827064D02*
X5835000Y-23372936D01*
X39061252Y-47935000D02*
X38538748Y-47935000D01*
X39061252Y-46465000D02*
X38538748Y-46465000D01*
X36925000Y-16300000D02*
X37875000Y-16300000D01*
X47325000Y-16300000D02*
X46375000Y-16300000D01*
X36925000Y-14800000D02*
X36925000Y-16300000D01*
X47325000Y-14800000D02*
X47325000Y-16300000D01*
X37875000Y-18862500D02*
X37545000Y-19102500D01*
X37545000Y-18622500D01*
X37875000Y-18862500D01*
G36*
X37875000Y-18862500D02*
G01*
X37545000Y-19102500D01*
X37545000Y-18622500D01*
X37875000Y-18862500D01*
G37*
D14*
X24854750Y-60550000D02*
X12454750Y-60550000D01*
X24854750Y-49050000D02*
X24854750Y-60550000D01*
X12454750Y-60550000D02*
X12454750Y-49050000D01*
X12454750Y-49050000D02*
X24854750Y-49050000D01*
D16*
X25781750Y-51850000D02*
G75*
G03*
X25527750Y-51850000I-127000J0D01*
G01*
X25527750Y-51850000D02*
G75*
G03*
X25781750Y-51850000I127000J0D01*
G01*
D11*
X3230000Y-35750000D02*
X1900000Y-35750000D01*
X3230000Y-34420000D02*
X3230000Y-35750000D01*
X3230000Y-33150000D02*
X3230000Y-22930000D01*
X3230000Y-33150000D02*
X570000Y-33150000D01*
X3230000Y-22930000D02*
X570000Y-22930000D01*
X570000Y-33150000D02*
X570000Y-22930000D01*
X31160436Y-1165000D02*
X31614564Y-1165000D01*
X31160436Y-2635000D02*
X31614564Y-2635000D01*
X47047500Y-36762500D02*
X47047500Y-37550000D01*
X47441250Y-37156250D02*
X46653750Y-37156250D01*
X47545563Y-37790000D02*
X46260000Y-37790000D01*
X47545563Y-37790000D02*
X48610000Y-38854437D01*
X42854437Y-37790000D02*
X44140000Y-37790000D01*
X42854437Y-37790000D02*
X41790000Y-38854437D01*
X48610000Y-38854437D02*
X48610000Y-44610000D01*
X41790000Y-38854437D02*
X41790000Y-44610000D01*
X48610000Y-44610000D02*
X46260000Y-44610000D01*
X41790000Y-44610000D02*
X44140000Y-44610000D01*
X11165000Y-35627064D02*
X11165000Y-35172936D01*
X12635000Y-35627064D02*
X12635000Y-35172936D01*
D12*
X34926200Y-23426200D02*
X34926200Y-26662160D01*
X34926200Y-32737840D02*
X34926200Y-35973800D01*
X34926200Y-35973800D02*
X47473800Y-35973800D01*
X47473800Y-23426200D02*
X34926200Y-23426200D01*
X47473800Y-26662160D02*
X47473800Y-23426200D01*
X47473800Y-35973800D02*
X47473800Y-32737840D01*
X34113400Y-29700000D02*
G75*
G03*
X33961000Y-29700000I-76200J0D01*
G01*
X33961000Y-29700000D02*
G75*
G03*
X34113400Y-29700000I76200J0D01*
G01*
D11*
X5872936Y-27865000D02*
X6327064Y-27865000D01*
X5872936Y-29335000D02*
X6327064Y-29335000D01*
X20410000Y-28850000D02*
X20410000Y-27150000D01*
X20410000Y-28850000D02*
X17750000Y-28850000D01*
X20410000Y-27150000D02*
X17750000Y-27150000D01*
X23870000Y-21385000D02*
X5630000Y-21385000D01*
X23870000Y-2565000D02*
X23870000Y-1945000D01*
X23870000Y-1945000D02*
X22870000Y-1945000D01*
X5630000Y-21385000D02*
X5630000Y-20965000D01*
X5630000Y-2565000D02*
X5630000Y-1945000D01*
X5630000Y-1945000D02*
X6630000Y-1945000D01*
X23875000Y-21140000D02*
X23875000Y-20640000D01*
X24375000Y-20640000D01*
X23875000Y-21140000D01*
G36*
X23875000Y-21140000D02*
G01*
X23875000Y-20640000D01*
X24375000Y-20640000D01*
X23875000Y-21140000D01*
G37*
X15860000Y-43462500D02*
X15860000Y-42812500D01*
X15860000Y-43462500D02*
X15860000Y-44112500D01*
X12740000Y-43462500D02*
X12740000Y-42812500D01*
X12740000Y-43462500D02*
X12740000Y-44112500D01*
X16140000Y-42540000D02*
X15810000Y-42300000D01*
X16140000Y-42060000D01*
X16140000Y-42540000D01*
G36*
X16140000Y-42540000D02*
G01*
X15810000Y-42300000D01*
X16140000Y-42060000D01*
X16140000Y-42540000D01*
G37*
X45635000Y-51538748D02*
X45635000Y-52061252D01*
X44165000Y-51538748D02*
X44165000Y-52061252D01*
X14539564Y-47435000D02*
X14085436Y-47435000D01*
X14539564Y-45965000D02*
X14085436Y-45965000D01*
%LPC*%
D17*
X11950000Y-24100000D03*
X11950000Y-24600000D03*
X11950000Y-25100000D03*
X11950000Y-25600000D03*
X11950000Y-26100000D03*
X16250000Y-26100000D03*
X16250000Y-25600000D03*
X16250000Y-25100000D03*
X16250000Y-24600000D03*
X16250000Y-24100000D03*
D18*
X22187500Y-22900000D03*
X24012500Y-22900000D03*
D19*
X16212500Y-28000000D03*
X14387500Y-28000000D03*
D20*
X9800000Y-36312500D03*
X9800000Y-34487500D03*
D21*
X15890000Y-22400000D03*
X16910000Y-22400000D03*
D22*
X59700000Y-46616596D03*
X67500000Y-46616596D03*
X52200002Y-4116604D03*
X74999997Y-4116604D03*
D23*
X67628400Y-52704901D03*
X71438400Y-52704901D03*
D24*
X9900000Y-24087500D03*
X9900000Y-25912500D03*
D25*
X28550000Y-1900000D03*
X26650000Y-1900000D03*
D26*
X12550000Y-28000000D03*
X10450000Y-28000000D03*
D20*
X7300000Y-24512500D03*
X7300000Y-22687500D03*
D27*
X26300000Y-18900000D03*
X26300000Y-20800000D03*
D28*
X40000000Y-2600000D03*
X36000000Y-2600000D03*
D29*
X34600000Y-44350000D03*
X36900000Y-44350000D03*
D30*
X36900000Y-38050000D03*
D29*
X39200000Y-44350000D03*
D31*
X14610000Y-22400000D03*
X13590000Y-22400000D03*
D32*
X47000000Y-2500000D03*
X44200000Y-2500000D03*
D33*
X31900000Y-20900000D03*
X31900000Y-15500000D03*
D34*
X28300000Y-11665000D03*
X28300000Y-4935000D03*
D35*
X5400000Y-30600000D03*
X5400000Y-32500000D03*
X7275000Y-31550000D03*
D25*
X23650000Y-32400000D03*
X21750000Y-32400000D03*
D20*
X11900000Y-31812500D03*
X11900000Y-29987500D03*
D36*
X21400000Y-40700000D03*
X29000000Y-40700000D03*
D37*
X29400000Y-51312500D03*
D38*
X31900000Y-51312500D03*
X34400000Y-51312500D03*
X36900000Y-51312500D03*
X39400000Y-51312500D03*
D19*
X15225000Y-40100000D03*
X13400000Y-40100000D03*
D39*
X58300000Y-53225000D03*
X58300000Y-55100000D03*
D40*
X20337500Y-22900000D03*
X18462500Y-22900000D03*
D20*
X9800000Y-31812500D03*
X9800000Y-29987500D03*
D41*
X18450000Y-25200000D03*
X20350000Y-25200000D03*
D19*
X15700000Y-36100000D03*
X13875000Y-36100000D03*
D18*
X5200000Y-34400000D03*
X7025000Y-34400000D03*
D42*
X14350000Y-30190000D03*
X14350000Y-31460000D03*
X14350000Y-32730000D03*
X14350000Y-34000000D03*
X19300000Y-34000000D03*
X19300000Y-32730000D03*
X19300000Y-31460000D03*
X19300000Y-30190000D03*
D25*
X36000000Y-47200000D03*
X34100000Y-47200000D03*
D20*
X60800000Y-55100000D03*
X60800000Y-53275000D03*
D35*
X5425000Y-36350000D03*
X5425000Y-38250000D03*
X7300000Y-37300000D03*
D20*
X5100000Y-24512500D03*
X5100000Y-22687500D03*
D25*
X39750000Y-47200000D03*
X37850000Y-47200000D03*
D43*
X38725000Y-19125000D03*
X40425000Y-19125000D03*
X42125000Y-19125000D03*
D44*
X42125000Y-9975000D03*
D43*
X43825000Y-19125000D03*
X45525000Y-19125000D03*
D45*
X22404750Y-51350000D03*
D36*
X19904750Y-51350000D03*
X17404750Y-51350000D03*
X14904750Y-51350000D03*
D46*
X1900000Y-34420000D03*
D47*
X1900000Y-31880000D03*
X1900000Y-29340000D03*
X1900000Y-26800000D03*
X1900000Y-24260000D03*
D18*
X30475000Y-1900000D03*
X32300000Y-1900000D03*
D48*
X52000000Y-55000000D03*
X28500000Y-29735000D03*
D49*
X45200000Y-38500000D03*
X45200000Y-43900000D03*
D20*
X11900000Y-36312500D03*
X11900000Y-34487500D03*
D48*
X5000000Y-55000000D03*
D50*
X36247000Y-29700000D03*
X46153000Y-29700000D03*
D18*
X5187500Y-28600000D03*
X7012500Y-28600000D03*
D26*
X19850000Y-28000000D03*
X17750000Y-28000000D03*
D51*
X23500000Y-19920000D03*
X23500000Y-18650000D03*
X23500000Y-17380000D03*
X23500000Y-16110000D03*
X23500000Y-14840000D03*
X23500000Y-13570000D03*
X23500000Y-12300000D03*
X23500000Y-11030000D03*
X23500000Y-9760000D03*
X23500000Y-8490000D03*
X23500000Y-7220000D03*
X23500000Y-5950000D03*
X23500000Y-4680000D03*
X23500000Y-3410000D03*
D52*
X20465000Y-2315000D03*
X19195000Y-2315000D03*
X17925000Y-2315000D03*
X16655000Y-2315000D03*
X15385000Y-2315000D03*
X14115000Y-2315000D03*
X12845000Y-2315000D03*
X11575000Y-2315000D03*
X10305000Y-2315000D03*
X9035000Y-2315000D03*
D51*
X6000000Y-3410000D03*
X6000000Y-4680000D03*
X6000000Y-5950000D03*
X6000000Y-7220000D03*
X6000000Y-8490000D03*
X6000000Y-9760000D03*
X6000000Y-11030000D03*
X6000000Y-12300000D03*
X6000000Y-13570000D03*
X6000000Y-14840000D03*
X6000000Y-16110000D03*
X6000000Y-17380000D03*
X6000000Y-18650000D03*
X6000000Y-19920000D03*
D53*
X17650000Y-13055000D03*
X17650000Y-11655000D03*
X16950000Y-13755000D03*
X16950000Y-12355000D03*
X16950000Y-10955000D03*
X16250000Y-13055000D03*
D54*
X16250000Y-12355000D03*
D53*
X16250000Y-11655000D03*
X15550000Y-13755000D03*
X15550000Y-12355000D03*
X15550000Y-10955000D03*
X14850000Y-13055000D03*
X14850000Y-11655000D03*
D55*
X15250000Y-42525000D03*
X13350000Y-42525000D03*
X14300000Y-44400000D03*
D27*
X44900000Y-50850000D03*
X44900000Y-52750000D03*
D19*
X15225000Y-46700000D03*
X13400000Y-46700000D03*
%LPD*%
M02*
