G04 #@! TF.GenerationSoftware,KiCad,Pcbnew,7.0.11-7.0.11~ubuntu22.04.1*
G04 #@! TF.CreationDate,2024-09-13T17:01:46+07:00*
G04 #@! TF.ProjectId,scale,7363616c-652e-46b6-9963-61645f706362,rev?*
G04 #@! TF.SameCoordinates,Original*
G04 #@! TF.FileFunction,Soldermask,Top*
G04 #@! TF.FilePolarity,Negative*
%FSLAX46Y46*%
G04 Gerber Fmt 4.6, Leading zero omitted, Abs format (unit mm)*
G04 Created by KiCad (PCBNEW 7.0.11-7.0.11~ubuntu22.04.1) date 2024-09-13 17:01:46*
%MOMM*%
%LPD*%
G01*
G04 APERTURE LIST*
G04 Aperture macros list*
%AMRoundRect*
0 Rectangle with rounded corners*
0 $1 Rounding radius*
0 $2 $3 $4 $5 $6 $7 $8 $9 X,Y pos of 4 corners*
0 Add a 4 corners polygon primitive as box body*
4,1,4,$2,$3,$4,$5,$6,$7,$8,$9,$2,$3,0*
0 Add four circle primitives for the rounded corners*
1,1,$1+$1,$2,$3*
1,1,$1+$1,$4,$5*
1,1,$1+$1,$6,$7*
1,1,$1+$1,$8,$9*
0 Add four rect primitives between the rounded corners*
20,1,$1+$1,$2,$3,$4,$5,0*
20,1,$1+$1,$4,$5,$6,$7,0*
20,1,$1+$1,$6,$7,$8,$9,0*
20,1,$1+$1,$8,$9,$2,$3,0*%
G04 Aperture macros list end*
%ADD10R,1.100000X0.250000*%
%ADD11RoundRect,0.250000X-0.262500X-0.450000X0.262500X-0.450000X0.262500X0.450000X-0.262500X0.450000X0*%
%ADD12RoundRect,0.250000X0.262500X0.450000X-0.262500X0.450000X-0.262500X-0.450000X0.262500X-0.450000X0*%
%ADD13RoundRect,0.250000X0.450000X-0.262500X0.450000X0.262500X-0.450000X0.262500X-0.450000X-0.262500X0*%
%ADD14RoundRect,0.135000X-0.135000X-0.185000X0.135000X-0.185000X0.135000X0.185000X-0.135000X0.185000X0*%
%ADD15C,1.320800*%
%ADD16C,1.828800*%
%ADD17RoundRect,0.250000X-0.450000X0.262500X-0.450000X-0.262500X0.450000X-0.262500X0.450000X0.262500X0*%
%ADD18RoundRect,0.250000X0.250000X0.475000X-0.250000X0.475000X-0.250000X-0.475000X0.250000X-0.475000X0*%
%ADD19RoundRect,0.112500X0.187500X0.112500X-0.187500X0.112500X-0.187500X-0.112500X0.187500X-0.112500X0*%
%ADD20RoundRect,0.250000X-0.475000X0.250000X-0.475000X-0.250000X0.475000X-0.250000X0.475000X0.250000X0*%
%ADD21RoundRect,0.250000X1.000000X0.650000X-1.000000X0.650000X-1.000000X-0.650000X1.000000X-0.650000X0*%
%ADD22RoundRect,0.375000X0.375000X-0.625000X0.375000X0.625000X-0.375000X0.625000X-0.375000X-0.625000X0*%
%ADD23RoundRect,0.500000X1.400000X-0.500000X1.400000X0.500000X-1.400000X0.500000X-1.400000X-0.500000X0*%
%ADD24RoundRect,0.135000X0.135000X0.185000X-0.135000X0.185000X-0.135000X-0.185000X0.135000X-0.185000X0*%
%ADD25RoundRect,0.250000X0.375000X0.625000X-0.375000X0.625000X-0.375000X-0.625000X0.375000X-0.625000X0*%
%ADD26RoundRect,0.250000X0.550000X-1.500000X0.550000X1.500000X-0.550000X1.500000X-0.550000X-1.500000X0*%
%ADD27R,1.120000X2.160000*%
%ADD28RoundRect,0.150000X-0.587500X-0.150000X0.587500X-0.150000X0.587500X0.150000X-0.587500X0.150000X0*%
%ADD29C,1.712000*%
%ADD30RoundRect,0.102000X-0.795000X-0.795000X0.795000X-0.795000X0.795000X0.795000X-0.795000X0.795000X0*%
%ADD31C,1.794000*%
%ADD32RoundRect,0.243750X-0.456250X0.243750X-0.456250X-0.243750X0.456250X-0.243750X0.456250X0.243750X0*%
%ADD33RoundRect,0.243750X0.243750X0.456250X-0.243750X0.456250X-0.243750X-0.456250X0.243750X-0.456250X0*%
%ADD34RoundRect,0.250000X-0.250000X-0.475000X0.250000X-0.475000X0.250000X0.475000X-0.250000X0.475000X0*%
%ADD35RoundRect,0.150000X-0.825000X-0.150000X0.825000X-0.150000X0.825000X0.150000X-0.825000X0.150000X0*%
%ADD36RoundRect,0.250000X0.300000X-2.050000X0.300000X2.050000X-0.300000X2.050000X-0.300000X-2.050000X0*%
%ADD37RoundRect,0.250002X5.149998X-4.449998X5.149998X4.449998X-5.149998X4.449998X-5.149998X-4.449998X0*%
%ADD38RoundRect,0.102000X0.754000X0.754000X-0.754000X0.754000X-0.754000X-0.754000X0.754000X-0.754000X0*%
%ADD39R,1.700000X1.700000*%
%ADD40O,1.700000X1.700000*%
%ADD41C,3.000000*%
%ADD42RoundRect,0.250000X-0.550000X1.500000X-0.550000X-1.500000X0.550000X-1.500000X0.550000X1.500000X0*%
%ADD43R,2.895600X5.410200*%
%ADD44R,1.500000X0.900000*%
%ADD45R,0.900000X1.500000*%
%ADD46C,0.600000*%
%ADD47R,3.800000X3.800000*%
%ADD48RoundRect,0.150000X-0.150000X0.587500X-0.150000X-0.587500X0.150000X-0.587500X0.150000X0.587500X0*%
G04 APERTURE END LIST*
D10*
X11950000Y-24100000D03*
X11950000Y-24600000D03*
X11950000Y-25100000D03*
X11950000Y-25600000D03*
X11950000Y-26100000D03*
X16250000Y-26100000D03*
X16250000Y-25600000D03*
X16250000Y-25100000D03*
X16250000Y-24600000D03*
X16250000Y-24100000D03*
D11*
X22187500Y-22900000D03*
X24012500Y-22900000D03*
D12*
X16212500Y-28000000D03*
X14387500Y-28000000D03*
D13*
X9800000Y-36312500D03*
X9800000Y-34487500D03*
D14*
X15890000Y-22400000D03*
X16910000Y-22400000D03*
D15*
X59700000Y-46616596D03*
X67500000Y-46616596D03*
X52200002Y-4116604D03*
X74999997Y-4116604D03*
D16*
X67628400Y-52704901D03*
X71438400Y-52704901D03*
D17*
X9900000Y-24087500D03*
X9900000Y-25912500D03*
D18*
X28550000Y-1900000D03*
X26650000Y-1900000D03*
D19*
X12550000Y-28000000D03*
X10450000Y-28000000D03*
D13*
X7300000Y-24512500D03*
X7300000Y-22687500D03*
D20*
X26300000Y-18900000D03*
X26300000Y-20800000D03*
D21*
X40000000Y-2600000D03*
X36000000Y-2600000D03*
D22*
X34600000Y-44350000D03*
X36900000Y-44350000D03*
D23*
X36900000Y-38050000D03*
D22*
X39200000Y-44350000D03*
D24*
X14610000Y-22400000D03*
X13590000Y-22400000D03*
D25*
X47000000Y-2500000D03*
X44200000Y-2500000D03*
D26*
X31900000Y-20900000D03*
X31900000Y-15500000D03*
D27*
X28300000Y-11665000D03*
X28300000Y-4935000D03*
D28*
X5400000Y-30600000D03*
X5400000Y-32500000D03*
X7275000Y-31550000D03*
D18*
X23650000Y-32400000D03*
X21750000Y-32400000D03*
D13*
X11900000Y-31812500D03*
X11900000Y-29987500D03*
D29*
X21400000Y-40700000D03*
X29000000Y-40700000D03*
D30*
X29400000Y-51312500D03*
D31*
X31900000Y-51312500D03*
X34400000Y-51312500D03*
X36900000Y-51312500D03*
X39400000Y-51312500D03*
D12*
X15225000Y-40100000D03*
X13400000Y-40100000D03*
D32*
X58300000Y-53225000D03*
X58300000Y-55100000D03*
D33*
X20337500Y-22900000D03*
X18462500Y-22900000D03*
D13*
X9800000Y-31812500D03*
X9800000Y-29987500D03*
D34*
X18450000Y-25200000D03*
X20350000Y-25200000D03*
D12*
X15700000Y-36100000D03*
X13875000Y-36100000D03*
D11*
X5200000Y-34400000D03*
X7025000Y-34400000D03*
D35*
X14350000Y-30190000D03*
X14350000Y-31460000D03*
X14350000Y-32730000D03*
X14350000Y-34000000D03*
X19300000Y-34000000D03*
X19300000Y-32730000D03*
X19300000Y-31460000D03*
X19300000Y-30190000D03*
D18*
X36000000Y-47200000D03*
X34100000Y-47200000D03*
D13*
X60800000Y-55100000D03*
X60800000Y-53275000D03*
D28*
X5425000Y-36350000D03*
X5425000Y-38250000D03*
X7300000Y-37300000D03*
D13*
X5100000Y-24512500D03*
X5100000Y-22687500D03*
D18*
X39750000Y-47200000D03*
X37850000Y-47200000D03*
D36*
X38725000Y-19125000D03*
X40425000Y-19125000D03*
X42125000Y-19125000D03*
D37*
X42125000Y-9975000D03*
D36*
X43825000Y-19125000D03*
X45525000Y-19125000D03*
D38*
X22404750Y-51350000D03*
D29*
X19904750Y-51350000D03*
X17404750Y-51350000D03*
X14904750Y-51350000D03*
D39*
X1900000Y-34420000D03*
D40*
X1900000Y-31880000D03*
X1900000Y-29340000D03*
X1900000Y-26800000D03*
X1900000Y-24260000D03*
D11*
X30475000Y-1900000D03*
X32300000Y-1900000D03*
D41*
X52000000Y-55000000D03*
X28500000Y-29735000D03*
D42*
X45200000Y-38500000D03*
X45200000Y-43900000D03*
D13*
X11900000Y-36312500D03*
X11900000Y-34487500D03*
D41*
X5000000Y-55000000D03*
D43*
X36247000Y-29700000D03*
X46153000Y-29700000D03*
D11*
X5187500Y-28600000D03*
X7012500Y-28600000D03*
D19*
X19850000Y-28000000D03*
X17750000Y-28000000D03*
D44*
X23500000Y-19920000D03*
X23500000Y-18650000D03*
X23500000Y-17380000D03*
X23500000Y-16110000D03*
X23500000Y-14840000D03*
X23500000Y-13570000D03*
X23500000Y-12300000D03*
X23500000Y-11030000D03*
X23500000Y-9760000D03*
X23500000Y-8490000D03*
X23500000Y-7220000D03*
X23500000Y-5950000D03*
X23500000Y-4680000D03*
X23500000Y-3410000D03*
D45*
X20465000Y-2315000D03*
X19195000Y-2315000D03*
X17925000Y-2315000D03*
X16655000Y-2315000D03*
X15385000Y-2315000D03*
X14115000Y-2315000D03*
X12845000Y-2315000D03*
X11575000Y-2315000D03*
X10305000Y-2315000D03*
X9035000Y-2315000D03*
D44*
X6000000Y-3410000D03*
X6000000Y-4680000D03*
X6000000Y-5950000D03*
X6000000Y-7220000D03*
X6000000Y-8490000D03*
X6000000Y-9760000D03*
X6000000Y-11030000D03*
X6000000Y-12300000D03*
X6000000Y-13570000D03*
X6000000Y-14840000D03*
X6000000Y-16110000D03*
X6000000Y-17380000D03*
X6000000Y-18650000D03*
X6000000Y-19920000D03*
D46*
X17650000Y-13055000D03*
X17650000Y-11655000D03*
X16950000Y-13755000D03*
X16950000Y-12355000D03*
X16950000Y-10955000D03*
X16250000Y-13055000D03*
D47*
X16250000Y-12355000D03*
D46*
X16250000Y-11655000D03*
X15550000Y-13755000D03*
X15550000Y-12355000D03*
X15550000Y-10955000D03*
X14850000Y-13055000D03*
X14850000Y-11655000D03*
D48*
X15250000Y-42525000D03*
X13350000Y-42525000D03*
X14300000Y-44400000D03*
D20*
X44900000Y-50850000D03*
X44900000Y-52750000D03*
D12*
X15225000Y-46700000D03*
X13400000Y-46700000D03*
M02*
