M48
; DRILL file {KiCad 7.0.11-7.0.11~ubuntu22.04.1} date Sab 12 Okt 2024 06:54:45 
; FORMAT={-:-/ absolute / inch / decimal}
; #@! TF.CreationDate,2024-10-12T06:54:45+07:00
; #@! TF.GenerationSoftware,Kicad,Pcbnew,7.0.11-7.0.11~ubuntu22.04.1
; #@! TF.FileFunction,Plated,1,4,PTH
FMAT,2
INCH
; #@! TA.AperFunction,Plated,PTH,ComponentDrill
T1C0.0079
; #@! TA.AperFunction,Plated,PTH,ViaDrill
T2C0.0157
; #@! TA.AperFunction,Plated,PTH,ComponentDrill
T3C0.0320
; #@! TA.AperFunction,Plated,PTH,ComponentDrill
T4C0.0390
; #@! TA.AperFunction,Plated,PTH,ComponentDrill
T5C0.0394
; #@! TA.AperFunction,Plated,PTH,ComponentDrill
T6C0.0520
%
G90
G05
T1
X1.753Y-0.9394
X1.753Y-0.9945
X1.7805Y-0.9118
X1.7805Y-0.9669
X1.7805Y-1.022
X1.8081Y-0.9394
X1.8081Y-0.9945
X1.8356Y-0.9118
X1.8356Y-0.9669
X1.8356Y-1.022
X1.8632Y-0.9394
X1.8632Y-0.9945
T2
X0.0807Y-0.9724
X0.2077Y-1.0945
X0.2461Y-1.1378
X0.2461Y-1.2244
X0.2795Y-0.9724
X0.2815Y-2.4429
X0.3268Y-3.4016
X0.3563Y-1.8425
X0.3563Y-1.9173
X0.4218Y-0.9724
X0.4409Y-2.1811
X0.4931Y-0.9724
X0.4941Y-1.0945
X0.5217Y-1.8425
X0.561Y-1.6713
X0.5768Y-2.3524
X0.6142Y-1.8366
X0.6161Y-0.9882
X0.685Y-1.7146
X0.7224Y-0.748
X0.7323Y-1.8642
X0.752Y-1.0748
X0.7933Y-1.2461
X0.7992Y-1.1378
X0.822Y-0.753
X0.8543Y-0.9764
X0.8937Y-0.7874
X0.937Y-0.748
X1.0669Y-1.0512
X1.2264Y-0.8976
X1.2421Y-1.0886
X1.2815Y-1.2362
X1.3681Y-0.8504
X1.372Y-1.5965
X1.3957Y-0.9823
X1.4528Y-1.9646
X1.4528Y-2.0984
X1.4528Y-2.1654
X1.4587Y-1.3898
X1.4921Y-1.8642
X1.5079Y-1.4705
X1.6024Y-0.6398
X1.6024Y-0.8189
X1.6142Y-2.3504
X1.6161Y-0.9823
X1.7638Y-1.2691
X1.8287Y-1.3031
X1.9094Y-3.4724
X1.9272Y-1.6398
X1.9843Y-1.0691
X1.9882Y-0.7874
X1.9882Y-0.8385
X1.9902Y-1.2191
X2.0394Y-1.8071
X2.0852Y-0.8191
X2.0984Y-3.3287
X2.1417Y-1.1181
X2.1419Y-0.8191
X2.1476Y-0.6693
X2.1654Y-2.3386
X2.1732Y-2.7717
X2.189Y-2.1004
X2.2146Y-1.4193
X2.2264Y-1.6398
X2.2598Y-2.2028
T3
X0.1562Y-2.5039
X0.1562Y-3.4016
X1.8294Y-2.7992
X1.8294Y-3.1063
T4
X2.0887Y-2.575
X2.0887Y-2.6734
X2.0887Y-2.7719
T5
X0.2323Y-0.8701
X0.2756Y-1.5157
X0.2756Y-1.6142
X0.2756Y-1.7126
X0.2756Y-1.811
X0.2756Y-1.9094
X0.3307Y-0.8701
X0.4291Y-0.8701
X0.5276Y-0.8701
X0.722Y-0.6752
X0.822Y-0.6752
X0.922Y-0.6752
X1.022Y-0.6752
X1.122Y-0.6752
X1.9291Y-1.7421
X2.2283Y-1.7421
T6
X2.0888Y-3.0497
X2.0888Y-3.1997
M30
