G04 #@! TF.GenerationSoftware,KiCad,Pcbnew,7.0.11-7.0.11~ubuntu22.04.1*
G04 #@! TF.CreationDate,2024-10-12T06:54:40+07:00*
G04 #@! TF.ProjectId,scale,7363616c-652e-46b6-9963-61645f706362,rev?*
G04 #@! TF.SameCoordinates,Original*
G04 #@! TF.FileFunction,Soldermask,Top*
G04 #@! TF.FilePolarity,Negative*
%FSLAX46Y46*%
G04 Gerber Fmt 4.6, Leading zero omitted, Abs format (unit mm)*
G04 Created by KiCad (PCBNEW 7.0.11-7.0.11~ubuntu22.04.1) date 2024-10-12 06:54:40*
%MOMM*%
%LPD*%
G01*
G04 APERTURE LIST*
G04 Aperture macros list*
%AMRoundRect*
0 Rectangle with rounded corners*
0 $1 Rounding radius*
0 $2 $3 $4 $5 $6 $7 $8 $9 X,Y pos of 4 corners*
0 Add a 4 corners polygon primitive as box body*
4,1,4,$2,$3,$4,$5,$6,$7,$8,$9,$2,$3,0*
0 Add four circle primitives for the rounded corners*
1,1,$1+$1,$2,$3*
1,1,$1+$1,$4,$5*
1,1,$1+$1,$6,$7*
1,1,$1+$1,$8,$9*
0 Add four rect primitives between the rounded corners*
20,1,$1+$1,$2,$3,$4,$5,0*
20,1,$1+$1,$4,$5,$6,$7,0*
20,1,$1+$1,$6,$7,$8,$9,0*
20,1,$1+$1,$8,$9,$2,$3,0*%
G04 Aperture macros list end*
%ADD10RoundRect,0.250000X-0.450000X0.262500X-0.450000X-0.262500X0.450000X-0.262500X0.450000X0.262500X0*%
%ADD11R,1.100000X0.250000*%
%ADD12RoundRect,0.250000X-0.262500X-0.450000X0.262500X-0.450000X0.262500X0.450000X-0.262500X0.450000X0*%
%ADD13C,1.828800*%
%ADD14RoundRect,0.250000X0.250000X0.475000X-0.250000X0.475000X-0.250000X-0.475000X0.250000X-0.475000X0*%
%ADD15RoundRect,0.250000X-1.000000X-0.650000X1.000000X-0.650000X1.000000X0.650000X-1.000000X0.650000X0*%
%ADD16RoundRect,0.250000X0.475000X-0.250000X0.475000X0.250000X-0.475000X0.250000X-0.475000X-0.250000X0*%
%ADD17RoundRect,0.250000X-0.650000X1.000000X-0.650000X-1.000000X0.650000X-1.000000X0.650000X1.000000X0*%
%ADD18RoundRect,0.375000X0.375000X-0.625000X0.375000X0.625000X-0.375000X0.625000X-0.375000X-0.625000X0*%
%ADD19RoundRect,0.500000X1.400000X-0.500000X1.400000X0.500000X-1.400000X0.500000X-1.400000X-0.500000X0*%
%ADD20RoundRect,0.250000X0.625000X-0.375000X0.625000X0.375000X-0.625000X0.375000X-0.625000X-0.375000X0*%
%ADD21RoundRect,0.250000X-0.550000X1.500000X-0.550000X-1.500000X0.550000X-1.500000X0.550000X1.500000X0*%
%ADD22R,1.120000X2.160000*%
%ADD23RoundRect,0.150000X-0.587500X-0.150000X0.587500X-0.150000X0.587500X0.150000X-0.587500X0.150000X0*%
%ADD24RoundRect,0.250000X-0.250000X-0.475000X0.250000X-0.475000X0.250000X0.475000X-0.250000X0.475000X0*%
%ADD25C,1.712000*%
%ADD26RoundRect,0.102000X-0.795000X0.795000X-0.795000X-0.795000X0.795000X-0.795000X0.795000X0.795000X0*%
%ADD27C,1.794000*%
%ADD28RoundRect,0.250000X0.262500X0.450000X-0.262500X0.450000X-0.262500X-0.450000X0.262500X-0.450000X0*%
%ADD29RoundRect,0.243750X-0.243750X-0.456250X0.243750X-0.456250X0.243750X0.456250X-0.243750X0.456250X0*%
%ADD30RoundRect,0.243750X0.243750X0.456250X-0.243750X0.456250X-0.243750X-0.456250X0.243750X-0.456250X0*%
%ADD31RoundRect,0.250000X-0.475000X0.250000X-0.475000X-0.250000X0.475000X-0.250000X0.475000X0.250000X0*%
%ADD32C,1.320800*%
%ADD33RoundRect,0.150000X0.825000X0.150000X-0.825000X0.150000X-0.825000X-0.150000X0.825000X-0.150000X0*%
%ADD34RoundRect,0.150000X0.150000X-0.587500X0.150000X0.587500X-0.150000X0.587500X-0.150000X-0.587500X0*%
%ADD35RoundRect,0.250000X1.000000X0.650000X-1.000000X0.650000X-1.000000X-0.650000X1.000000X-0.650000X0*%
%ADD36RoundRect,0.250000X2.050000X0.300000X-2.050000X0.300000X-2.050000X-0.300000X2.050000X-0.300000X0*%
%ADD37RoundRect,0.250002X4.449998X5.149998X-4.449998X5.149998X-4.449998X-5.149998X4.449998X-5.149998X0*%
%ADD38RoundRect,0.102000X-0.754000X-0.754000X0.754000X-0.754000X0.754000X0.754000X-0.754000X0.754000X0*%
%ADD39R,1.700000X1.700000*%
%ADD40O,1.700000X1.700000*%
%ADD41C,3.000000*%
%ADD42C,1.498600*%
%ADD43RoundRect,0.250000X0.550000X-1.500000X0.550000X1.500000X-0.550000X1.500000X-0.550000X-1.500000X0*%
%ADD44R,2.895600X5.410200*%
%ADD45R,1.500000X0.900000*%
%ADD46R,0.900000X1.500000*%
%ADD47C,0.600000*%
%ADD48R,3.800000X3.800000*%
G04 APERTURE END LIST*
D10*
X58500000Y-35825000D03*
X58500000Y-37650000D03*
D11*
X19200000Y-24350000D03*
X19200000Y-24850000D03*
X19200000Y-25350000D03*
X19200000Y-25850000D03*
X19200000Y-26350000D03*
X23500000Y-26350000D03*
X23500000Y-25850000D03*
X23500000Y-25350000D03*
X23500000Y-24850000D03*
X23500000Y-24350000D03*
D12*
X22187500Y-30900000D03*
X24012500Y-30900000D03*
D10*
X11150000Y-32387500D03*
X11150000Y-34212500D03*
D12*
X12525000Y-26350000D03*
X14350000Y-26350000D03*
D13*
X53054901Y-81271601D03*
X53054901Y-77461601D03*
D10*
X17300000Y-25087500D03*
X17300000Y-26912500D03*
D14*
X34500000Y-18250000D03*
X32600000Y-18250000D03*
D12*
X27387500Y-25000000D03*
X29212500Y-25000000D03*
D15*
X41400000Y-37950000D03*
X45400000Y-37950000D03*
D16*
X36450000Y-18500000D03*
X36450000Y-16600000D03*
D17*
X35300000Y-33350000D03*
X35300000Y-37350000D03*
D18*
X13300000Y-55400000D03*
X15600000Y-55400000D03*
D19*
X15600000Y-49100000D03*
D18*
X17900000Y-55400000D03*
D20*
X47250000Y-58350000D03*
X47250000Y-55550000D03*
D21*
X41000000Y-51800000D03*
X41000000Y-57200000D03*
D22*
X34750000Y-29815000D03*
X34750000Y-23085000D03*
D23*
X20825000Y-20450000D03*
X20825000Y-22350000D03*
X22700000Y-21400000D03*
D24*
X3050000Y-34350000D03*
X4950000Y-34350000D03*
D10*
X11150000Y-28837500D03*
X11150000Y-30662500D03*
D25*
X49000000Y-44250000D03*
X56600000Y-44250000D03*
D26*
X7000000Y-38500000D03*
D27*
X7000000Y-41000000D03*
X7000000Y-43500000D03*
X7000000Y-46000000D03*
X7000000Y-48500000D03*
D28*
X58350000Y-54300000D03*
X56525000Y-54300000D03*
D29*
X54462500Y-86450000D03*
X56337500Y-86450000D03*
D30*
X24037500Y-28850000D03*
X22162500Y-28850000D03*
D12*
X5275000Y-26350000D03*
X7100000Y-26350000D03*
D31*
X25500000Y-24300000D03*
X25500000Y-26200000D03*
D32*
X46466596Y-78900000D03*
X46466596Y-71100000D03*
X3966604Y-86399998D03*
X3966604Y-63600003D03*
D12*
X14000000Y-40650000D03*
X15825000Y-40650000D03*
D10*
X24800000Y-20487500D03*
X24800000Y-22312500D03*
D33*
X8325000Y-32305000D03*
X8325000Y-31035000D03*
X8325000Y-29765000D03*
X8325000Y-28495000D03*
X3375000Y-28495000D03*
X3375000Y-29765000D03*
X3375000Y-31035000D03*
X3375000Y-32305000D03*
D34*
X56450000Y-59400000D03*
X58350000Y-59400000D03*
X57400000Y-57525000D03*
D14*
X14650000Y-58000000D03*
X12750000Y-58000000D03*
D10*
X51150000Y-86387500D03*
X51150000Y-88212500D03*
D15*
X13950000Y-33700000D03*
X17950000Y-33700000D03*
D23*
X26900000Y-20450000D03*
X26900000Y-22350000D03*
X28775000Y-21400000D03*
D10*
X31150000Y-24125000D03*
X31150000Y-25950000D03*
D14*
X18450000Y-58000000D03*
X16550000Y-58000000D03*
D35*
X17950000Y-29800000D03*
X13950000Y-29800000D03*
D36*
X33800000Y-56700000D03*
X33800000Y-55000000D03*
X33800000Y-53300000D03*
D37*
X24650000Y-53300000D03*
D36*
X33800000Y-51600000D03*
X33800000Y-49900000D03*
D38*
X5900000Y-22100000D03*
D25*
X8400000Y-22100000D03*
X10900000Y-22100000D03*
X13400000Y-22100000D03*
D39*
X28500000Y-17150000D03*
D40*
X25960000Y-17150000D03*
X23420000Y-17150000D03*
X20880000Y-17150000D03*
X18340000Y-17150000D03*
D12*
X34800000Y-20450000D03*
X36625000Y-20450000D03*
D41*
X52000000Y-55000000D03*
X28500000Y-29735000D03*
D42*
X53053101Y-65404778D03*
X53053101Y-67904900D03*
X53053101Y-70405022D03*
D43*
X40950000Y-47350000D03*
X40950000Y-41950000D03*
D28*
X10712500Y-26350000D03*
X8887500Y-26350000D03*
D41*
X5000000Y-55000000D03*
D44*
X31300000Y-40550000D03*
X21394000Y-40550000D03*
D10*
X18700000Y-20487500D03*
X18700000Y-22312500D03*
D45*
X38675000Y-16995000D03*
X38675000Y-18265000D03*
X38675000Y-19535000D03*
X38675000Y-20805000D03*
X38675000Y-22075000D03*
X38675000Y-23345000D03*
X38675000Y-24615000D03*
X38675000Y-25885000D03*
X38675000Y-27155000D03*
X38675000Y-28425000D03*
X38675000Y-29695000D03*
X38675000Y-30965000D03*
X38675000Y-32235000D03*
X38675000Y-33505000D03*
D46*
X41710000Y-34600000D03*
X42980000Y-34600000D03*
X44250000Y-34600000D03*
X45520000Y-34600000D03*
X46790000Y-34600000D03*
X48060000Y-34600000D03*
X49330000Y-34600000D03*
X50600000Y-34600000D03*
X51870000Y-34600000D03*
X53140000Y-34600000D03*
D45*
X56175000Y-33505000D03*
X56175000Y-32235000D03*
X56175000Y-30965000D03*
X56175000Y-29695000D03*
X56175000Y-28425000D03*
X56175000Y-27155000D03*
X56175000Y-25885000D03*
X56175000Y-24615000D03*
X56175000Y-23345000D03*
X56175000Y-22075000D03*
X56175000Y-20805000D03*
X56175000Y-19535000D03*
X56175000Y-18265000D03*
X56175000Y-16995000D03*
D47*
X44525000Y-23860000D03*
X44525000Y-25260000D03*
X45225000Y-23160000D03*
X45225000Y-24560000D03*
X45225000Y-25960000D03*
X45925000Y-23860000D03*
D48*
X45925000Y-24560000D03*
D47*
X45925000Y-25260000D03*
X46625000Y-23160000D03*
X46625000Y-24560000D03*
X46625000Y-25960000D03*
X47325000Y-23860000D03*
X47325000Y-25260000D03*
D16*
X10800000Y-48700000D03*
X10800000Y-46800000D03*
D28*
X58262500Y-52250000D03*
X56437500Y-52250000D03*
M02*
