M48
; DRILL file {KiCad 7.0.11-7.0.11~ubuntu22.04.1} date Jum 13 Sep 2024 05:01:46 
; FORMAT={-:-/ absolute / inch / decimal}
; #@! TF.CreationDate,2024-09-13T17:01:46+07:00
; #@! TF.GenerationSoftware,Kicad,Pcbnew,7.0.11-7.0.11~ubuntu22.04.1
; #@! TF.FileFunction,Plated,1,4,PTH
FMAT,2
INCH
; #@! TA.AperFunction,Plated,PTH,ComponentDrill
T1C0.0079
; #@! TA.AperFunction,Plated,PTH,ViaDrill
T2C0.0157
; #@! TA.AperFunction,Plated,PTH,ComponentDrill
T3C0.0320
; #@! TA.AperFunction,Plated,PTH,ComponentDrill
T4C0.0394
; #@! TA.AperFunction,Plated,PTH,ComponentDrill
T5C0.0520
%
G90
G05
T1
X0.5846Y-0.4589
X0.5846Y-0.514
X0.6122Y-0.4313
X0.6122Y-0.4864
X0.6122Y-0.5415
X0.6398Y-0.4589
X0.6398Y-0.514
X0.6673Y-0.4313
X0.6673Y-0.4864
X0.6673Y-0.5415
X0.6949Y-0.4589
X0.6949Y-0.514
T2
X0.0748Y-0.8701
X0.1535Y-0.185
X0.1614Y-0.4134
X0.1614Y-0.5866
X0.1654Y-0.6339
X0.2638Y-1.0157
X0.2864Y-1.186
X0.2874Y-1.4173
X0.3012Y-0.8307
X0.315Y-0.7205
X0.3189Y-1.0433
X0.3248Y-0.502
X0.3248Y-0.5807
X0.374Y-1.1024
X0.3858Y-1.3031
X0.5Y-1.3031
X0.5039Y-1.5157
X0.5118Y-1.7461
X0.5689Y-1.498
X0.5787Y-0.9499
X0.5787Y-0.9961
X0.5866Y-1.9488
X0.6102Y-0.6843
X0.6417Y-1.2402
X0.6417Y-1.2933
X0.6614Y-1.8031
X0.6654Y-0.2402
X0.6713Y-1.4213
X0.685Y-1.9488
X0.7087Y-1.748
X0.7677Y-1.9488
X0.7953Y-0.2126
X0.8307Y-0.2441
X0.8307Y-1.0551
X0.8563Y-1.3346
X0.8661Y-0.2756
X0.8819Y-0.0728
X0.8819Y-1.9488
X0.9134Y-1.437
X0.9528Y-1.437
X0.9921Y-1.437
X1.0354Y-0.6693
X1.0354Y-0.8878
X1.1864Y-0.4593
X1.2559Y-0.5
X1.315Y-1.498
X1.3228Y-0.378
X1.4291Y-0.752
X1.4291Y-0.9134
X1.5748Y-0.1693
X1.6142Y-1.9488
X1.6673Y-2.0197
X1.6772Y-0.1417
X1.8386Y-2.0768
X1.8583Y-1.7972
X1.8898Y-0.7441
X2.0315Y-0.063
X2.2244Y-2.0276
T3
X2.0551Y-0.1621
X2.3504Y-1.8353
X2.6575Y-1.8353
X2.9528Y-0.1621
T4
X0.0748Y-0.9551
X0.0748Y-1.0551
X0.0748Y-1.1551
X0.0748Y-1.2551
X0.0748Y-1.3551
X0.5868Y-2.0217
X0.6852Y-2.0217
X0.7837Y-2.0217
X0.8425Y-1.6024
X0.8821Y-2.0217
X1.1417Y-1.6024
X1.1575Y-2.0202
X1.2559Y-2.0202
X1.3543Y-2.0202
X1.4528Y-2.0202
X1.5512Y-2.0202
T5
X2.6625Y-2.075
X2.8125Y-2.075
M30
