%TF.GenerationSoftware,KiCad,Pcbnew,7.0.11-7.0.11~ubuntu22.04.1*%
%TF.CreationDate,2024-10-12T06:54:47+07:00*%
%TF.ProjectId,scale,7363616c-652e-46b6-9963-61645f706362,rev?*%
%TF.SameCoordinates,Original*%
%TF.FileFunction,Drillmap*%
%TF.FilePolarity,Positive*%
%FSLAX45Y45*%
G04 Gerber Fmt 4.5, Leading zero omitted, Abs format (unit mm)*
G04 Created by KiCad (PCBNEW 7.0.11-7.0.11~ubuntu22.04.1) date 2024-10-12 06:54:47*
%MOMM*%
%LPD*%
G01*
G04 APERTURE LIST*
%ADD10C,0.050000*%
%ADD11C,0.200000*%
%ADD12C,0.300000*%
G04 APERTURE END LIST*
D10*
X0Y-8600000D02*
X0Y-1900000D01*
X0Y-8600000D02*
G75*
G03*
X400000Y-9000000I400000J0D01*
G01*
X5600000Y-9000000D02*
G75*
G03*
X6000000Y-8600000I0J400000D01*
G01*
X400000Y-1500000D02*
X5600000Y-1500000D01*
X6000000Y-1900000D02*
X6000000Y-8600000D01*
X6000000Y-1900000D02*
G75*
G03*
X5600000Y-1500000I-400000J0D01*
G01*
X5600000Y-9000000D02*
X400000Y-9000000D01*
X400000Y-1500000D02*
G75*
G03*
X0Y-1900000I0J-400000D01*
G01*
D11*
D12*
X350000Y-5350000D02*
X650000Y-5650000D01*
X650000Y-5350000D02*
X350000Y-5650000D01*
X2700000Y-2823500D02*
X3000000Y-3123500D01*
X3000000Y-2823500D02*
X2700000Y-3123500D01*
X5050000Y-5350000D02*
X5350000Y-5650000D01*
X5350000Y-5350000D02*
X5050000Y-5650000D01*
D11*
X258277Y-9313984D02*
X258277Y-9113984D01*
X258277Y-9113984D02*
X305896Y-9113984D01*
X305896Y-9113984D02*
X334467Y-9123508D01*
X334467Y-9123508D02*
X353515Y-9142555D01*
X353515Y-9142555D02*
X363039Y-9161603D01*
X363039Y-9161603D02*
X372562Y-9199698D01*
X372562Y-9199698D02*
X372562Y-9228270D01*
X372562Y-9228270D02*
X363039Y-9266365D01*
X363039Y-9266365D02*
X353515Y-9285412D01*
X353515Y-9285412D02*
X334467Y-9304460D01*
X334467Y-9304460D02*
X305896Y-9313984D01*
X305896Y-9313984D02*
X258277Y-9313984D01*
X458277Y-9313984D02*
X458277Y-9180650D01*
X458277Y-9218746D02*
X467801Y-9199698D01*
X467801Y-9199698D02*
X477324Y-9190174D01*
X477324Y-9190174D02*
X496372Y-9180650D01*
X496372Y-9180650D02*
X515420Y-9180650D01*
X582086Y-9313984D02*
X582086Y-9180650D01*
X582086Y-9113984D02*
X572563Y-9123508D01*
X572563Y-9123508D02*
X582086Y-9133031D01*
X582086Y-9133031D02*
X591610Y-9123508D01*
X591610Y-9123508D02*
X582086Y-9113984D01*
X582086Y-9113984D02*
X582086Y-9133031D01*
X705896Y-9313984D02*
X686848Y-9304460D01*
X686848Y-9304460D02*
X677324Y-9285412D01*
X677324Y-9285412D02*
X677324Y-9113984D01*
X810658Y-9313984D02*
X791610Y-9304460D01*
X791610Y-9304460D02*
X782086Y-9285412D01*
X782086Y-9285412D02*
X782086Y-9113984D01*
X1039229Y-9313984D02*
X1039229Y-9113984D01*
X1039229Y-9113984D02*
X1105896Y-9256841D01*
X1105896Y-9256841D02*
X1172563Y-9113984D01*
X1172563Y-9113984D02*
X1172563Y-9313984D01*
X1353515Y-9313984D02*
X1353515Y-9209222D01*
X1353515Y-9209222D02*
X1343991Y-9190174D01*
X1343991Y-9190174D02*
X1324944Y-9180650D01*
X1324944Y-9180650D02*
X1286848Y-9180650D01*
X1286848Y-9180650D02*
X1267801Y-9190174D01*
X1353515Y-9304460D02*
X1334467Y-9313984D01*
X1334467Y-9313984D02*
X1286848Y-9313984D01*
X1286848Y-9313984D02*
X1267801Y-9304460D01*
X1267801Y-9304460D02*
X1258277Y-9285412D01*
X1258277Y-9285412D02*
X1258277Y-9266365D01*
X1258277Y-9266365D02*
X1267801Y-9247317D01*
X1267801Y-9247317D02*
X1286848Y-9237793D01*
X1286848Y-9237793D02*
X1334467Y-9237793D01*
X1334467Y-9237793D02*
X1353515Y-9228270D01*
X1448753Y-9180650D02*
X1448753Y-9380650D01*
X1448753Y-9190174D02*
X1467801Y-9180650D01*
X1467801Y-9180650D02*
X1505896Y-9180650D01*
X1505896Y-9180650D02*
X1524943Y-9190174D01*
X1524943Y-9190174D02*
X1534467Y-9199698D01*
X1534467Y-9199698D02*
X1543991Y-9218746D01*
X1543991Y-9218746D02*
X1543991Y-9275889D01*
X1543991Y-9275889D02*
X1534467Y-9294936D01*
X1534467Y-9294936D02*
X1524943Y-9304460D01*
X1524943Y-9304460D02*
X1505896Y-9313984D01*
X1505896Y-9313984D02*
X1467801Y-9313984D01*
X1467801Y-9313984D02*
X1448753Y-9304460D01*
X1629705Y-9294936D02*
X1639229Y-9304460D01*
X1639229Y-9304460D02*
X1629705Y-9313984D01*
X1629705Y-9313984D02*
X1620182Y-9304460D01*
X1620182Y-9304460D02*
X1629705Y-9294936D01*
X1629705Y-9294936D02*
X1629705Y-9313984D01*
X1629705Y-9190174D02*
X1639229Y-9199698D01*
X1639229Y-9199698D02*
X1629705Y-9209222D01*
X1629705Y-9209222D02*
X1620182Y-9199698D01*
X1620182Y-9199698D02*
X1629705Y-9190174D01*
X1629705Y-9190174D02*
X1629705Y-9209222D01*
X-202500Y-9542500D02*
X-2500Y-9742500D01*
X-2500Y-9542500D02*
X-202500Y-9742500D01*
X239229Y-9533984D02*
X363039Y-9533984D01*
X363039Y-9533984D02*
X296372Y-9610174D01*
X296372Y-9610174D02*
X324944Y-9610174D01*
X324944Y-9610174D02*
X343991Y-9619698D01*
X343991Y-9619698D02*
X353515Y-9629222D01*
X353515Y-9629222D02*
X363039Y-9648270D01*
X363039Y-9648270D02*
X363039Y-9695889D01*
X363039Y-9695889D02*
X353515Y-9714936D01*
X353515Y-9714936D02*
X343991Y-9724460D01*
X343991Y-9724460D02*
X324944Y-9733984D01*
X324944Y-9733984D02*
X267801Y-9733984D01*
X267801Y-9733984D02*
X248753Y-9724460D01*
X248753Y-9724460D02*
X239229Y-9714936D01*
X448753Y-9714936D02*
X458277Y-9724460D01*
X458277Y-9724460D02*
X448753Y-9733984D01*
X448753Y-9733984D02*
X439229Y-9724460D01*
X439229Y-9724460D02*
X448753Y-9714936D01*
X448753Y-9714936D02*
X448753Y-9733984D01*
X582086Y-9533984D02*
X601134Y-9533984D01*
X601134Y-9533984D02*
X620182Y-9543508D01*
X620182Y-9543508D02*
X629705Y-9553031D01*
X629705Y-9553031D02*
X639229Y-9572079D01*
X639229Y-9572079D02*
X648753Y-9610174D01*
X648753Y-9610174D02*
X648753Y-9657793D01*
X648753Y-9657793D02*
X639229Y-9695889D01*
X639229Y-9695889D02*
X629705Y-9714936D01*
X629705Y-9714936D02*
X620182Y-9724460D01*
X620182Y-9724460D02*
X601134Y-9733984D01*
X601134Y-9733984D02*
X582086Y-9733984D01*
X582086Y-9733984D02*
X563039Y-9724460D01*
X563039Y-9724460D02*
X553515Y-9714936D01*
X553515Y-9714936D02*
X543991Y-9695889D01*
X543991Y-9695889D02*
X534467Y-9657793D01*
X534467Y-9657793D02*
X534467Y-9610174D01*
X534467Y-9610174D02*
X543991Y-9572079D01*
X543991Y-9572079D02*
X553515Y-9553031D01*
X553515Y-9553031D02*
X563039Y-9543508D01*
X563039Y-9543508D02*
X582086Y-9533984D01*
X772562Y-9533984D02*
X791610Y-9533984D01*
X791610Y-9533984D02*
X810658Y-9543508D01*
X810658Y-9543508D02*
X820182Y-9553031D01*
X820182Y-9553031D02*
X829705Y-9572079D01*
X829705Y-9572079D02*
X839229Y-9610174D01*
X839229Y-9610174D02*
X839229Y-9657793D01*
X839229Y-9657793D02*
X829705Y-9695889D01*
X829705Y-9695889D02*
X820182Y-9714936D01*
X820182Y-9714936D02*
X810658Y-9724460D01*
X810658Y-9724460D02*
X791610Y-9733984D01*
X791610Y-9733984D02*
X772562Y-9733984D01*
X772562Y-9733984D02*
X753515Y-9724460D01*
X753515Y-9724460D02*
X743991Y-9714936D01*
X743991Y-9714936D02*
X734467Y-9695889D01*
X734467Y-9695889D02*
X724943Y-9657793D01*
X724943Y-9657793D02*
X724943Y-9610174D01*
X724943Y-9610174D02*
X734467Y-9572079D01*
X734467Y-9572079D02*
X743991Y-9553031D01*
X743991Y-9553031D02*
X753515Y-9543508D01*
X753515Y-9543508D02*
X772562Y-9533984D01*
X963039Y-9533984D02*
X982086Y-9533984D01*
X982086Y-9533984D02*
X1001134Y-9543508D01*
X1001134Y-9543508D02*
X1010658Y-9553031D01*
X1010658Y-9553031D02*
X1020182Y-9572079D01*
X1020182Y-9572079D02*
X1029705Y-9610174D01*
X1029705Y-9610174D02*
X1029705Y-9657793D01*
X1029705Y-9657793D02*
X1020182Y-9695889D01*
X1020182Y-9695889D02*
X1010658Y-9714936D01*
X1010658Y-9714936D02*
X1001134Y-9724460D01*
X1001134Y-9724460D02*
X982086Y-9733984D01*
X982086Y-9733984D02*
X963039Y-9733984D01*
X963039Y-9733984D02*
X943991Y-9724460D01*
X943991Y-9724460D02*
X934467Y-9714936D01*
X934467Y-9714936D02*
X924943Y-9695889D01*
X924943Y-9695889D02*
X915420Y-9657793D01*
X915420Y-9657793D02*
X915420Y-9610174D01*
X915420Y-9610174D02*
X924943Y-9572079D01*
X924943Y-9572079D02*
X934467Y-9553031D01*
X934467Y-9553031D02*
X943991Y-9543508D01*
X943991Y-9543508D02*
X963039Y-9533984D01*
X1115420Y-9733984D02*
X1115420Y-9600650D01*
X1115420Y-9619698D02*
X1124944Y-9610174D01*
X1124944Y-9610174D02*
X1143991Y-9600650D01*
X1143991Y-9600650D02*
X1172563Y-9600650D01*
X1172563Y-9600650D02*
X1191610Y-9610174D01*
X1191610Y-9610174D02*
X1201134Y-9629222D01*
X1201134Y-9629222D02*
X1201134Y-9733984D01*
X1201134Y-9629222D02*
X1210658Y-9610174D01*
X1210658Y-9610174D02*
X1229705Y-9600650D01*
X1229705Y-9600650D02*
X1258277Y-9600650D01*
X1258277Y-9600650D02*
X1277325Y-9610174D01*
X1277325Y-9610174D02*
X1286848Y-9629222D01*
X1286848Y-9629222D02*
X1286848Y-9733984D01*
X1382086Y-9733984D02*
X1382086Y-9600650D01*
X1382086Y-9619698D02*
X1391610Y-9610174D01*
X1391610Y-9610174D02*
X1410658Y-9600650D01*
X1410658Y-9600650D02*
X1439229Y-9600650D01*
X1439229Y-9600650D02*
X1458277Y-9610174D01*
X1458277Y-9610174D02*
X1467801Y-9629222D01*
X1467801Y-9629222D02*
X1467801Y-9733984D01*
X1467801Y-9629222D02*
X1477324Y-9610174D01*
X1477324Y-9610174D02*
X1496372Y-9600650D01*
X1496372Y-9600650D02*
X1524943Y-9600650D01*
X1524943Y-9600650D02*
X1543991Y-9610174D01*
X1543991Y-9610174D02*
X1553515Y-9629222D01*
X1553515Y-9629222D02*
X1553515Y-9733984D01*
X1943991Y-9524460D02*
X1772563Y-9781603D01*
X2201134Y-9533984D02*
X2220182Y-9533984D01*
X2220182Y-9533984D02*
X2239229Y-9543508D01*
X2239229Y-9543508D02*
X2248753Y-9553031D01*
X2248753Y-9553031D02*
X2258277Y-9572079D01*
X2258277Y-9572079D02*
X2267801Y-9610174D01*
X2267801Y-9610174D02*
X2267801Y-9657793D01*
X2267801Y-9657793D02*
X2258277Y-9695889D01*
X2258277Y-9695889D02*
X2248753Y-9714936D01*
X2248753Y-9714936D02*
X2239229Y-9724460D01*
X2239229Y-9724460D02*
X2220182Y-9733984D01*
X2220182Y-9733984D02*
X2201134Y-9733984D01*
X2201134Y-9733984D02*
X2182087Y-9724460D01*
X2182087Y-9724460D02*
X2172563Y-9714936D01*
X2172563Y-9714936D02*
X2163039Y-9695889D01*
X2163039Y-9695889D02*
X2153515Y-9657793D01*
X2153515Y-9657793D02*
X2153515Y-9610174D01*
X2153515Y-9610174D02*
X2163039Y-9572079D01*
X2163039Y-9572079D02*
X2172563Y-9553031D01*
X2172563Y-9553031D02*
X2182087Y-9543508D01*
X2182087Y-9543508D02*
X2201134Y-9533984D01*
X2353515Y-9714936D02*
X2363039Y-9724460D01*
X2363039Y-9724460D02*
X2353515Y-9733984D01*
X2353515Y-9733984D02*
X2343991Y-9724460D01*
X2343991Y-9724460D02*
X2353515Y-9714936D01*
X2353515Y-9714936D02*
X2353515Y-9733984D01*
X2553515Y-9733984D02*
X2439229Y-9733984D01*
X2496372Y-9733984D02*
X2496372Y-9533984D01*
X2496372Y-9533984D02*
X2477325Y-9562555D01*
X2477325Y-9562555D02*
X2458277Y-9581603D01*
X2458277Y-9581603D02*
X2439229Y-9591127D01*
X2743991Y-9733984D02*
X2629706Y-9733984D01*
X2686848Y-9733984D02*
X2686848Y-9533984D01*
X2686848Y-9533984D02*
X2667801Y-9562555D01*
X2667801Y-9562555D02*
X2648753Y-9581603D01*
X2648753Y-9581603D02*
X2629706Y-9591127D01*
X2858277Y-9619698D02*
X2839229Y-9610174D01*
X2839229Y-9610174D02*
X2829706Y-9600650D01*
X2829706Y-9600650D02*
X2820182Y-9581603D01*
X2820182Y-9581603D02*
X2820182Y-9572079D01*
X2820182Y-9572079D02*
X2829706Y-9553031D01*
X2829706Y-9553031D02*
X2839229Y-9543508D01*
X2839229Y-9543508D02*
X2858277Y-9533984D01*
X2858277Y-9533984D02*
X2896372Y-9533984D01*
X2896372Y-9533984D02*
X2915420Y-9543508D01*
X2915420Y-9543508D02*
X2924944Y-9553031D01*
X2924944Y-9553031D02*
X2934467Y-9572079D01*
X2934467Y-9572079D02*
X2934467Y-9581603D01*
X2934467Y-9581603D02*
X2924944Y-9600650D01*
X2924944Y-9600650D02*
X2915420Y-9610174D01*
X2915420Y-9610174D02*
X2896372Y-9619698D01*
X2896372Y-9619698D02*
X2858277Y-9619698D01*
X2858277Y-9619698D02*
X2839229Y-9629222D01*
X2839229Y-9629222D02*
X2829706Y-9638746D01*
X2829706Y-9638746D02*
X2820182Y-9657793D01*
X2820182Y-9657793D02*
X2820182Y-9695889D01*
X2820182Y-9695889D02*
X2829706Y-9714936D01*
X2829706Y-9714936D02*
X2839229Y-9724460D01*
X2839229Y-9724460D02*
X2858277Y-9733984D01*
X2858277Y-9733984D02*
X2896372Y-9733984D01*
X2896372Y-9733984D02*
X2915420Y-9724460D01*
X2915420Y-9724460D02*
X2924944Y-9714936D01*
X2924944Y-9714936D02*
X2934467Y-9695889D01*
X2934467Y-9695889D02*
X2934467Y-9657793D01*
X2934467Y-9657793D02*
X2924944Y-9638746D01*
X2924944Y-9638746D02*
X2915420Y-9629222D01*
X2915420Y-9629222D02*
X2896372Y-9619698D01*
X3124944Y-9733984D02*
X3010658Y-9733984D01*
X3067801Y-9733984D02*
X3067801Y-9533984D01*
X3067801Y-9533984D02*
X3048753Y-9562555D01*
X3048753Y-9562555D02*
X3029706Y-9581603D01*
X3029706Y-9581603D02*
X3010658Y-9591127D01*
X3201134Y-9533984D02*
X3201134Y-9572079D01*
X3277325Y-9533984D02*
X3277325Y-9572079D01*
X3572563Y-9810174D02*
X3563039Y-9800650D01*
X3563039Y-9800650D02*
X3543991Y-9772079D01*
X3543991Y-9772079D02*
X3534468Y-9753031D01*
X3534468Y-9753031D02*
X3524944Y-9724460D01*
X3524944Y-9724460D02*
X3515420Y-9676841D01*
X3515420Y-9676841D02*
X3515420Y-9638746D01*
X3515420Y-9638746D02*
X3524944Y-9591127D01*
X3524944Y-9591127D02*
X3534468Y-9562555D01*
X3534468Y-9562555D02*
X3543991Y-9543508D01*
X3543991Y-9543508D02*
X3563039Y-9514936D01*
X3563039Y-9514936D02*
X3572563Y-9505412D01*
X3629706Y-9533984D02*
X3753515Y-9533984D01*
X3753515Y-9533984D02*
X3686848Y-9610174D01*
X3686848Y-9610174D02*
X3715420Y-9610174D01*
X3715420Y-9610174D02*
X3734468Y-9619698D01*
X3734468Y-9619698D02*
X3743991Y-9629222D01*
X3743991Y-9629222D02*
X3753515Y-9648270D01*
X3753515Y-9648270D02*
X3753515Y-9695889D01*
X3753515Y-9695889D02*
X3743991Y-9714936D01*
X3743991Y-9714936D02*
X3734468Y-9724460D01*
X3734468Y-9724460D02*
X3715420Y-9733984D01*
X3715420Y-9733984D02*
X3658277Y-9733984D01*
X3658277Y-9733984D02*
X3639229Y-9724460D01*
X3639229Y-9724460D02*
X3629706Y-9714936D01*
X3991610Y-9733984D02*
X3991610Y-9533984D01*
X4077325Y-9733984D02*
X4077325Y-9629222D01*
X4077325Y-9629222D02*
X4067801Y-9610174D01*
X4067801Y-9610174D02*
X4048753Y-9600650D01*
X4048753Y-9600650D02*
X4020182Y-9600650D01*
X4020182Y-9600650D02*
X4001134Y-9610174D01*
X4001134Y-9610174D02*
X3991610Y-9619698D01*
X4201134Y-9733984D02*
X4182087Y-9724460D01*
X4182087Y-9724460D02*
X4172563Y-9714936D01*
X4172563Y-9714936D02*
X4163039Y-9695889D01*
X4163039Y-9695889D02*
X4163039Y-9638746D01*
X4163039Y-9638746D02*
X4172563Y-9619698D01*
X4172563Y-9619698D02*
X4182087Y-9610174D01*
X4182087Y-9610174D02*
X4201134Y-9600650D01*
X4201134Y-9600650D02*
X4229706Y-9600650D01*
X4229706Y-9600650D02*
X4248753Y-9610174D01*
X4248753Y-9610174D02*
X4258277Y-9619698D01*
X4258277Y-9619698D02*
X4267801Y-9638746D01*
X4267801Y-9638746D02*
X4267801Y-9695889D01*
X4267801Y-9695889D02*
X4258277Y-9714936D01*
X4258277Y-9714936D02*
X4248753Y-9724460D01*
X4248753Y-9724460D02*
X4229706Y-9733984D01*
X4229706Y-9733984D02*
X4201134Y-9733984D01*
X4382087Y-9733984D02*
X4363039Y-9724460D01*
X4363039Y-9724460D02*
X4353515Y-9705412D01*
X4353515Y-9705412D02*
X4353515Y-9533984D01*
X4534468Y-9724460D02*
X4515420Y-9733984D01*
X4515420Y-9733984D02*
X4477325Y-9733984D01*
X4477325Y-9733984D02*
X4458277Y-9724460D01*
X4458277Y-9724460D02*
X4448753Y-9705412D01*
X4448753Y-9705412D02*
X4448753Y-9629222D01*
X4448753Y-9629222D02*
X4458277Y-9610174D01*
X4458277Y-9610174D02*
X4477325Y-9600650D01*
X4477325Y-9600650D02*
X4515420Y-9600650D01*
X4515420Y-9600650D02*
X4534468Y-9610174D01*
X4534468Y-9610174D02*
X4543992Y-9629222D01*
X4543992Y-9629222D02*
X4543992Y-9648270D01*
X4543992Y-9648270D02*
X4448753Y-9667317D01*
X4620182Y-9724460D02*
X4639230Y-9733984D01*
X4639230Y-9733984D02*
X4677325Y-9733984D01*
X4677325Y-9733984D02*
X4696373Y-9724460D01*
X4696373Y-9724460D02*
X4705896Y-9705412D01*
X4705896Y-9705412D02*
X4705896Y-9695889D01*
X4705896Y-9695889D02*
X4696373Y-9676841D01*
X4696373Y-9676841D02*
X4677325Y-9667317D01*
X4677325Y-9667317D02*
X4648753Y-9667317D01*
X4648753Y-9667317D02*
X4629706Y-9657793D01*
X4629706Y-9657793D02*
X4620182Y-9638746D01*
X4620182Y-9638746D02*
X4620182Y-9629222D01*
X4620182Y-9629222D02*
X4629706Y-9610174D01*
X4629706Y-9610174D02*
X4648753Y-9600650D01*
X4648753Y-9600650D02*
X4677325Y-9600650D01*
X4677325Y-9600650D02*
X4696373Y-9610174D01*
X4772563Y-9810174D02*
X4782087Y-9800650D01*
X4782087Y-9800650D02*
X4801134Y-9772079D01*
X4801134Y-9772079D02*
X4810658Y-9753031D01*
X4810658Y-9753031D02*
X4820182Y-9724460D01*
X4820182Y-9724460D02*
X4829706Y-9676841D01*
X4829706Y-9676841D02*
X4829706Y-9638746D01*
X4829706Y-9638746D02*
X4820182Y-9591127D01*
X4820182Y-9591127D02*
X4810658Y-9562555D01*
X4810658Y-9562555D02*
X4801134Y-9543508D01*
X4801134Y-9543508D02*
X4782087Y-9514936D01*
X4782087Y-9514936D02*
X4772563Y-9505412D01*
X5134468Y-9810174D02*
X5124944Y-9800650D01*
X5124944Y-9800650D02*
X5105896Y-9772079D01*
X5105896Y-9772079D02*
X5096373Y-9753031D01*
X5096373Y-9753031D02*
X5086849Y-9724460D01*
X5086849Y-9724460D02*
X5077325Y-9676841D01*
X5077325Y-9676841D02*
X5077325Y-9638746D01*
X5077325Y-9638746D02*
X5086849Y-9591127D01*
X5086849Y-9591127D02*
X5096373Y-9562555D01*
X5096373Y-9562555D02*
X5105896Y-9543508D01*
X5105896Y-9543508D02*
X5124944Y-9514936D01*
X5124944Y-9514936D02*
X5134468Y-9505412D01*
X5210658Y-9600650D02*
X5210658Y-9733984D01*
X5210658Y-9619698D02*
X5220182Y-9610174D01*
X5220182Y-9610174D02*
X5239230Y-9600650D01*
X5239230Y-9600650D02*
X5267801Y-9600650D01*
X5267801Y-9600650D02*
X5286849Y-9610174D01*
X5286849Y-9610174D02*
X5296373Y-9629222D01*
X5296373Y-9629222D02*
X5296373Y-9733984D01*
X5420182Y-9733984D02*
X5401134Y-9724460D01*
X5401134Y-9724460D02*
X5391611Y-9714936D01*
X5391611Y-9714936D02*
X5382087Y-9695889D01*
X5382087Y-9695889D02*
X5382087Y-9638746D01*
X5382087Y-9638746D02*
X5391611Y-9619698D01*
X5391611Y-9619698D02*
X5401134Y-9610174D01*
X5401134Y-9610174D02*
X5420182Y-9600650D01*
X5420182Y-9600650D02*
X5448754Y-9600650D01*
X5448754Y-9600650D02*
X5467801Y-9610174D01*
X5467801Y-9610174D02*
X5477325Y-9619698D01*
X5477325Y-9619698D02*
X5486849Y-9638746D01*
X5486849Y-9638746D02*
X5486849Y-9695889D01*
X5486849Y-9695889D02*
X5477325Y-9714936D01*
X5477325Y-9714936D02*
X5467801Y-9724460D01*
X5467801Y-9724460D02*
X5448754Y-9733984D01*
X5448754Y-9733984D02*
X5420182Y-9733984D01*
X5543992Y-9600650D02*
X5620182Y-9600650D01*
X5572563Y-9533984D02*
X5572563Y-9705412D01*
X5572563Y-9705412D02*
X5582087Y-9724460D01*
X5582087Y-9724460D02*
X5601134Y-9733984D01*
X5601134Y-9733984D02*
X5620182Y-9733984D01*
X5839230Y-9600650D02*
X5839230Y-9800650D01*
X5839230Y-9610174D02*
X5858277Y-9600650D01*
X5858277Y-9600650D02*
X5896373Y-9600650D01*
X5896373Y-9600650D02*
X5915420Y-9610174D01*
X5915420Y-9610174D02*
X5924944Y-9619698D01*
X5924944Y-9619698D02*
X5934468Y-9638746D01*
X5934468Y-9638746D02*
X5934468Y-9695889D01*
X5934468Y-9695889D02*
X5924944Y-9714936D01*
X5924944Y-9714936D02*
X5915420Y-9724460D01*
X5915420Y-9724460D02*
X5896373Y-9733984D01*
X5896373Y-9733984D02*
X5858277Y-9733984D01*
X5858277Y-9733984D02*
X5839230Y-9724460D01*
X6048753Y-9733984D02*
X6029706Y-9724460D01*
X6029706Y-9724460D02*
X6020182Y-9705412D01*
X6020182Y-9705412D02*
X6020182Y-9533984D01*
X6210658Y-9733984D02*
X6210658Y-9629222D01*
X6210658Y-9629222D02*
X6201134Y-9610174D01*
X6201134Y-9610174D02*
X6182087Y-9600650D01*
X6182087Y-9600650D02*
X6143992Y-9600650D01*
X6143992Y-9600650D02*
X6124944Y-9610174D01*
X6210658Y-9724460D02*
X6191611Y-9733984D01*
X6191611Y-9733984D02*
X6143992Y-9733984D01*
X6143992Y-9733984D02*
X6124944Y-9724460D01*
X6124944Y-9724460D02*
X6115420Y-9705412D01*
X6115420Y-9705412D02*
X6115420Y-9686365D01*
X6115420Y-9686365D02*
X6124944Y-9667317D01*
X6124944Y-9667317D02*
X6143992Y-9657793D01*
X6143992Y-9657793D02*
X6191611Y-9657793D01*
X6191611Y-9657793D02*
X6210658Y-9648270D01*
X6277325Y-9600650D02*
X6353515Y-9600650D01*
X6305896Y-9533984D02*
X6305896Y-9705412D01*
X6305896Y-9705412D02*
X6315420Y-9724460D01*
X6315420Y-9724460D02*
X6334468Y-9733984D01*
X6334468Y-9733984D02*
X6353515Y-9733984D01*
X6496373Y-9724460D02*
X6477325Y-9733984D01*
X6477325Y-9733984D02*
X6439230Y-9733984D01*
X6439230Y-9733984D02*
X6420182Y-9724460D01*
X6420182Y-9724460D02*
X6410658Y-9705412D01*
X6410658Y-9705412D02*
X6410658Y-9629222D01*
X6410658Y-9629222D02*
X6420182Y-9610174D01*
X6420182Y-9610174D02*
X6439230Y-9600650D01*
X6439230Y-9600650D02*
X6477325Y-9600650D01*
X6477325Y-9600650D02*
X6496373Y-9610174D01*
X6496373Y-9610174D02*
X6505896Y-9629222D01*
X6505896Y-9629222D02*
X6505896Y-9648270D01*
X6505896Y-9648270D02*
X6410658Y-9667317D01*
X6677325Y-9733984D02*
X6677325Y-9533984D01*
X6677325Y-9724460D02*
X6658277Y-9733984D01*
X6658277Y-9733984D02*
X6620182Y-9733984D01*
X6620182Y-9733984D02*
X6601134Y-9724460D01*
X6601134Y-9724460D02*
X6591611Y-9714936D01*
X6591611Y-9714936D02*
X6582087Y-9695889D01*
X6582087Y-9695889D02*
X6582087Y-9638746D01*
X6582087Y-9638746D02*
X6591611Y-9619698D01*
X6591611Y-9619698D02*
X6601134Y-9610174D01*
X6601134Y-9610174D02*
X6620182Y-9600650D01*
X6620182Y-9600650D02*
X6658277Y-9600650D01*
X6658277Y-9600650D02*
X6677325Y-9610174D01*
X6753515Y-9810174D02*
X6763039Y-9800650D01*
X6763039Y-9800650D02*
X6782087Y-9772079D01*
X6782087Y-9772079D02*
X6791611Y-9753031D01*
X6791611Y-9753031D02*
X6801134Y-9724460D01*
X6801134Y-9724460D02*
X6810658Y-9676841D01*
X6810658Y-9676841D02*
X6810658Y-9638746D01*
X6810658Y-9638746D02*
X6801134Y-9591127D01*
X6801134Y-9591127D02*
X6791611Y-9562555D01*
X6791611Y-9562555D02*
X6782087Y-9543508D01*
X6782087Y-9543508D02*
X6763039Y-9514936D01*
X6763039Y-9514936D02*
X6753515Y-9505412D01*
M02*
